/* XPM */
static char * dnd_fb_i_xpm[] = {
/**/
"30 23 7 1",
/**/
" 	s None		m none	c None",
".	s iconColor1	m black	c black",
"X	s iconColor12   m white c coral",
"o	s iconColor10   m white c CornflowerBlue",
"O	s iconColor3    m white c red",
"+	s iconColor9    m white c DarkKhaki",
"@	s iconColor11   m white c Cadet Blue",
"                              ",
"           . .   . . . . .    ",
"          . X . . o o o o     ",
"         . X X . o o o o .    ",
"        . . X . . o o o o     ",
"        OO . .   . . OO. .    ",
"        OOO         OOO       ",
" . . .   OOO       OOO        ",
". + + . . OOO     OOO         ",
" + + + .   OOO   OOO . . . . .",
". + + . .   OOO OOO . o o o o ",
" . . .       OOOOO . o o o o .",
"        .     OOO . . o o o o ",
"           . OOOOO   . . . . .",
"        . . OOO OOO           ",
"         . OOO + OOO          ",
"          OOO + . OOO         ",
"         OOO . .   OOO. . . . ",
"        OOO       . OOO@ @ @ .",
"        OO         . OO @ @ @ ",
"                     @ @ @ @ .",
"                    . . . . . ",
"                              "};
