/* XPM */
static char * dnd_fb_xpm[] = {
/*Add Extension...*/
"30 23 6 1",
/**/
" 	s None		m none	c None",
".	s iconColor1	m black	c black",
"X	s iconColor12 	m white	c coral",
"o	s iconColor10 	m white	c CornflowerBlue",
"O	s iconColor9 	m white	c DarkKhaki",
"+	s iconColor11 	m white	c Cadet Blue",
"                              ",
"          ..... ..........    ",
"          .XXX. .oooooooo.    ",
"        ...XXX...oooooooo.    ",
"        . .XXX. .oooooooo.    ",
"        . ..... ..........    ",
"        .                     ",
"....... .                     ",
".OOOOO. .                     ",
".OOOOO...           ..........",
".OOOOO. .           .oooooooo.",
"....... .         ...oooooooo.",
"        .         . .oooooooo.",
"        . ....... . ..........",
"        . .OOOOO. .           ",
"        ...OOOOO...           ",
"          .OOOOO. .           ",
"          ....... . ..........",
"                  . .++++++++.",
"                  ...++++++++.",
"                    .++++++++.",
"                    ..........",
"                              "};
