/* XPM */
static char * dnd_vb_xpm[] = {
/* width height ncolors chars_per_pixel */
"30 23 3 1",
/* colors */
" 	s None		m none	c none",
".	s iconColor1	m black	c black",
"X	s iconColor2	m white	c white",
/* pixels */
"                              ",
"         .....                ",
"       .........              ",
"      ...XXXXX...             ",
"      ..X..XXXX..             ",
"     ..X.XX.XXXX..            ",
"     ..X.X.XXXXX..            ",
"     ..XX.XXXXXX..            ",
"     ..XXXXXXXXX..            ",
"     ..XXXXXXXXX..            ",
"      ..XXXXXXX..             ",
"      ...XXXXX...             ",
"       ...........            ",
"         .....  ...           ",
"                 ...          ",
"                  ...         ",
"                   ...        ",
"                    ...       ",
"                     ...      ",
"                      ...     ",
"                       ...    ",
"                        ..    ",
"                              "};
