/* XPM */
static char * dnd_vb_i_xpm[] = {
/* wifth height ncolors chars_per_pixel */
"30 23 4 1",
/* colors */
" 	s None		m none	c none",
".	s iconColor1	m black	c black",
"X	s iconColor3    m black c red",
"o	s iconColor2	m white	c white",
/* pixels */
"                              ",
"         . . .                ",
"        . . . .               ",
"       XXo o o .      XX      ",
"      .XXX. o o .    XXX      ",
"     . oXXX. o o .  XXX       ",
"      . .XXXo o .  XXX        ",
"     . o .XXXo o .XXX         ",
"      . o oXXXo .XXX          ",
"     . o o oXXXoXXX           ",
"      . o o oXXXXX            ",
"       . o o oXXX             ",
"        . . .XXXXX            ",
"         . .XXX XXX           ",
"           XXX   XXX          ",
"          XXX     XXX         ",
"         XXX       XXX        ",
"        XXX         XXX       ",
"        XX           XX       ",
"                       .      ",
"                        .     ",
"                         .    ",
"                              "};
