/* XPM */
static char * omnibus_xpm[] = {
"72 72 5 1",
" 	s None	c None",
".	s iconColor1 c black",
"X	s iconColor3 c red",
"o	s iconGray1 c #dededededede",
"O	s iconColor2 c white",
"                                                                        ",
"                       ............................                     ",
"                    ...XXXXXXXXXXXXXXXXXXXXXXXXXXXX...                  ",
"                    ...XXXXXXXXXXXXXXXXXXXXXXXXXXXX...                  ",
"                   ....................................                 ",
"                   .oooooo..ooooooooo.oooooooooooooooo.                 ",
"                   .oooooo..ooooooooo.oooooooooooooooo.                 ",
"                   .ooooo.ooooooooooo.oooooooo.ooooooo.                 ",
"                   .ooooooooooooooooo.oooooo..oooooooo.                 ",
"                   .ooooooooooooooooo.oooooo..oooooooo.                 ",
"                   ....................................                 ",
"                  .XXXXXXXXXXXXXXXXXXXXXXXXXXXXXXXXXXXX.                ",
"                  .XXXXXXXXXXXXXXXXXXXXXXXXXXXXXXXXXXXX.                ",
"                  .XXXXXXXXXXXXXXXXXXXXXXXXXXXXXXXXXXXX.                ",
"                  .XXXXXXXXXXXXXXXXXXXXXXXXXXXXXXXXXXXX.                ",
"                  .XXXXXXXXXXXXXXXXXXXXXXXXXXXXXXXXXXXX.                ",
"                  .X...........................XX.......                ",
"                  .X...........................XX.......                ",
"                  .X..OO.OOOO.OO..O......OO....XX.......                ",
"                  .X...O..O.O..O..O.....O..O...XX....O..                ",
"                  .X.......................O...XX...OOO.                ",
"                  .X..OOOO.OO...OOO.O....OO....XX...OOO.                ",
"                  .X....O..O....OOO.O...O......XX...OOO.                ",
"                  .X....................O......XX...O...                ",
"                  .X..OO...O...O.OO.....OOOO...XX...O...                ",
"                  .X....OO.O...O..O.O..........XX.......                ",
"                  .X...........................XX.......                ",
"                  .X...........................XX.......                ",
"                  .XXXXXXXXXXXXXXXXXXXXXXXXXXXXXXXXXXXX.                ",
"                  ......................................                ",
"                  ......................................                ",
"                  .OOO.OOOOOO..OOOOOO.OOOOOO..OOOOOO.OO.                ",
"                  ......................................                ",
"                  ......................................                ",
"                  .XXXXXXXXXXXXXXXXXXXXXXXXXXXXXXXXXXXX.                ",
"                  .X...............XX................XX.                ",
"                  .X.ooooooooooooo.XX.oooooooooooooo.XX.                ",
"                  .X.ooooooooooooo.XX.oooooooooooooo.XX.                ",
"                  .X.oooo.oooooooo.XX.ooo..ooooooooo.XX.                ",
"                  .X.oooo.oooooooo.XX.ooo..ooooooooo.XX.                ",
"                  .X.oo..oooooo.oo.XX.oo.oooooooo.oo.XX.                ",
"                  .X.oooooooo..ooo.XX.ooooooooo..ooo.XX.                ",
"                  .X.oooooooo..ooo.XX.ooooooooo..ooo.XX.                ",
"                  .X...............XX.oooooooooooooo.XX.                ",
"                  .X.ooooooooooooo.XX.oooooooooooooo.XX.                ",
"                  .X.ooooooooooooo.XX................XX.                ",
"                  .X.ooooooooooooo.XX...O..O..O..O...XX.                ",
"                  .X.oooooooooooo..XXX..O..O..O..O..XXX.                ",
"                  .X...............XXX..O..O..O..O..XXX.                ",
"                  .XXXXXXXXXXXXXXXXXXXXXXXXXXXXXXXXXXXX.                ",
"                  .XXXXXXXXXXXXXXXXXXXXXXXXXXXXXXXXXXXX.                ",
"                  .XXXXXXXXXXXXXXXXXXXXXXXXXXXXXXXXXXXX.                ",
"                  .XXXXXXXXXX......OO......XXXXXXXXXXXX.                ",
"                  .XXXXXXXXX....OO....OO....XXXXXXXXXXX.                ",
"                  .XXXXXXXXX....OO....OO....XXXXXXXXXXX.                ",
"                  .XXXXXXXXX.OO..........OO.XXXXXXXXXXX.                ",
"                  .XXXXXXXXX....OO....OO....XXXXXXXXXXX.                ",
"                  .XXXXXXXXX....OO....OO....XXXXXXXXXXX.                ",
"                  .XXXXXXXXX.OO..........OO.XXXXXXXXXXX.                ",
"                  .XXXXXXXXX....OO....OO....XXXXXXXXXXX.                ",
"                  .XXXXXXXXX....OO....OO....XXXXXXXXXXX.                ",
"                  .XXXXXXXXX.OO..........OO.XXXXXXXXXXX.                ",
"                  ..XXXXXXXX................XXXXXXXXX...                ",
"                  ..XXXXXXXX................XXXXXXXXX...                ",
"                   .......XX.OO.OO.OO.OO.OO.XX.........                 ",
"                   ...... .....................  ......                 ",
"                   ...... .....................  ......                 ",
"                   ......       ..OOOOOO.        ......                 ",
"                   ......       .........        ......                 ",
"                   ......       .........        ......                 ",
"                   ......                        ......                 ",
"                                                                        "};
