/* XPM */
static char *_xpm[]={
"24 34 15 1",
"  c white",
". c black",
"o c #cccccccc9999",
"O c #333333333333",
"a c #00003333ffff",
"b c #cccc99996666",
"c c #666666666666",
"d c #999999999999",
"e c #cccccccccccc",
"f c #000033339999",
"g c #808080808080",
"h c #ffffafafafaf",
"i c #cccc33333333",
"j c #cccc66663333",
"k c none",
"kkkkkk..kkkkkkkkkkkkkkkk",
"kkkkkkk..ckkkkkkkkkkkkkk",
"kkkkkkkkc..kkkkbObOkkkkk",
"kkkkkkkkkk..kbOohhhbkkkk",
"kkkkkkkkkkk..jobohohOkkk",
"kkkkkkkkkkkk...kbohobkkk",
".......cc...ij...bohbO..",
"..d      e..ohj..bhohh.a",
"..d  ee  e...Ohjb.ohob.a",
"..d      e..ccOOhbibib.a",
"..d  ee  e.. cgOOOOOOO.a",
"..d e  eee.. e ddccc...f",
"..d      e..     ed .O..",
"..d  ee  e..  e     .c.k",
"..d      e..     ee .c.k",
"..d  ee  e..  e     .c.k",
"..d e  eee.. e ee   .c.k",
"..d      ....    ee .c.k",
"..d..................c.k",
"...ccccc..ccc..ccccccc.k",
".......................k",
"kkkkkkkkk.f...kkkkkkkkkk",
"kkkkkkkkk.f...kkkkkkkkkk",
"kkkkkkkkk.f...kkkkkkkkkk",
"kkkkkkkkkkf..kkkkkkkkkkk",
"kkkkkkkkkkf..kkkkkkkkkkk",
"kkkkkkkkkkf..kkkkkkkkkkk",
"kkkkkkkkkkf..kkkkkkkkkkk",
"kkkkkkkkkkf..kkkkkkkkkkk",
"kkkkkkkkkkf..kkkkkkkkkkk",
"kkkkkkkkkkf..kkkkkkkkkkk",
"kkkkkkkkkkf..kkkkkkkkkkk",
"kkkkkkkkkkf..kkkkkkkkkkk",
"kkkkkkkkkkkkkkkkkkkkkkkk"
};
