/* XPM */
static char *_xpm[]={
"31 31 14 1",
"  c white",
". c black",
"O c #000066669999",
"d c #ffff00000000",
"f c #ffffffff0000",
"h c #0000ffff0000",
"i c #00003333ffff",
"n c #999999999999",
"p c #cccccccccccc",
"q c #000033339999",
"u c #00000000ffff",
"v c #ffff0000ffff",
"z c #ffffc8c80000",
"F c none",
"FFFFFFFFFFFFFFFFFFFFFFFFFFFFFFF",
"FFFFFFFFFFFFFFFFFFFFFFFFFFFFFFF",
"FFFFFFFFFFFFFFFFFFFFFFFFFFFFFFF",
"OOOOOOOOOOOOOOOOOOOOOOOOOOOOOOO",
"Oiuiiiiiiiiiiiiiiiiiiiuuuuuuuuq",
"Oi iiiiiiiiiiiiiiiuiiuuuuuuuuu.",
"Oqqqqqqqqqqqqqqqqqqqqqqqqqqqqqq",
"npppnppnppnppnppnppppppppppppp.",
"nppppnppnppnppnnpnpppppppppppp.",
"nddddddddddddddddddddddddddddd.",
"nddddddddddddddddddddddddddddd.",
"nddddddddddddddddddddddddddddd.",
"nzzzzzzzzzzzzzzzzzzzzzzzzzzzzz.",
"nzzzzzzzzzzzzzzzzzzzzzzzzzzzzz.",
"nzzzzzzzzzzzzzzzzzzzzzzzzzzzzz.",
"nfffffffffffffffffffffffffffff.",
"nfffffffffffffffffffffffffffff.",
"nfffffffffffffffffffffffffffff.",
"nvvvvvvvvvvvvvvvvvvvvvvvvvvvvv.",
"nvvvvvvvvvvvvvvvvvvvvvvvvvvvvv.",
"nvvvvvvvvvvvvvvvvvvvvvvvvvvvvv.",
"nhhhhhhhhhhhhhhhhhhhhhhhhhhhhh.",
"nhhhhhhhhhhhhhhhhhhhhhhhhhhhhh.",
"nhhhhhhhhhhhhhhhhhhhhhhhhhhhhh.",
"nnnnnnnnnnnnnnnnnnnnnnnnnnnnnn.",
"npppppppppppppppp npppp npppp .",
"n p p p p p p p p n p p n p p .",
"...............................",
"FFFFFFFFFFFFFFFFFFFFFFFFFFFFFFF",
"FFFFFFFFFFFFFFFFFFFFFFFFFFFFFFF",
"FFFFFFFFFFFFFFFFFFFFFFFFFFFFFFF"
};
