/* XPM */
static char * nco_config_menu_xpm[] = {
"21 28 4 1",
" 	s iconColor1 	c black",
".	s None		c None",
"X	s iconGray4 	c #949494949494",
"o	s iconGray3	c #adadadadadad",
"                    .",
" XXXXXXXXXXXXXXXXXX  ",
" XXXXXXXXXXXXXXXXXX  ",
" X            XXXXX  ",
" XX            XXXX  ",
" XXXXXXXXXXXXXXXXXX  ",
" XXXXXXXXXXXXXXXXXX  ",
"                     ",
" oooooooooooooooooo  ",
" oooooooooooooooooo  ",
" o            ooooo  ",
" oo            oooo  ",
" oooooooooooooooooo  ",
" oooooooooooooooooo  ",
" o            ooooo  ",
" oo            oooo  ",
" oooooooooooooooooo  ",
" oooooooooooooooooo  ",
" o            ooooo  ",
" oo            oooo  ",
" oooooooooooooooooo  ",
" oooooooooooooooooo  ",
" o            ooooo  ",
" oo            oooo  ",
" oooooooooooooooooo  ",
" oooooooooooooooooo  ",
"                     ",
".                    "};
