/* XPM */
static char * nco_xprops_xpm[] = {
"27 27 8 1",
" 	s iconColor2 	c white",
".	s None		c None",
"X	s iconColor4 	c green",
"o	s iconColor1 	c black",
"O	s iconColor5 	c blue",
"+	s iconColor3 	c red",
"@	s iconGray5 	c #808080",
"#	s iconColor7 	c cyan",
"      ....XX.............. ",
" ooooo ..XXXO....++....+.  ",
" oooooo XXXO@@..+++o..+++o ",
" ooooooXXXO@@...++++@++++o ",
" oooooXXXO@@.....+++++++@o ",
" ooooXXXOo@......++++++@oo ",
".XXoXXXXO@o ......++++@oo .",
"XXXOXXXO@ooo .....+++++o ..",
".XXXXXOo@oooo ...++++++++..",
".XXXXXO@oooooo .++++@++++o.",
"..XXXOo@ooooooo  ++o@ +++@@",
"..XXXO oooooooo o+o@ ..o@@.",
"...XO@@ oooooo ooo@ ....@..",
"....@@.. oooo oooo ........",
"....... ooo######oo .......",
"...... ooo#######Ooo ......",
"..... oooo###OO##O@oo .....",
".... oooo .#O@###O@ooo ....",
"... oooo ...@###OO@oooo ...",
".. oooo ....###O@@oooooo ..",
". oooo ....####O@oooooooo .",
" oooo ......##O@ ooooooooo ",
" ooo .........@@. oooooooo ",
" oo .......####... ooooooo ",
" o ........####@... oooooo ",
"  ..........##O@.... ooooo ",
" ............@@......      "};
