/* XPM */
static char *_xpm[]={
"31 31 4 1",
"  c #cccccccc9999",
". c #ffffffff0000",
"o c #cccc99990000",
"O c none",
"OOOOOOOOOOOOOOOOOOOOOOOOOOOOOOO",
"OOOOOOOOOOOOOOOOOOOOOOOOOOOOOOO",
"OOOOOOOOOOOOOOOOOOOOOOOOOOOOOOO",
"OOOOOOOOOOOOOOOOOOOOOOOOOOOOOOO",
"OOOOOOOOOOOOOO           OOOOOO",
"OOOOOOOOOOOOOO ........oOOOOOOO",
"OOOOOOOOOOOOO ........oOOOOOOOO",
"OOOOOOOOOOOOO .......oOOOOOOOOO",
"OOOOOOOOOOOO .......oOOOOOOOOOO",
"OOOOOOOOOOO .......oOOOOOOOOOOO",
"OOOOOOOOOOO ......         OOOO",
"OOOOOOOOOO ..............oOOOOO",
"OOOOOOOOOO .............oOOOOOO",
"OOOOOOOOOO ooooooo.....oOOOOOOO",
"OOOOOOOOOOOOOOOOO ....oOOOOOOOO",
"OOOOOOOOOOOOOOOO ....oOOOOOOOOO",
"OOOOOOOOOOOOOOO ....oOOOOOOOOOO",
"OOOOOOOOOOOOOO ....oOOOOOOOOOOO",
"OOOOOOOOOOOOOO ...oOOOOOOOOOOOO",
"OOOOOOOOOOOOO ...oOOOOOOOOOOOOO",
"OOOOOOOOOOOO ...oOOOOOOOOOOOOOO",
"OOOOOOOOOOO ...oOOOOOOOOOOOOOOO",
"OOOOOOOOOO ...oOOOOOOOOOOOOOOOO",
"OOOOOOOOOO ..oOOOOOOOOOOOOOOOOO",
"OOOOOOOOO ..oOOOOOOOOOOOOOOOOOO",
"OOOOOOOOO .oOOOOOOOOOOOOOOOOOOO",
"OOOOOOOOO oOOOOOOOOOOOOOOOOOOOO",
"OOOOOOOOO OOOOOOOOOOOOOOOOOOOOO",
"OOOOOOOOOOOOOOOOOOOOOOOOOOOOOOO",
"OOOOOOOOOOOOOOOOOOOOOOOOOOOOOOO",
"OOOOOOOOOOOOOOOOOOOOOOOOOOOOOOO"
};
