/* XPM */
static char * nco_help_xpm[] = {
"21 37 3 1",
" 	s None		c None",
".	s iconColor2 	c white",
"X	s iconColor1 	c black",
"       .......       ",
"     ..XXXXXXX..     ",
"   ..XXXXXXXXXXX..   ",
"  .XXXX....XXXXXXX.  ",
"  .XXX.    .XXXXXX.  ",
" .XXXX.    .XXXXXXX. ",
".XXXXXX.    .XXXXXXX.",
".XXXXXXX.   .XXXXXXX.",
".XXXXXXX.   .XXXXXXX.",
".XXXXXXX.   .XXXXXXX.",
" .XXXXXX.   .XXXXXXX.",
"  .XXXX.    .XXXXXXX.",
"   ....     .XXXXXX. ",
"           .XXXXXXX. ",
"           .XXXXXX.  ",
"           .XXXXX.   ",
"          .XXXXX.    ",
"          .XXXX.     ",
"         .XXX..      ",
"         .XX.        ",
"        .XX.         ",
"        .XX.         ",
"        .XX.         ",
"        .XX.         ",
"         ..          ",
"                     ",
"                     ",
"        ....         ",
"       .XXXX.        ",
"      .XXXXXX.       ",
"     .XXXXXXXX.      ",
"     .XXXXXXXX.      ",
"     .XXXXXXXX.      ",
"     .XXXXXXXX.      ",
"      .XXXXXX.       ",
"       .XXXX.        ",
"        ....         "};
