/* XPM */
static char * nco_auto_xpm[] = {
"17 27 5 1",
" 	s None		c None",
".	s iconColor1 	c black",
"X	s iconGray3 	c #adadadadadad",
"o	s iconGray6 	c #636363636363",
"O	s iconGray1 	c #dededededede",
"   ...           ",
" ...X...         ",
" .XXoXX.         ",
"..XoooX..        ",
".XXoXOXX.        ",
"..XXoXX..        ",
" .XXXXX....      ",
" ...X...XX.  .   ",
"   ...X.XXX..X.  ",
"   .XXXXXXXXXX.. ",
"    .XXXoooXXX.  ",
"    .XXoXoXoXX.  ",
"  ..XXoXoXOXoXX..",
"  .XXXooXXXOoXXX.",
"  ...XoXXXOXoX...",
"    .XXoXoXoXX.  ",
"    .XXXoooXXX.  ",
"   .XXXXXXXXXXX. ",
"   ..X..XX.....  ",
" ...X...XX.      ",
" .XXoXX....      ",
"..XoooX..        ",
".XXoXOXX.        ",
"..XXoXX..        ",
" .XXXXX.         ",
" ...X...         ",
"   ...           "};
