/* XPM */
static char * nco_vb_xpm[] = {
"32 33 6 1",
" 	s None		c None",
".	s iconColor1 	c black",
"X	s iconGray2 	c #bdbdbdbdbdbd",
"o	s iconColor2 	c white",
"O	s iconGray5 	c #737373737373",
"+	s iconGray1 	c #dededededede",
"       .......                  ",
"     ..XXXXXXX..                ",
"   ..XX.......XX..              ",
"  .XX..       ..XX.             ",
"  .X.   o       .X.             ",
" .X.  oo         .X.            ",
" .X.  o          .X.            ",
".X.  o            .X.           ",
".X.               .X.           ",
".X.               .X.           ",
".X.               .X.           ",
".X.               .X.           ",
".X.               .X.           ",
".X.               .X.           ",
" .X.             .X.            ",
" .X.             .X.            ",
"  .X.           .X.             ",
"  .XX..       ..XX.             ",
"   ..XX.......XX..X.            ",
"     ..XXXXXXX...OOX.           ",
"       .......   .OOX.          ",
"                  .OO+.         ",
"                   .OO+.        ",
"                    .OO+.       ",
"                     .OO+.      ",
"                      .OO+.     ",
"                       .OO+.    ",
"                        .OO+.   ",
"                         .OO+.  ",
"                          .OO+. ",
"                           .OO+.",
"                            .OO.",
"                             .. "};
