/* XPM */
static char * nco_config_vis_xpm[] = {
"28 17 8 1",
" 	s None		c None",
".	s iconColor1 	c black",
"X	s iconGray6 	c #636363636363",
"o	s iconColor5 	c blue",
"O	s iconColor2 	c white",
"+	s iconGray2 	c #bdbdbdbdbdbd",
"@	s iconColor7 	c cyan",
"#	s iconGray3 	c #adadadadadad",
"  .        ........XX       ",
"   ..................XX     ",
" .      ..............XX    ",
"  .........XXXooooo....XX   ",
".     ....XXXXoOOOoo....XX  ",
" .......XXXX+ooOOO.o.o...XX ",
"    ...XXX+Ooo@.o.o.o.o...X ",
"......XXX+O+oo@o.o.o.o.o...#",
"  ....XXXO+Ooo@.o.o.o.o.X..#",
" .....XXX+O+oo@o.o.o.o.oX..#",
" .....XXXO+Ooo@oo.o.o.ooX..#",
"     ..XXXX+ooo@oo.o.o@o...#",
"      ..XXX++ooo@oo.o@o...X ",
"       ..XXXXXooo@@@@o..X   ",
"        ..XXXXXoooooo..X    ",
"         .............X     ",
"           ..........X      "};
