/* XPM */
static char * nco_auto_aw_xpm[] = {
"28 28 4 1",
" 	s iconGray1  c #dededededede",
".	s iconGray6  c #636363636363",
"X	s iconGray2  c #bdbdbdbdbdbd",
"o	s iconColor1 c black",
"                            ",
"                           .",
"  XXXXXXXXXXXXXXXXXXXXXXXX..",
"  XXXXXXXXXXXXXXXXXXXXXXXX..",
"  XXXXXXXXXXXoXXXXXXXXXXXX..",
"  XXXXXXXXXXXooXXXXXXXXXXX..",
"  XXXXXXXXXXoooXXXXXXXXXXX..",
"  XXXXXXXXXXooooXXXXXXXXXX..",
"  XXXXXXXXXXooooXXXXXXXXXX..",
"  XXXXXXXXXooooooXXXXXXXXX..",
"  XXXXXXXXXooooooXXXXXXXXX..",
"  XXXXXXXXooXooooXXXXXXXXX..",
"  XXXXXXXXoXXoooooXXXXXXXX..",
"  XXXXXXXooXXoooooXXXXXXXX..",
"  XXXXXXXoXXXXoooooXXXXXXX..",
"  XXXXXXXoXXXXoooooXXXXXXX..",
"  XXXXXXooXXXXXoooooXXXXXX..",
"  XXXXXXooooooooooooXXXXXX..",
"  XXXXXooXXXXXXXoooooXXXXX..",
"  XXXXXoXXXXXXXXoooooXXXXX..",
"  XXXXXoXXXXXXXXoooooXXXXX..",
"  XXXXooXXXXXXXXXoooooXXXX..",
"  XXXoooXXXXXXXXoooooooXXX..",
"  XXooooooXXXXooooooooooXX..",
"  XXXXXXXXXXXXXXXXXXXXXXXX..",
"  XXXXXXXXXXXXXXXXXXXXXXXX..",
"  ..........................",
" ..........................."};
