/* XPM */
static char * nco_config_opt_xpm[] = {
"27 27 7 1",
" 	s None		c None",
".	s iconColor4 	c green",
"X	s iconColor5 	c blue",
"o	s iconColor3 	c red",
"O	s iconGray5 	c #737373737373",
"+	s iconColor1 	c black",
"@	s iconColor7 	c cyan",
"          ..               ",
"         ...X    oo    o   ",
"        ...XOO  ooo+  ooo  ",
"       ...XOO   ooooOooooO ",
"      ...XOO     oooooooOO ",
"     ...X+O      ooooooOO  ",
" .. ....XO        ooooOO   ",
"...X...XOO        ooooo+   ",
" .....X+O        oooooooo  ",
" .....XO        ooooOoooo+ ",
"  ...X+O        +oo+O oooOO",
"  ...XO          o+OO  +OO ",
"   .XOO           OO    O  ",
"    OO                     ",
"           @@@@@@          ",
"          @@@@@@@X         ",
"          @@@XX@@XO        ",
"           @XO@@@XO        ",
"            O@@@XXO        ",
"            @@@XOO         ",
"           @@@@XO          ",
"            @@XOO          ",
"              OO           ",
"           @@@@            ",
"           @@@@O           ",
"            @@XO           ",
"             OO            "};
