/* XPM */
static char *_xpm[]={
"31 31 10 1",
"  c white",
". c black",
"O c #000066669999",
"i c #00003333ffff",
"m c #666666666666",
"n c #999999999999",
"p c #cccccccccccc",
"q c #000033339999",
"u c #00000000ffff",
"F c none",
"FFFFFFFFFFFFFFFFFFFFFFFFFFFFFFF",
"FFFFFFFFFFFFFFFFFFFFFFFFFFFFFFF",
"FFFFFFFFFFFFFFFFFFFFFFFFFFFFFFF",
"OOOOOOOOOOOOOOOOOOOOOOOOOOOOOOO",
"Oiuiiiiiiiiiiiiiiiiiiiuuuuuuuq.",
"Oi iiiiiiiiiiiiiiiuiiuuuuuuuuq.",
"Oqqqqqqqqqqqqqqqqqqqqqqqqqqqqq.",
"n                            n.",
"n pppppppppppppppppppppppppppn.",
"n pppppppppppppppppppppppppppn.",
"n pppppppppmmmmmmmmmmmmmmmm pn.",
"n pmmmmmmppm               ppn.",
"n pppppppppm                pn.",
"n pppppppppm p p p p p p p ppn.",
"n pppppppppppppppppppppppppppn.",
"n pppppppppmmmmmmmmmmmmmmmm pn.",
"n pmmmmppppm               ppn.",
"n pppppppppm                pn.",
"n pppppppppm p p p p p p p ppn.",
"n pppppppppppppppppppppppppppn.",
"n pppppppppmmmmmmmmmmmmmmmm pn.",
"n pmmmmmpppm               ppn.",
"n pppppppppm                pn.",
"n pppppppppm p p p p p p p ppn.",
"n pppppppppppppppppppppppppppn.",
"n pppppppppppppppppppppppppppn.",
"nnnnnnnnnnnnnnnnnnnnnnnnnnnnnn.",
"...............................",
"FFFFFFFFFFFFFFFFFFFFFFFFFFFFFFF",
"FFFFFFFFFFFFFFFFFFFFFFFFFFFFFFF",
"FFFFFFFFFFFFFFFFFFFFFFFFFFFFFFF"
};
