/* XPM */
static char * nco_auto_tw_xpm[] = {
"28 28 4 1",
" 	s iconGray1  c #dededededede",
".	s iconGray6  c #636363636363",
"X	s iconGray2  c #bdbdbdbdbdbd",
"o	s iconColor1 c black",
"                            ",
"                           .",
"  XXXXXXXXXXXXXXXXXXXXXXXX..",
"  XXXXXXXXXXXXXXXXXXXXXXXX..",
"  XXXooooooooooooooooooXXX..",
"  XXXooooXXXoooooXXooooXXX..",
"  XXXoooXXXXoooooXXXXooXXX..",
"  XXXooXXXXXoooooXXXXooXXX..",
"  XXXoXXXXXXoooooXXXXXoXXX..",
"  XXXoXXXXXXoooooXXXXXoXXX..",
"  XXXXXXXXXXoooooXXXXXXXXX..",
"  XXXXXXXXXXoooooXXXXXXXXX..",
"  XXXXXXXXXXoooooXXXXXXXXX..",
"  XXXXXXXXXXoooooXXXXXXXXX..",
"  XXXXXXXXXXoooooXXXXXXXXX..",
"  XXXXXXXXXXoooooXXXXXXXXX..",
"  XXXXXXXXXXoooooXXXXXXXXX..",
"  XXXXXXXXXXoooooXXXXXXXXX..",
"  XXXXXXXXXXoooooXXXXXXXXX..",
"  XXXXXXXXXXoooooXXXXXXXXX..",
"  XXXXXXXXXXoooooXXXXXXXXX..",
"  XXXXXXXXXXoooooXXXXXXXXX..",
"  XXXXXXXXXooooooXXXXXXXXX..",
"  XXXXXXXoooooooooooXXXXXX..",
"  XXXXXXXXXXXXXXXXXXXXXXXX..",
"  XXXXXXXXXXXXXXXXXXXXXXXX..",
"  ..........................",
" ..........................."};
