/* XPM */
static char *_xpm[]={
"31 31 14 1",
"  c white",
". c #cccccccc9999",
"o c #999999996666",
"O c #333333333333",
"a c #ffff00000000",
"b c #0000ffff0000",
"c c #000066660000",
"d c #666666666666",
"e c #999999999999",
"f c #cccccccccccc",
"g c #cccc00000000",
"h c #000099990000",
"i c #ffffafafafaf",
"k c none",
"kkkkkkkkkkkkkkkkkkkkkkkkkkkkkkk",
"kkkkkkkkkkkkkkkkkkkkkkkkkkkkkkk",
"kkkkkkkkkkkkkdkkkkkkkkkkkkkkkkk",
"kkkkkkkkkkkkkeekkkkkkkkkkkkkkkk",
"kkkkkkkkkkkkkd dkkkkkkkkkkkkkkk",
"kkkkkkkkkkkkke  ekkkkkkkkkkkkkk",
"kkkkkkkkkkkkkd   dkkkkkkkkkkkkk",
"kkkkkkkkkkkkkaf   ekkkkkkkkkkkk",
"kkkOdOdOdOdOdia.   dkkkkkkkkkkk",
"kkOiiiiiiiiiiiaaf   ekkkkkkkkkk",
"kkdiaaaaaaaaaaaaa.   dkkkkkkkkk",
"kkOiaaaaaaaaaaaaag.  Okkkkkkkkk",
"kkdiaaaaaaaaaaaagO . dkkkkkkkkk",
"kkOiggggggggggagOe   Okkkkkkkkk",
"kkkOOOOOOOOOOigOe. . dkk.kkkkkk",
"kkkkkkkkkkkkkaOef    Okkodkkkkk",
"kkkkkkkd.d.d.d.d.. . dd..bdkkkk",
"kkkkkkk.bbbbbbbbbh   Oobbbbdkkk",
"kkkkkkkdbbbbbbbbbbh. dhbbbbbdkk",
"kkkkkkk.bbbbbbbbbbo  Ohbbbbbbdk",
"kkkkkkkdbbbbbbbbbbh. dhhbbbbOkk",
"kkkkkkk.bhbhbhbhbOo fOchhbbOkkk",
"kkkkkkkhcOcOcOcOcOd. dOO.bOkkkk",
"kkkkkkkkkkkkkkkOOdf fOkkdOkkkkk",
"kkkkkkkkkkkkkkkkOef. dkkOkkkkkk",
"kkkkkkkkkkkkkkkkkOf fOkkkkkkkkk",
"kkkkkkkkkkkkkkkkkkd. dkkkkkkkkk",
"kkkkkkkkkkkkkkkkkkkOfOkkkkkkkkk",
"kkkkkkkkkkkkkkkkkkkkddkkkkkkkkk",
"kkkkkkkkkkkkkkkkkkkkkOkkkkkkkkk",
"kkkkkkkkkkkkkkkkkkkkkkkkkkkkkkk"
};
