/* XPM */
static char *_xpm[]={
"23 42 12 1",
"a c #999999996666",
"d c #ffff00000000",
"f c #ffffffff0000",
"h c #0000ffff0000",
"i c #00003333ffff",
"q c #000033339999",
"r c #cccc00000000",
"s c #000099990000",
"t c #666633339999",
"v c #ffff0000ffff",
"A c #cccc33333333",
"F c none",
"FFFFFFFFFFFFaaFFFFFFFFF",
"hhhhhhhhhhhhhhhhhhhhhhh",
"sssssssssssssssssssssss",
"FFFFFFFFFFFFaaFFFFFFFFF",
"FFFFFFFFFFFFfaFFFFFFFFF",
"FFFFFFFFFFFFfaFFFFFFFFF",
"FFFFFFFFFFFFfaFFFFFFFFF",
"FFFFFFFFFFFFfaFFFFFFFFF",
"FFFFFFFFFFFFfaFFFFFFFFF",
"FFFFFFFFFFFFfaFFFFFFFFF",
"FFFFFFFFFFFFfaFFFFFFFFF",
"FFFFFFFFFFFFfaFFFFFFFFF",
"FFFFFFFFFFFFfaFFFFFFFFF",
"FhsFFFFFiqFFfaFFFFFFFFF",
"rhsrdddriqrrfardddddddd",
"AhsAAAAAiqAAfaAAAAAAAAA",
"FssFFFFFiqFFfaFFFFFFFFF",
"fffffffaiqaafaaffffffff",
"aaaaaaaaiqaafaaaaaaaaaa",
"FssFFFFFiqFFfaFFFFFFFFF",
"FhsFFFFFiqFFfaFFFFFFFFF",
"FhsFFFFFiqFFfaFFFFFFFFF",
"FhsFFFFFiqFFFFFFFFFFFFF",
"FhsFFFFFiqFFFFFFFFFFFFF",
"FssFFFFFqqFFFFFFFvtFFFF",
"hhhhhhhhhhhhhhhhsvtshhh",
"sssssssssssssssssvtssss",
"FssFFFFFqqFFFFFFFvtFFFF",
"FhsFFFFFiqFFFFFFFvtFFFF",
"FssFFFFFqqFFFFFFFvtFFFF",
"ddddddddddddddddrvtrddd",
"AAAAAAAAAAAAAAAAAvtAAAA",
"FssFFFFFqqFFFFFFFvtFFFF",
"FhsFFFFFiqFFFFFFFvtFFFF",
"FFFFFFFFFFFFFFFFFvtFFFF",
"FFFFFFFFFFFFFFFFFvtFFFF",
"FFFFFFFFFFFFFFFFFvtFFFF",
"FFFFFFFFFFFFFFFFFvtFFFF",
"FFFFFFFFFFFFFFFFFvtFFFF",
"FFFFFFFFFFFFFFFFFvtFFFF",
"FFFFFFFFFFFFFFFFFvtFFFF",
"FFFFFFFFFFFFFFFFFvtFFFF"
};
