/* XPM */
static char * nco_config_res_xpm[] = {
"29 27 5 1",
" 	s None		c None",
".	s iconColor1 	c black",
"X	s iconGray2 	c #bdbdbdbdbdbd",
"o	s iconColor2 	c white",
"O	s iconColor3 	c red",
"  . . . . . . . . . . . .    ",
"  . . . . . . . . . . . .    ",
"...........................  ",
".X.X.X.X.X.X.X.X.X.X.X.X.X...",
".X.X.X.X.X.X.X.X.X.X.X.X.X.o.",
".XXXXXXXXXX.XXXXXXXXXXXXXX.o.",
".XX.....XXX..XXXXXXXXXXXXX.o.",
".XX.ooo.XX.OO........XX..X.o.",
".XX.ooo.X.OO.X........XX.X.o.",
".XX.ooo..OO..X..X.....XX.X.o.",
".X......OO.XXXXXXXXXXXXXXX.o.",
".X.O.X.OO.XXXXXXXXXXXXXXXX.o.",
".X.OO.OO.XXXXXXXXXXXXXXXXX.o.",
".X.OOOO.XX...X..XX.....XXX.o.",
".XX.OO..XX......XX.......X.o.",
".XX..O..XX.X.X..XXXX.....X.o.",
".XX.....XXXXXXXXXXXXXXXXXX.o.",
".XXXXXXXXXXXXXXXXXXXXXXXXX.o.",
".XX.....XXXXXXXXXXXXXXXXXX.o.",
".XX.ooo.XXXXXXXXXXXXXXXXXX.o.",
".XX.ooo.XXXXXXXXXXXXXXXXXX.o.",
".XX.ooo.XXXXXXXXXXXXXXXXXX.o.",
".XX.....XX...............X.o.",
".XXXXXXXXXXXXXXXXXXXXXXXXX.o.",
"...........................o.",
" .ooooooooooooooooooooooooo..",
"  .......................... "};
