/* XPM */
static char * nco_event_serv_xpm[] = {
/* width height ncolors chars_per_pixel */
"23 32 13 1",
/* colors */
" 	s None		c None",
".	s iconColor1 	c black",
"X	s iconGray2 	c #bdbdbdbdbdbd",
"o	s iconColor18	c #008080", 
"O	s iconColor16	c #000080",
"+	s iconColor14   c #800000", 
"@	s iconColor3 	c red",
"#	s iconGray5	c #737373737373",
"$	s iconColor17	c #808000", 
"%	s iconColor6 	c yellow",
"&	s iconColor2 	c white",
"*	s iconColor15	c #008000",
"=	s iconColor4 	c green",
/* pixels */
"      ...........      ",
"     .XoX.X.X.X.X.     ",
".....Ooo.......o.O.....",
".XoXo.X..+++++..X.O.OX.",
".O.O.Oo.++@@@@#..O.O.O.",
" ...o.X.+@@@@#@.O.O... ",
"   ..Oo.+@@@#@#..O..   ",
"    ..X.+@@#@#+.O..    ",
"     .oo.@#@#+.O..     ",
"     .X.o.....O.O.     ",
"     .oo.o.O.O.O..     ",
"     .X.o.O.O.O.X.     ",
".....Ooo.......o.O.....",
".XoXo.X..$$$$$..X.O.OX.",
".O.O.Oo.$$%%%%&..O.O.O.",
" ...o.X.$%%%%&%.O.O... ",
"   ..Oo.$%%%&%&..O..   ",
"    ..X.$%%&%&$.O..    ",
"     .oo.%&%&$.O..     ",
"     .X.o.....O.O.     ",
"     .oo.o.O.O.O..     ",
"     .X.o.O.O.O.X.     ",
".....Ooo.......o.O.....",
".XoXo.X..*****..X.O.OX.",
".O.O.Oo.**====&..O.O.O.",
" ...o.X.*====&=.O.O... ",
"   ..Oo.*===&=&..O..   ",
"    ..X.*==&=&*.O..    ",
"     .oo.=&=&*.O..     ",
"     .X.o.....O.O.     ",
"     ..X.X.O.O.O..     ",
"      ...........      "};
