/* XPM */
static char *_xpm[]={
"22 34 11 1",
"  c white",
". c black",
"a c #999999996666",
"b c #333333333333",
"d c #ffff00000000",
"h c #0000ffff0000",
"m c #666666666666",
"n c #999999999999",
"p c #cccccccccccc",
"q c #000033339999",
"F c none",
"FFFFnnnnnnnnnnnnnnnFFF",
"FFFn              n.FF",
"FFFn pppppppppppppn.FF",
"FFFn pqqqqqppmmmmpn.FF",
"FFFn ppppppppmmmmpn.FF",
"FFFn pbbbbbppmmmmpn.FF",
"FFFn ppppppppmmmmpn.FF",
"FFFn pqqqqqppmmmmpn.FF",
"FFFn pppppppppppppn.FF",
"FFFn pbbbbbppddphpn.FF",
"FFFn pppppppppppppn.FF",
"FFFn pppppppppppppn.FF",
"FFFn pppppppppppppn.FF",
"FFFn ppapapapapappn.FF",
"FFFn papapapapapmpn.FF",
"FFFn ppapapapapappn.FF",
"FFFn papapapapapmpn.FF",
"FFFn ppapapapapappn.FF",
"FFFn papapapapapmpn.FF",
"FFFn ppapapapapappn.FF",
"FFFn papapapapapmpn.FF",
"FFFn ppapapapapappn.FF",
"FFFn papapapapapmpn.FF",
"FFFn ppapapapapappn.FF",
"FFFn papapapapapmpn.FF",
"FFFn ppmpmpmpmpmppn.FF",
"FFFn pppppppppppppn.FF",
"FFFn p...........pn.FF",
"FFFn pppppppppppppn.FF",
"FFFn p...........pn.FF",
"FFFn pppppppppppppn.FF",
"FFFn mmmmmmmmmmmmmm.FF",
"FFnnnnnnnmnmnmnmnm...F",
"F...........bbbbbbbbbF"
};
