/* XPM */
static char *_xpm[]={
"31 31 3 1",
". c black",
"m c #666666666666",
"F c none",
"FFFFFFFFFFFFFFFFFFFFFFFFFFFFFFF",
"FFFFFFFFFFFFFFFFFFFFFFFFFFFFFFF",
"FFFFFFFFFFFFFFFFFFFFFFFFFFFFFFF",
"FFFFFFFFFFFFFFFFFFFFFFFFFFFFFFF",
"FFFFFFFFFFFFFFFFFFFFFFFFFFFFFFF",
"FFFFFFFFFFFFFFFFFFFFFFFFFFFFFFF",
"FFmmmmmmmmFFFFFFFFFFFFFFFFm.FFF",
"FFm........FFFFFFFFFFFFFFm..FFF",
"FFF.........FFFFFFFFFFFFm..FFFF",
"FFFF.........FFFFFFFFFFm..FFFFF",
"FFFFF.........FFFFFFFFm..FFFFFF",
"FFFFFF.........FFFFFFm..FFFFFFF",
"FFFFFFF.........FFFFm..FFFFFFFF",
"FFFFFFFF.........FFm..FFFFFFFFF",
"FFFFFFFFF........Fm..FFFFFFFFFF",
"FFFFFFFFFF......Fm..FFFFFFFFFFF",
"FFFFFFFFFFF....Fm...FFFFFFFFFFF",
"FFFFFFFFFFFm..Fm.....FFFFFFFFFF",
"FFFFFFFFFFm..Fm.......FFFFFFFFF",
"FFFFFFFFFm..FF.........FFFFFFFF",
"FFFFFFFFm..FFFF.........FFFFFFF",
"FFFFFFFm..FFFFFF.........FFFFFF",
"FFFFFFm..FFFFFFFF.........FFFFF",
"FFFFFm..FFFFFFFFFF.........FFFF",
"FFFFm..FFFFFFFFFFFF.........FFF",
"FFFm..FFFFFFFFFFFFFF.........FF",
"FFm..FFFFFFFFFFFFFFFF.........F",
"FF..FFFFFFFFFFFFFFFFFF........F",
"FFFFFFFFFFFFFFFFFFFFFFFFFFFFFFF",
"FFFFFFFFFFFFFFFFFFFFFFFFFFFFFFF",
"FFFFFFFFFFFFFFFFFFFFFFFFFFFFFFF"
};
