/* XPM */
static char * nco_config_conv_xpm[] = {
"32 26 9 1",
" 	s None		c None",
".	s iconColor1 	c black",
"X	s iconColor2 	c white",
"o	s iconColor5 	c blue",
"O	s iconGray2 	c #bdbdbdbdbdbd",
"+	s iconGray6 	c #636363636363",
"@	s iconGray3 	c #adadadadadad",
"#	s iconColor3 	c red",
"$	s iconGray1 	c #dededededede",
"                       ...      ",
"                     ..XXX....  ",
"                   ..XXXXXXXXX..",
"                 ..XXXooooXXXXX.",
"             ....XXXXXXXoXXXXXX.",
"          ...XX.XXXXXXooXXXXX.. ",
"       ...XXX.XXXXXXXoXXXXXX.   ",
"    ...XXXX..XXXXXoooXXXXXX..   ",
"  ..XXXXX...OOOOXXXXooXXXX.++...",
"  .X....XXXX...OOOOOXXXX....XXX.",
"  .XXXXX....XXXX....OOOO..XXX...",
"  .X..XXXXXX....XXXX....XXX..OO.",
"  .X.X...XXXXXXX....XXXX...OOOO.",
"  .X.X.@@...XXXXXXXX....OOOOOOO.",
"  .X..XXX@@@....XXXXXX.OOO@@.OO.",
"  .X.XXXXXXX@@@@...XXX.OOO@..OO.",
"  ...XX####XXXXX@@...X.OOO...OO.",
"  .XXX#XXXX#XXXXX.++.X.OOOOOO.. ",
" .XXX##XXXX#XXXX.++$.X.OOOO..   ",
".XXX#XX##XX#XXXX.+$$.X.OO..     ",
".XX#XXXXX##XXXX......X...       ",
"..XXXXXXX#XXXX.     ...         ",
"  ..XXXX#XXXX.                  ",
"    ..XXXXXX.                   ",
"      ..XXX.                    ",
"        ...                     "};
