/* XPM */
static char *_xpm[]={
"31 31 20 1",
". c black",
"o c #cccccccc9999",
"a c #999999996666",
"b c #333333333333",
"d c #ffff00000000",
"f c #ffffffff0000",
"i c #00003333ffff",
"j c #000066660000",
"l c #cccc99996666",
"m c #666666666666",
"n c #999999999999",
"q c #000033339999",
"r c #cccc00000000",
"s c #000099990000",
"u c #00000000ffff",
"y c #ffffafafafaf",
"B c #cccc66663333",
"C c #cccc99990000",
"D c #000066663333",
"F c none",
"FFFFFFFFFFFFFFFFFFFFFFFFFFFFFFF",
"FFFFFFFFFFFFFFFFFFFFFFFFFFFFFFF",
"FFFFFFFFFFFFFFm....mFFFFFFFFFFF",
"FFFFFFFFFFFFF........FFFFFFFFFF",
"FFFFFFFFFFFFm........mFFFFFFFFF",
"FFFFFFFFFFFF..mmm.Bmm.FFFFFFFFF",
"FFFFm....mFFmCffffBBbbFFFFFFFFF",
"FFF........FmCffffmBbbFFFFFFFFF",
"FFm........mooomffmB.......mFFF",
"FF...mmmB...ooffffBB.........FF",
"FFmmfffffBbbaafffffB.........mF",
"FFbfofffoBbbaaffffBB..mmmmB...F",
"FFmfomffmBaaooffffBBmoffffoBbbF",
"FFbffffffBaaoonfffBanoffffoBBbF",
"FFmfffoofBbbaafnllbbnfomffmBbbF",
"FFFnfffflobbaaonllbbnfffffflBbF",
"FFFnfffool.ajjfonmbbnfffflfBBbF",
"FFFonfoolm.ajjsonnbbnffflffBBbF",
"FFFFofllbmjjjjssssjjjofffflBBaF",
"FFFFbfflbbjjjjssssjjjoffffBlaFF",
"FFiiffffiiqqjjsssssjjjmooobbFFF",
"FiiiifffiiiqjjsssssjjjoooobbFFF",
"uuuuiiiiiiiiqqjsssjjyyffffaarFF",
"uuuiiiiiiiiiqqjjssjyddffffaddrF",
"uuuiiiiiiiiiuu..jsydddddddddrrd",
"uuuiiiiiiiiiuu..jydddddddddddrd",
"uuuiiiiiiiiiqqqqDyddddddddddddr",
"uuuiiiiiiiiiqqqqyyddddddddddddr",
"uuuuiiiiiiiiqq..yyddddddddddddr",
"Fuuuiiiiiiiiqq..yyddddddddddddr",
"FFuuiiqqqqqqqFFFFFddddddddrrrrF"
};
