/* XPM */
static char *_xpm[]={
"31 31 11 1",
"  c white",
". c black",
"O c #000066669999",
"b c #333333333333",
"i c #00003333ffff",
"m c #666666666666",
"n c #999999999999",
"p c #cccccccccccc",
"q c #000033339999",
"u c #00000000ffff",
"F c none",
"FFFFFFFFFFFFFFFFFFFFFFFFFFFFFF.",
"FFFFFFmmmmmmFFFFFFFFFFFFFFFFFm.",
"FFFFmm      mmFFFFFFFFFFFFFFm .",
"FFmm  p p p   mmFFFFFFFFFFFm p.",
"Fm   p p p p p  mFFFFFFFFFm  n.",
"m p p p p p p p  mmFFFFFmm  pp.",
"m  p p p p p p p   mmmmm   p n.",
"m p p p p p p p p p     p p pp.",
"m  p p p p p p p p p p p p p n.",
"m p p p p p p p p p p p p p pp.",
"m  p p p p p p p p p p p p p n.",
"m p p p p p p p p p p p p p pp.",
"m  pppnpnpnp p p p p p p p pnb.",
"m ppnbbbbbbbnpp p p p p p pnbO.",
"m nbbOiOiOiO.bnp p p p p pnbiq.",
"mbbOiuuuuuuuiObbnpp p ppnbbOuq.",
"mOiuuuuuuuuuuuiObbnpnpnbbOiuuq.",
"miuuuuuuuuuuuuuiiObbbbbOiuuuuq.",
"mOuuuuuuuuuuuuuuuuiOiOiuuuuuuq.",
"miuuuuuuuuuuuuuuuuuuuuuuuuuuuq.",
"mOuuuuuuuuuuuuuuuuuuuuuuuuuuuq.",
"miuuuuuuuuuuuuuuuuuuuuuuuuuuuq.",
"mOuuuuuuuuuuuuuuuuuuuuuuuuuuuq.",
"miuuuuuuuuuuuuuuuuuuuuuuuuuuuq.",
"mOuuuuuuuuuuuuuuuuuuuuuuuuuuq.F",
"miuuuqqqqqqquuuuuuuuuuuuuuuq.FF",
"mOuqq.......qquuuuuuuuuuuuq.FFF",
"miq..FFFFFFF..qqquuuuuuuqq.FFFF",
"m..FFFFFFFFFFF...qqqqqqq..FFFFF",
".FFFFFFFFFFFFFFFF.......FFFFFFF",
"FFFFFFFFFFFFFFFFFFFFFFFFFFFFFFF"
};
