/* XPM */
static char *_xpm[]={
"27 29 13 1",
"  c white",
". c black",
"b c #333333333333",
"e c #ffff66663333",
"g c #0000ffffffff",
"h c #0000ffff0000",
"i c #00003333ffff",
"m c #666666666666",
"n c #999999999999",
"p c #cccccccccccc",
"v c #ffff0000ffff",
"A c #cccc33333333",
"F c none",
"FFFFFFFFFFFFFFFFFi.FFFFFFFF",
"FFFFFFFFFFFFFFFFiin.FFFFFFF",
"FFFFFFFFFFFFFFiiinp.FFFFFFF",
"FFFFFFFFFFFFFiinnppp.FFFFFF",
"FFFFFFFFFFFFFnnppppp.FFFFFF",
"FFFFFFFFFFFnnpppnnppp.FFFFF",
"FFFFFFFFFnnpppnnppppp.FFFFF",
".......nnppppnppppnppp.FFFF",
".....nnnnnnnnnnnnnnnnn.FFFF",
"...                    .FFF",
".nn AAAA vvvv hhhh gggg.FFF",
".mnnnnnnnnnnnnnnnnnnnnnnbFF",
".mppppppppppppppppppppppbFF",
".mppppppp         ppppppbFF",
".mppppppp eeeeeee npppppbFF",
".mppppppp eeeeeee npppppbFF",
".mppppppp ....... npppppb.F",
".mppppppp mmmmmmm npppppb..",
".mppppppp         npppppb..",
".mppppppppnnnnnnnnnpppppb..",
".mppppppppppppppppppppppb..",
".mppppppppppppppppppppppb..",
".mppppppppppppppppppppppb..",
"Fmppppppppppppppppppppppb..",
"Fmppppppppppppppppppppppb..",
"Fmppppppppppppppppppppppb..",
"Fmbbbbbbbbbbbbbbbbbbbbbbb..",
"FFFFFF.....................",
"FFFFFFF...................."
};
