/* XPM */
static char *_xpm[]={
"31 31 9 1",
"  c white",
". c black",
"a c #333333333333",
"b c #ffff00000000",
"e c #999999999999",
"f c #cccccccccccc",
"g c #cccc00000000",
"i c #666633339999",
"j c none",
"jjjjjjjjjjjjjjjjjjjjjjjjjjjjjjj",
"jjjjjjjjjjjjjjjj...jjjjjjjjjjjj",
"jjjjjjjjjjjjjjjafff.jjjjjjjjjjj",
"jjjjjjjjjjjjjjjj.ffe...jjjjjjjj",
"jjjjjjjjjjjjjjjjj...   .jjjjjjj",
"jjjjjjjjjjjjjjjjjjj.ffff.jjjjjj",
"jjjjjjjjjjjjjjjjjjj.ffff....jjj",
"jjjjjjjjjjjjjjjjjj...eee.   .jj",
"jjjjjjjjjjjjjjjjj.bbg...ffff .j",
"jjjjjjjjjjjjjjjjj.bggi..fffffa.",
"jjjjjjjjjjjjjjjj.bgggi..efffae.",
"jjjjjjjjjjjjjjj.bgggi.jj.eeaee.",
"jjjjjjjjjjjjjj.ggggi.jjjj.eaeaj",
"jjjjjjjjjjjjjj.bggi.jjjjjj.aajj",
"jjjjjjjjjjjjj.bgggijjjjjjjjjjjj",
"jjjjjjjjjjjj.bgggi.jjjjjjjjjjjj",
"jjjjjjjjjjj.ggggi.jjjjjjjjjjjjj",
"jjjjjjjjjj.bgggi.jjjjjjjjjjjjjj",
"jjjjjjjjj.bgggiajjjjjjjjjjjjjjj",
"jjjjjjjjj.bgggiajjjjjjjjjjjjjjj",
"jjjjjjjj.bgggi.jjjjjjjjjjjjjjjj",
"jjjjjjj.bgggi.jjjjjjjjjjjjjjjjj",
"jjjjjj.bggggi.jjjjjjjjjjjjjjjjj",
"jjjjj.bggggi.jjjjjjjjjjjjjjjjjj",
"jjjjj.bgggi.jjjjjjjjjjjjjjjjjjj",
"jjjj.bggggi.jjjjjjjjjjjjjjjjjjj",
"jjj.bbgggi.jjjjjjjjjjjjjjjjjjjj",
"jjj.igggi.jjjjjjjjjjjjjjjjjjjjj",
"jjjj.igii.jjjjjjjjjjjjjjjjjjjjj",
"jjjjj.ii.jjjjjjjjjjjjjjjjjjjjjj",
"jjjjjj..jjjjjjjjjjjjjjjjjjjjjjj"
};
