/* XPM */
static char * nco_gwconv_xpm[] = {
"24 24 6 1 0 0",
" 	s iconColor1 	c black",
".	s None		c None",
"X	s iconColor2 	c white",
"o	s iconGray2 	c #c0c0c0",
"O	s iconColor5 	c blue",
"+	s iconGray5 	c #808080",
"         ..         ... ",
". XXXXXX . o XXXXXXX .  ",
".. ooooo  oOoO+oooooX X ",
".. ooooo oOoOo +oooooXo ",
". oooooo OoOoOo +oooooo ",
" Xoooooo  OoOo ..+ooooo ",
" Xooo+ o . Oo ... Xoooo ",
" Xoo+ .  ..  ... Xooooo ",
" Xo+ ... ......         ",
" X+  ............. oO ..",
" X oO ........... oOoO .",
"  oOoO ......... oOoOoO ",
" oOoOoO ......... oOoO  ",
". oOoO ........... oO   ",
".. oO .............  Xo ",
"         ...... .... oo ",
" XXXXXX ...  ..  .. ooo ",
" XoooX ... oO . X  oooo ",
" XooooX . oOoO  XXooooo ",
" XoooooX oOoOoO Xooooo+ ",
" XooooooX oOoOo Xoooo+ .",
" X +oooooX oOo  XoooX ..",
"  . +oooooX o . XooooX .",
" ....+       ..         "};
