/* XPM */
static char * access_xpm[] = {
"32 32 6 1",
" 	s none		c none",
".	s iconColor1 	c black",
"X	s iconColor2 	c white",
"o	s iconGray3	c #adadadadadad",
"O	s iconGray5	c #737373737373",
"+	s iconGray2	c #bdbdbdbdbdbd",
"                                ",
"                                ",
"                                ",
"              .....             ",
"            ..XXXXX..           ",
"           .XXooooooO.          ",
"          .XXoo...XooO.         ",
"          .XoO.   .Xoo.         ",
"          .Xo.     .Xo.         ",
"          .Xo.     .Xo.         ",
"          .Xo.     .Xo.         ",
"         ..Xo.O...O.Xo..        ",
"        .+OXo.oooooOXo.o.       ",
"        .XO..OoooooO..Oo.       ",
"       .Xoooooooooooooooo.      ",
"       .XXXXXXXXXXXXXXXXo.      ",
"       .XoooooooooooooooO.      ",
"       .XoooooooooooooooO.      ",
"       .Xoooooo..oooooooO.      ",
"       .Xooooo.OO.XoooooO.      ",
"       .Xooooo.OO.XoooooO.      ",
"       .Xoooooo.OXooooooO.      ",
"       .Xoooooo.OXooooooO.      ",
"       .Xoooooo.OXooooooO.      ",
"       .XooooooXXXooooooO.      ",
"       .XoooooooooooooooO.      ",
"       .OOOOOOOOOOOOOOOOO.      ",
"        .................       ",
"                                ",
"                                ",
"                                ",
"                                "};
