/* XPM */
static char *_xpm[]={
"16 16 11 1",
"  c none",
". c #ffffffffc000",
"o c #ffffffff0000",
"O c #80007def0000",
"a c #000000000000",
"b c #800080008000",
"c c #c000c000c000",
"d c #00000000ffff",
"e c #80008000ffff",
"f c #000000008000",
"g c #ffffffffffff",
"      ......o   ",
"ddddd.oooooOfddd",
"de.ee.ooooOdeeea",
"dfff.ooooOaffffa",
"bggg.ooo.....gca",
"bgg.ooooooooOcca",
"bggoOOOOoooOcgca",
"bgggccc.ooOcggca",
"bggggg.ooOcgggca",
"bgggg.ooOcggggca",
"bgggg.oOcgggggca",
"bggg.oOcggggggca",
"bgg.oOcgggggggca",
"bc.oOcccccccccca",
"aa.Oaaaaaaaaaaaa",
" .              "
};
