/* XPM */
static char *_xpm[]={
"16 16 2 1",
"  c black",
". c none",
"................",
"................",
"........ ..... .",
".......   .... .",
"........   ... .",
".........   .. .",
"..........   . .",
".              .",
".              .",
"..........   . .",
".........   .. .",
"........   ... .",
".......   .... .",
"........ ..... .",
"................",
"................"
};
