/* XPM */
static char *_xpm[]={
"16 16 2 1",
"o c #333333333333",
"c c none",
"cccccccccccccccc",
"cccccccooccccccc",
"cccccccooccccccc",
"cccccccooccccccc",
"cccccccooccccccc",
"cccccccooccccccc",
"cccccccooccccccc",
"cccocccoocccoccc",
"ccoooccooccooocc",
"cccooocoocoooccc",
"ccccoooooooocccc",
"cccccooooooccccc",
"ccccccoooocccccc",
"cccccccooccccccc",
"ccoooooooooooocc",
"cccccccccccccccc"
};
