/* XPM */
static char * clipboard_xpm[] = {
/* width height ncolors chars_per_pixel */
"32 32 4 1",
/* colors */
" 	s none		c none",
".	s iconColor1	c black",
"X	s iconColor2	c white",
"o	s iconColor6	c yellow",
/* pixels */
"                                ",
"              .....             ",
"              .XXX.             ",
"       .........X.........      ",
"      .ooooooo.XXX.ooooooo.     ",
"      .o......XXXXX......o.     ",
"      .o.XX.X.......XXXX.o.     ",
"      .o.XX.XXXXXXXXXXXX.o.     ",
"      .o.XX.XXXXXXXXXXXX.o.     ",
"      .o.XX.XXXXXXXXXXXX.o.     ",
"      .o.................o.     ",
"      .o.XX.XXXXXXXXXXXX.o.     ",
"      .o.XX.XXXXXXXXXXXX.o.     ",
"      .o.................o.     ",
"      .o.XX.XXXXXXXXXXXX.o.     ",
"      .o.XX.XXXXXXXXXXXX.o.     ",
"      .o.................o.     ",
"      .o.XX.XXXXXXXXXXXX.o.     ",
"      .o.XX.XXXXXXXXXXXX.o.     ",
"      .o.................o.     ",
"      .o.XX.XXXXXXXXXXXX.o.     ",
"      .o.XX.XXXXXXXXXXXX.o.     ",
"      .o.................o.     ",
"      .o.XX.XXXXXXXXXXXX.o.     ",
"      .o.XX.XXXXXXXXXXXX.o.     ",
"      .o.................o.     ",
"      .o.XX.XXXXXXXXXXXX.o.     ",
"      .o.XX.XXXXXXXXXXXX.o.     ",
"      .o.................o.     ",
"      .ooooooooooooooooooo.     ",
"       ...................      ",
"                                "};
