/* XPM */
static char *_xpm[]={
"26 20 5 1",
". c black",
"f c #ffffffff0000",
"t c #666633339999",
"z c #ffffc8c80000",
"F c none",
"FFFFFFFFFFFFFFFFFFFFFFFFFF",
"FFFFFFFFFFFFFFFFFFFFFFFFFF",
"FFFFFFFFFFFFFFFFFFFFFFFFFF",
"FFFFFFFFFFFFFFFFFFFFFFFFFF",
"FFFFFFFFFFFFFFFFFFFFFFFFFF",
"FFFFFFFFFFFFFFFFFFFFFFFFFF",
"FFFFFFFFFFFFFfFFFFFFFFFFFF",
"FFFFFFFFFFFFFfzFFFFFFF.FFF",
"FFfFfFffFfffffzfFFFFFF..FF",
"FFzFzFzzFzzzzzzzzFFFFF...F",
"FFzFzFzzFzzzzzzzztFFFF....",
"FFzFzFzzFzzzzzzztFFFFF...F",
"FFtFtFttFttttfztFFFFFF..FF",
"FFFFFFFFFFFFFftFFFFFFF.FFF",
"FFFFFFFFFFFFFtFFFFFFFFFFFF",
"FFFFFFFFFFFFFFFFFFFFFFFFFF",
"FFFFFFFFFFFFFFFFFFFFFFFFFF",
"FFFFFFFFFFFFFFFFFFFFFFFFFF",
"FFFFFFFFFFFFFFFFFFFFFFFFFF",
"FFFFFFFFFFFFFFFFFFFFFFFFFF"
};
