/* XPM */
static char *_xpm[]={
"16 16 7 1",
"  c white",
". c black",
"b c #333333333333",
"m c #666666666666",
"n c #999999999999",
"p c #cccccccccccc",
"F c none",
"mmmmmmmmmmFFFFFF",
"m        .FFFFFF",
"m ppppppm.FFFFFF",
"m pppnnnb.FFFFFF",
"m pb.mmmmmmmmm.F",
"m ppnm        .F",
"m pb.m ppppppm.F",
"m ppnm ppppppm.F",
"m pb.m pbbbbpm.F",
"m ppnm ppppppm.F",
"m mmbm pbbbbpm.F",
"m....m ppppFpm.F",
"FFFFFm pbbbbpm.F",
"FFFFFm ppppppm.F",
"FFFFFm mmmmmmm.F",
"FFFFFm.........F"
};
