/* XPM */
static char *_xpm[]={
"16 16 12 1",
". c black",
"a c #999999996666",
"b c #333333333333",
"d c #ffff00000000",
"f c #ffffffff0000",
"r c #cccc00000000",
"x c #808080808080",
"y c #ffffafafafaf",
"z c #ffffc8c80000",
"B c #cccc66663333",
"C c #cccc99990000",
"F c none",
"FBBFFFFFFFFFFFFF",
"BzydrFFFFFFFFBBF",
"FBzydrFbbFFBdrFF",
"FFBBydrbbbBdrFFF",
"FF.bBBdraBdr..FF",
"b.b..bBdBdr.....",
"FF.b..bddra...FF",
"FFF.x.BdddrabFFF",
"FFbbbBdr.Bdr.FFF",
"FFbbBdrbx.Bdr.FF",
"FFFBzrb....BdrFF",
"FFBzyr....faBdFF",
"FBzyrFF..FCfFBrF",
"FByyrFFFFFfCFFBF",
"FByrFFFFFFCFFFFd",
"FFrFFFFFFFFFFFFF"
};
