/* XPM */
static char *_xpm[]={
"16 16 14 1",
"  c white",
". c black",
"o c #cccccccc9999",
"a c #999999996666",
"b c #333333333333",
"d c #ffff00000000",
"n c #999999999999",
"p c #cccccccccccc",
"r c #cccc00000000",
"w c #404040404040",
"y c #ffffafafafaf",
"z c #ffffc8c80000",
"B c #cccc66663333",
"F c none",
"FBBwnnnnnnnnnnFF",
"Bzydrn       BBF",
"FBzydrnppppBdrFF",
"FwBBydr.b.Bdr.FF",
"FnnnBBdrnBdrw.FF",
"Fn p..BdBdrnb.FF",
"Fn pppnddroab.FF",
"Fn pb.Bdddroa.FF",
"Fn pnBdrnBdroaFF",
"Fn nBdr..oBdroaF",
"FnnBzrnpnooBdrFF",
"FwBzyr...oaaBdaF",
"FBzyrnppnnnwoBra",
"FByyrwnnnnnwooBF",
"FByr.........aFd",
"FFrFFFFFFFFFFFFF"
};
