/* XPM */
static char *_xpm[]={
"16 16 12 1",
"O c #000066669999",
"b c #333333333333",
"d c #ffff00000000",
"m c #666666666666",
"q c #000033339999",
"r c #cccc00000000",
"u c #00000000ffff",
"y c #ffffafafafaf",
"z c #ffffc8c80000",
"B c #cccc66663333",
"E c #999933336666",
"F c none",
"FBBFFFFFFFFFFFFF",
"BzydrmyyyyyrFBBF",
"FBzydrEdddEBdrFF",
"FFBBydrEdEBdrFFF",
"FFFFBBdrEBdrFFFF",
"FFFFEEBdBdrEFFFF",
"FFFFOOOddrbOFFFF",
"FFFFOuBdddrbFFFF",
"FFFFOBdrqBdrFFFF",
"FFFFBdrqqqBdrFFF",
"FFFBzrqquuqBdrFF",
"FFBzyrquuuubBdFF",
"FBzyrqquuuuqFBrF",
"FByyrquuuuubFFBF",
"FByrbbbqbqbqFFFd",
"FFrFFFFFFFFFFFFF"
};
