/* XPM */
static char *_xpm[]={
"16 16 5 1",
"  c white",
". c black",
"o c none",
"a c LightGray",
"b c #800000000000",
"oooooooooooooooo",
"bbb........ooobb",
"oobbb     ..bbbo",
"oo.bbb    bbbboo",
"oo. bbbaabbbb.oo",
"oo.  bbbbbbba.oo",
"oo. aabbbbba .oo",
"oo.    bbbb  .oo",
"oo. aabbbbbb .oo",
"oo.  bbb bbb .oo",
"oo. abbaaabbb.oo",
"oo. bbb    bbboo",
"oo. bbaaaaaabboo",
"oo.bbb       bbo",
"oo.bb........bbo",
"oooboooooooooobo"
};
