/* XPM */
static char *_xpm[]={
"16 16 12 1",
". c black",
"o c #cccccccc9999",
"b c #333333333333",
"d c #ffff00000000",
"h c #0000ffff0000",
"j c #000066660000",
"r c #cccc00000000",
"s c #000099990000",
"y c #ffffafafafaf",
"z c #ffffc8c80000",
"B c #cccc66663333",
"F c none",
"sBBssohssohohoho",
"BzydrsjFFjsssBBb",
"sBzydrFFFFjBdrjj",
"ojBBydrFosBdrjsb",
"hssjBBdrjBdrjssj",
"osjssjBdBdrjsbsb",
"hjFjjojddrjbjFjj",
"sFFFhsBdddrFFFF.",
"sFFosBdrjBdrFFF.",
"ojFsBdrjbbBdrFoj",
"hsjBzrjjbjjBdrsb",
"osBzyrbFjssjBdjj",
"hBzyrjjFFjssjBrb",
"oByyrbFFFFossjBb",
"hByrjjjFFossssjd",
"obrbbjb..jbjbjb."
};
