/* XPM */
static char *_xpm[]={
"16 16 10 1",
"o c #cccccccc9999",
"a c #999999996666",
"d c #ffff00000000",
"f c #ffffffff0000",
"r c #cccc00000000",
"y c #ffffafafafaf",
"z c #ffffc8c80000",
"B c #cccc66663333",
"C c #cccc99990000",
"F c none",
"FBBFFFoooooooFFF",
"BzydrafffffCFBBF",
"FBzydrafffCBdrFF",
"FFBBydrafCBdrFFF",
"FFFFBBdrCBdraoFF",
"FFFoaaBdBdraCFFF",
"FFFoCCaddraCFFFF",
"FFFFFFBdddrFFFFF",
"FFFFFBdraBdrFFFF",
"FFFFBdraCFBdrFFF",
"FFFBzraCFFFBdrFF",
"FFBzyraFFFFFBdFF",
"FBzyraFFFFFFFBrF",
"FByyrFFFFFFFFFBF",
"FByrFFFFFFFFFFFd",
"FFrFFFFFFFFFFFFF"
};
