/* XPM */
static char *_xpm[]={
"16 16 13 1",
". c black",
"o c #cccccccc9999",
"b c #333333333333",
"d c #ffff00000000",
"m c #666666666666",
"q c #000033339999",
"r c #cccc00000000",
"u c #00000000ffff",
"y c #ffffafafafaf",
"z c #ffffc8c80000",
"A c #cccc33333333",
"B c #cccc66663333",
"F c none",
"FBBFFFFFFFFFFFFF",
"BzydAF....FFFBBF",
"FBzydA.....BdAFF",
"FFBBydAomrBdAFFF",
"FFFFBBdAoBdAFFFF",
"FFFFFmBdBdAFFFFF",
"FFFFFmoddrbFFFFF",
"FFFFFFBdddAFFFFF",
"FFFFFBdAbBdAFFFF",
"FFFFBdAqqqBdAFFF",
"FFFBzAqquqqBdAFF",
"FFBzyAquuuuqBdFF",
"FBzyAqquuquqbBAF",
"FByyAquuquuqqbBF",
"FByAqqquqqqqqbFd",
"FFAFFFFFFFFFFFFF"
};
