/* XPM */
static char *_xpm[]={
"16 16 13 1",
"  c white",
". c black",
"o c #cccccccc9999",
"b c #333333333333",
"d c #ffff00000000",
"e c #ffff66663333",
"m c #666666666666",
"p c #cccccccccccc",
"y c #ffffafafafaf",
"z c #ffffc8c80000",
"A c #cccc33333333",
"B c #cccc66663333",
"F c none",
"FBBFFFFFFFFFFFFF",
"BzydFFmmmFFFFBBF",
"FBzydFm o.bBdAFF",
"FFBBydFmbpBdAFFF",
"FFFFBBdFbBdAFFFF",
"FFFFFFBdddAbmmmF",
"FFFFFFeddAFm obF",
"FFFFFeBdddAmobFF",
"FFFFeBdAFBdAbFFF",
"FFFeBdAFFFBdAFFF",
"FFeBzAFFFFFBdAFF",
"FeBzyAFFFFFFBdFF",
"eBzyAFFFFFFFFBAF",
"FByyAFFFFFFFFFBF",
"FByAFFFFFFFFFFFd",
"FFAFFFFFFFFFFFFF"
};
