/* XPM */
static char *_xpm[]={
"16 16 11 1",
"o c #cccccccc9999",
"a c #999999996666",
"b c #333333333333",
"d c #ffff00000000",
"f c #ffffffff0000",
"t c #666633339999",
"y c #ffffafafafaf",
"z c #ffffc8c80000",
"A c #cccc33333333",
"B c #cccc66663333",
"F c none",
"FBBFFFFFFFFFFFFF",
"BzydFFFFFFFFFBBF",
"FBzydFFFFFFBdAFF",
"FFBBydFFFFBdAFFF",
"FFFFBBdFFBdAFFFF",
"FFFFFFBdddAozFFF",
"fFfFfoFddAofzfFF",
"zFzFzaBdddAazzzF",
"zFzFaBdAaBdAazzt",
"zFzFBdAazaBdAabF",
"tFbBzAFtttbBdAFF",
"FFBzyAFFFFFoBdFF",
"FBzyAFFFFFFbFBAF",
"FByyAFFFFFFFFFBF",
"FByAFFFFFFFFFFFd",
"FFAFFFFFFFFFFFFF"
};
