/* XPM */
static char *_xpm[]={
"16 16 14 1",
"  c white",
". c black",
"b c #333333333333",
"d c #ffff00000000",
"i c #00003333ffff",
"m c #666666666666",
"n c #999999999999",
"p c #cccccccccccc",
"q c #000033339999",
"y c #ffffafafafaf",
"z c #ffffc8c80000",
"A c #cccc33333333",
"B c #cccc66663333",
"F c none",
"FBBFFFFFFFFFFFFF",
"BzydAqiiiiiiqBBq",
"qBzydAqnnnnBdAn.",
"ibBBydAbqbBdAbq.",
"n pnBBdApBdAp n.",
"n ppnnBdBdAnppn.",
"n p...bddAbbbpn.",
"n pb pBdddApnpn.",
"n pbmBdAmBdAmpn.",
"n pnBdAnpnBdAnn.",
"n nBzAbbbbbBdAn.",
"nnBzyAp    pBdm.",
"mBzyAmnnnnnnmBA.",
"mByyAnpppppppnB.",
"mByAmnnnnnnnnnmd",
"n.A............."
};
