/* XPM */
static char *_xpm[]={
"16 16 11 1",
"  c white",
". c black",
"o c #cccccccc9999",
"a c #999999996666",
"f c #ffffffff0000",
"k c #cccc00009999",
"p c #cccccccccccc",
"z c #ffffc8c80000",
"A c #cccc33333333",
"C c #cccc99990000",
"F c none",
"FFFFFFooooooAkk.",
"FFFFFofffffaAkk.",
"FFFFFoffffaCAA..",
"FFFFoffffaCf z.F",
"FFFFofffooCf C.F",
"FFFoffffaCf z.FF",
"FFFoCCCCaCf C.FF",
"FFFFFFFoCf z.FFF",
"FFFFFFoaCf C.FFF",
"FFFFFoaCf z.FFFF",
"FFFFFoaCfzC.FFFF",
"FFFFoap CC.FFFFF",
"FFFofap  ..FFFFF",
"FFofCFp  .FFFFFF",
"FFoCFFp..FFFFFFF",
"FFoFFF..FFFFFFFF"
};
