/* XPM */
static char *_xpm[]={
"16 16 7 1",
"  c white",
". c black",
"o c none",
"O c #ffffffff0000",
"a c LightGray",
"b c #800000000000",
"c c #800080000000",
"oooooooooo....oo",
"oo.........bbb.o",
"oo.      .b....o",
"oo.      .bbbb.o",
"oo. aaaa....b.oo",
"oo.     .OOc..oo",
"oo. aaa.OOOc..oo",
"oo.    .OOc. .oo",
"oo. aa.OOOc. .oo",
"oo.   .OOc.  .oo",
"oo. a.OOOc.a .oo",
"oo.  .OOc.   .oo",
"oo. a.....aa .oo",
"oo.  .OO.    .oo",
"oo....O.......oo",
"ooooo..ooooooooo"
};
