/* XPM */
static char *_xpm[]={
"16 16 14 1",
"  c white",
". c black",
"a c #999999996666",
"b c #333333333333",
"f c #ffffffff0000",
"n c #999999999999",
"p c #cccccccccccc",
"s c #000099990000",
"v c #ffff0000ffff",
"x c #808080808080",
"y c #ffffafafafaf",
"z c #ffffc8c80000",
"C c #cccc99990000",
"F c none",
"FFFFFFFFFFFFyvv.",
"FFFFFFFFFFFCyvv.",
"FFFFFFFbbFCCss..",
"FFFF.b.bb.Cf z.F",
"FF.bbb.fa.Cf C.F",
"b.b..b.b.Cf z...",
"FF.b..b..Cf C.FF",
"FFF.x...Cf zbFFF",
"FFbbbnx.Cf C.FFF",
"FFbbbb.Cf z...FF",
"FFFbb..CfzC..FFF",
"FFFFF.p CC.CFFFF",
"FFFFFFp  ..aFFFF",
"FFFFFFp  .aCFFFF",
"FFFFFFp..FCFFFFF",
"FFFFFFF.FFFFFFFF"
};
