/* XPM */
static char *_xpm[]={
"16 16 15 1",
"  c white",
". c black",
"o c #cccccccc9999",
"O c #999999996666",
"a c #333333333333",
"b c #ffffffff0000",
"c c #0000ffff0000",
"d c #000066660000",
"e c #cccccccccccc",
"f c #000099990000",
"g c #ffff0000ffff",
"h c #ffffafafafaf",
"i c #ffffc8c80000",
"j c #cccc99990000",
"k c none",
"cocococffocohgg.",
"offfffdkkdfjhgg.",
"cffffdkkkkjjff..",
"offfffdkfcjb i.a",
"cfffffdcffjb j.d",
"ofdffdoffjb i.da",
"cdkddcfffjb j.dd",
"fkkkofffjb i.kk.",
"fkkoffffjb j.kk.",
"odkcfffjb i.dkoa",
"cfdffffjbij.dofd",
"offfffe jj.ddffa",
"cfffffe  ..dfffd",
"offffde  .Offffa",
"cfffffe..Offfffd",
"odadada..adadada"
};
