/* XPM */
static char *_xpm[]={
"16 16 22 1",
"  c white",
". c black",
"o c #cccccccc9999",
"a c #999999996666",
"b c #333333333333",
"d c #ffff00000000",
"f c #ffffffff0000",
"i c #00003333ffff",
"j c #000066660000",
"l c #cccc99996666",
"m c #666666666666",
"p c #cccccccccccc",
"q c #000033339999",
"r c #cccc00000000",
"s c #000099990000",
"t c #666633339999",
"u c #00000000ffff",
"v c #ffff0000ffff",
"y c #ffffafafafaf",
"z c #ffffc8c80000",
"C c #cccc99990000",
"F c none",
"FFFFFFFFFFFFyvv.",
"FFFFFFF...FCyvv.",
"FFFFFF....CCss..",
"FF...alfftCf z.F",
"F.....ooftCf C.F",
"FaffrbafmCf z..F",
"FoffraoCoCf C..F",
"FofflbaoCf z.mbF",
"FofllajmCf C.obF",
"FFoobjbCf z.olaF",
"FiffiqbCfzC.abFF",
"uuuuiqp CC.ofadF",
"uuuuuqp  ..rddrd",
"uuuiiqp  .rddddr",
"uuiiiqp..rdddddr",
"Fuiqqq..FrdddrrF"
};
