/* XPM */
static char *_xpm[]={
"16 16 14 1",
"  c white",
". c black",
"o c #cccccccc9999",
"a c #999999996666",
"b c #333333333333",
"f c #ffffffff0000",
"p c #cccccccccccc",
"s c #000099990000",
"t c #666633339999",
"v c #ffff0000ffff",
"y c #ffffafafafaf",
"z c #ffffc8c80000",
"C c #cccc99990000",
"F c none",
"FFFFFFFFFFFFyvv.",
"FFFFFFFFFFFCyvv.",
"FFFFFFFFFFCCss..",
"FFaFFFFaaFCf z.F",
"FCftFFCfobCf C.F",
"CfftFCfbaCf z.ot",
"FCftFFttaCf C.ot",
"FCftFFFaCf z.obt",
"FCftFFCoCf C.aft",
"FCftFCoCf z.FCft",
"FCftFCoCfzC.bCft",
"CffftCp CC.afftt",
"Fttttbp  ..btttF",
"FFFFFFp  .FFFFFF",
"FFFFFFp..FFFFFFF",
"FFFFFF..FFFFFFFF"
};
