/* XPM */
static char *_xpm[]={
"16 16 14 1",
"  c white",
". c black",
"o c #cccccccc9999",
"a c #999999996666",
"b c #333333333333",
"f c #ffffffff0000",
"p c #cccccccccccc",
"s c #000099990000",
"t c #666633339999",
"v c #ffff0000ffff",
"y c #ffffafafafaf",
"z c #ffffc8c80000",
"C c #cccc99990000",
"F c none",
"FFFFFFFFFFFFyvv.",
"FFFFFFFFFFFCyvv.",
"FFFFFFFFFFCCss..",
"FFFFFFFFFFCf z.F",
"FFFFFFFFFFCf C.F",
"FFFFFFFFFCf z.FF",
"fFfFffFfoCf C.FF",
"zFzFzzFaCf z.azF",
"zFzFzzFaCf C.azt",
"zFzFzzFCf z.aztF",
"tFtFttFCfzC.atFF",
"FFFFFFp CC.otFFF",
"FFFFFFp  ..bFFFF",
"FFFFFFp  .FFFFFF",
"FFFFFFp..FFFFFFF",
"FFFFFF..FFFFFFFF"
};
