/* XPM */
static char *_xpm[]={
"16 16 14 1",
"  c white",
". c black",
"b c #333333333333",
"f c #ffffffff0000",
"i c #00003333ffff",
"n c #999999999999",
"p c #cccccccccccc",
"q c #000033339999",
"s c #000099990000",
"v c #ffff0000ffff",
"y c #ffffafafafaf",
"z c #ffffc8c80000",
"C c #cccc99990000",
"F c none",
"FFFFFFFFFFFFyvv.",
"iiiiiiiiiiiqyvv.",
"in nnnnnnnbCss..",
"iqqqqqqqqbCf z..",
"n        pCf C..",
"n ppppppnCf z.n.",
"n p...bbbCf C.n.",
"n pb   pCf z.nn.",
"n pbnnnbCf C.nn.",
"n ppppnCf z.npn.",
"n pbbbbCfzC.bpn.",
"n pb pp CC.pnpn.",
"n pbnbp  ..bnpn.",
"n pppnp  .npppn.",
"nnnnnbp..bnnnnn.",
"n..............."
};
