/* XPM */
static char *_xpm[]={
"16 16 15 1",
"  c white",
". c black",
"o c #cccccccc9999",
"a c #999999996666",
"b c #333333333333",
"f c #ffffffff0000",
"n c #999999999999",
"p c #cccccccccccc",
"v c #ffff0000ffff",
"w c #404040404040",
"y c #ffffafafafaf",
"z c #ffffc8c80000",
"B c #cccc66663333",
"C c #cccc99990000",
"F c none",
"Fnnnnnnnnnnbyvv.",
"Fn        nCyvv.",
"Fn ppppppnCCCC..",
"Fn pbbbbb.Cf z.F",
"Fn ppppppnCf C.F",
"Fn pbbbb.Cf z.FF",
"Fn pppppnCf C.FF",
"Fn pbbb.Cf z..FF",
"Fn ppppnCf C.aFF",
"Fn pbb.Cf z.afBF",
"Fn pppnCf C.aBFF",
"Fn pb.p CC.affBF",
"Fn ppnp  ...offB",
"Fn nnbp  .wwofBF",
"Fn....p......B.F",
"FFFFFF..FFFFFFFF"
};
