/* XPM */
static char *_xpm[]={
"16 16 18 1",
"  c white",
". c black",
"o c #cccccccc9999",
"a c #999999996666",
"b c #333333333333",
"f c #ffffffff0000",
"i c #00003333ffff",
"n c #999999999999",
"p c #cccccccccccc",
"q c #000033339999",
"s c #000099990000",
"t c #666633339999",
"u c #00000000ffff",
"v c #ffff0000ffff",
"y c #ffffafafafaf",
"z c #ffffc8c80000",
"C c #cccc99990000",
"F c none",
"FFFFFFFFFFFFyvv.",
"FFFFFF....FFyvv.",
"FFFFF......Css..",
"FFFFFbffatCf z.F",
"FFFFFafCftCf C.F",
"FFFFFaffaCf z.FF",
"FFFFFafCoCf C.FF",
"FFFFFFooCf z.FFF",
"FFFFFiaoCf C.FFF",
"FFFniiqCf z.nFFF",
"FFFiiiqCfzC.bFFF",
"FFiiiqp CC.qqbFF",
"FFiuiqp  ..qqbFF",
"FFiuiqp  .qqqbFF",
"FFiuqqp..qqqqbFF",
"FFFFFF..FFFFFFFF"
};
