/* XPM */
static char *_xpm[]={
"16 16 17 1",
"  c white",
". c black",
"o c #cccccccc9999",
"b c #333333333333",
"d c #ffff00000000",
"e c #ffff66663333",
"f c #ffffffff0000",
"m c #666666666666",
"p c #cccccccccccc",
"r c #cccc00000000",
"s c #000099990000",
"t c #666633339999",
"v c #ffff0000ffff",
"y c #ffffafafafaf",
"z c #ffffc8c80000",
"C c #cccc99990000",
"F c none",
"FFFFFFFFFFFFyvv.",
"FFFFFFmmmFFFyvv.",
"FFFFFFm o.mCss..",
"FFFFFFFmb Cf z.F",
"FFFFFFFFmoCf C.F",
"FFFFFFFedCf z.mF",
"FFFFFFedrCf C.bF",
"FFFFFedrCf z.bFF",
"FFFFedrtCf C.FFF",
"FFFedrtCf z.FFFF",
"FFedrtFCfzC.FFFF",
"FedrtFp CC.FFFFF",
"edrtFFp  ..FFFFF",
"FtrtFFp  .FFFFFF",
"FFtFFFp..FFFFFFF",
"FFFFFF..FFFFFFFF"
};
