/* XPM */
static char * entity_xpm[] = {
"32 32 5 1",
" 	s none		c none",
".	s iconColor1	c black",
"X	s iconColor2	c white",
"o	s iconGray5	c #737373737373",
"O	s iconGray2	c #bdbdbdbdbdbd",
"                                ",
"                                ",
"              .....             ",
"            ..XXXXX..           ",
"           .XXXXXXXXX.          ",
"          .XXXXXXXXXXX.         ",
"      .....XXXXXXXXXX.....      ",
"    ..XXXXo.XXXXXXXX.oOXXX..    ",
"   .XXXXXXOooOXXXXXXooOXXXXX.   ",
"  .XXXXXXXXOOXXXXXXXOOXXXXXXX.  ",
" .XXXXXXXXXXXXXXXXXXXXXXXXXXX.  ",
" .XXXXXXXXXXXXXXXXXXXXXXXXXXXX. ",
".XXXXXXXXXXXXXXXXXXXXXXXXXXXXX. ",
".XXXXXXXXXXXXXXXXXXXXXXXXXXXXXX.",
".XXXXXXXXXXXXXXXXXX.XXXXXXXX.XX.",
".XXXXXXXXXXXXXXXXXX.XXXXXXXX.oX.",
".XXXXX.XXXXXXXXXXXO..XXXXXXX.oO.",
"o.XXXO.XXXXXXXXXXXOo..XXXX..oOO.",
"O.XXXO..XXXXXXXXXXX.oo....oooOX.",
" o.XXOo..XXXXXXXXX.ooOoooooOOX.o",
" O..XXOo..XXXXXXX..oOOOOOOOOX..o",
"  .o..XOoo..XXX..oooOXXXXXX..o.o",
"  ..oo....o.....ooOOOXXXXXXoo.oO",
"  o.OOoooooooooooOOXXXXXXXXX..oO",
"  O..XOOOOO.OOOOOOX..XXXXX..ooO ",
"   oo.XXXX..XXXXXXXo.......ooOO ",
"   OOo.......XXXXXXXo..oooooOO  ",
"     Ooooooo..XXXXX...oOOOOOO   ",
"      OOOOOOoo......oooO        ",
"            OOoooooooOOO        ",
"              OOOOOOOO          ",
"                                "};
