/* XPM */
static char *_xpm[]={
"26 20 8 1",
"  c white",
". c black",
"o c #333333333333",
"O c #00003333ffff",
"a c #999999999999",
"b c #cccccccccccc",
"c c #000033339999",
"d c none",
"dddddddddddddddddddddddddd",
"dddddddddddddddddddddddddd",
"dddddddddddddddddddddddddd",
"ddOOOOOOOOOOOOOOOOdddddddd",
"ddOa aaaaaaaaaaaa.dddddddd",
"ddOcccccccccccccc.dddddddd",
"dda             a.dddddddd",
"dda   .   b. .b a.dddd.ddd",
"dda b...b ao oa a.dddd..dd",
"dda . . . .   . a.dddd...d",
"dda . .   .   . a.dddd....",
"dda b...b .   . a.dddd...d",
"dda   . . .   . a.dddd..dd",
"dda . . . .   . a.dddd.ddd",
"dda b...b ao oa a.dddddddd",
"dda   .   b. .b a.dddddddd",
"ddaaaaaaaaaaaaaaa.dddddddd",
"dda...............dddddddd",
"dddddddddddddddddddddddddd",
"dddddddddddddddddddddddddd"
};
