/* XPM */
static char *_xpm[]={
"16 16 17 1",
"  c white",
". c black",
"o c #cccccccc9999",
"O c #999999996666",
"a c #333333333333",
"b c #ffff00000000",
"c c #ffffffff0000",
"d c #00003333ffff",
"e c #000066660000",
"f c #cccc99996666",
"g c #666666666666",
"i c #000033339999",
"j c #cccc00000000",
"k c #000099990000",
"m c #ffffafafafaf",
"n c #cccc99990000",
"p c none",
"pppppppppppppppp",
"ddddddd...dddddd",
"dd ddg.....gdddi",
"di...Onccjaiiiii",
"g.....oocj.... .",
"gOccjaOcnO......",
"goccjOoncOoocoa.",
"goccfaOcfaoocfa.",
"gocffOeooaocfca.",
"g ooaeekkeoccfO.",
"gdccdiekkeeooa .",
"ddddddiekemccOb.",
"ddddddd.embbbbjb",
"ddddddiimbbbbbbj",
"ddddddi.mbbbbbbj",
"pddiiiippbbbbjjp"
};
