/* XPM */
static char *_xpm[]={
"26 20 5 1",
"  c black",
"o c #333333333333",
"O c #ffffffff0000",
"b c #666633339999",
"c c none",
"cccccccccccccccccccccccccc",
"cccccccccccccccccccccccccc",
"cccccccccccccccccccccccccc",
"cccccccccccccccccccccccccc",
"cccccccccccccccccccccccccc",
"cccccbbbcccccbbccccccccccc",
"ccccbOOObcccbOObcccccccccc",
"cccbOOOOoccbOOoccccccc ccc",
"ccbOO OObcbOObcccccccc  cc",
"ccbOO OOobOOobbbbccccc   c",
"ccbOOOObbOObbOOOOocccc    ",
"cccbobobOOobOO OObcccc   c",
"ccccccbOObcbOO OOocccc  cc",
"cccccbOObccbOOOObccccc ccc",
"ccccbOObcccbOOOocccccccccc",
"cccccbocccccbobccccccccccc",
"cccccccccccccccccccccccccc",
"cccccccccccccccccccccccccc",
"cccccccccccccccccccccccccc",
"cccccccccccccccccccccccccc"
};
