/* XPM */
static char * map_xpm[] = {
"32 32 5 1",
" 	s none	     c none",
".	s iconColor1 c black",
"X	s iconColor2 c white",
"o	s iconColor5 c blue",
"O	s iconColor4 c green",
"           .........            ",
"        ...XXXXXXXXX...         ",
"       .oo..XXXXXXX..oo.        ",
"     ..ooo..........oooo..      ",
"    .o.ooo.OOooooooooOOO.O.     ",
"   .OoOoooOOOoooooooOOOO.OO.    ",
"   .OOOooOOOOooooo.oOOOOOOOO    ",
"  .OOOOOOOOOooooo.OoOOOOOOOO.   ",
" .OOOOOOOOOOoooooOOooOooOOOOO.  ",
" .OOOOOOOOOOooooooOOooOoOOOOO.  ",
" .oOOOOOOOOooooooooooOOOOOOOO.  ",
".oooOOoooOOooooooooOOOOOOOOOOO. ",
".oooOooooOooooooooOOOOOOOOOOOO. ",
".oooOoooooooooooooOOOooOoOOOOO. ",
".oooOOOOOooooooooooooooooOOOOO. ",
".ooOOOOOOOooooooooOOoooOOOOOOO. ",
".ooOOOOOOOoooooooOOOOOOOOOOOo.. ",
".oooOOOOOOoooooooOOOOOOO..OOoo. ",
".oooOOOOOOooooooooOOOOOOOooooo. ",
".ooooOOOOooooooooooOOOOOOooooo. ",
" .ooo.OO.oooooooooooOOOOOoooo.  ",
" .ooooOOOoooooooooooOOOOooooo.  ",
" .oooo.OOoooooooooooOOOOooooo.  ",
"  .oooooOOoooooooooooOOOoOoo.   ",
"   .oooo.OOoooooooooooOOooo.    ",
"   .ooooo.Ooooooooooooooooo.    ",
"    .ooooooooooooooooooooo.     ",
"     ..ooooooo.....ooooo..      ",
"       .ooo....XXXX.ooo.        ",
"        ...XXXXXXXXX...         ",
"           .........            ",
"                                "};
