/* XPM */
static char * nco_oe_b_xpm[] = {
"32 32 3 1",
" 	s None		c None",
".	s iconColor1    c black",
"X	s iconColor2    c white",
"                                ",
"                                ",
"                                ",
"                                ",
"                .               ",
"              .....             ",
"            .........           ",
"          .............         ",
"        .................       ",
"      ..........X..........     ",
"    ...........XXX...........   ",
"     ...........XX..........    ",
"      ............X........     ",
"        ...........X.....       ",
"         .XX........XXX.        ",
"         ...XX.....XX...        ",
"         .....XX.XX.X...        ",
"         .......X...X...        ",
"          ..........X..         ",
"           .........X.          ",
"            ........XX          ",
"              ..... .X          ",
"               ...  ..          ",
"                .   ..          ",
"                    ..          ",
"                    ..          ",
"                    ..          ",
"                    ..          ",
"                    ..          ",
"                    ..          ",
"                    ..          ",
"                                "};
