/* XPM */
static char * nco_cv_b_xpm[] = {
/* width height ncolors chars_per_pixel */
"32 32 8 1",
/* colors */
" 	s None		c none",
".	s iconColor1 	c black",
"X	s iconGray6 	c #636363636363",
"o	s iconColor5 	c blue",
"O	s iconColor2 	c white",
"+	s iconGray2 	c #bdbdbdbdbdbd",
"@	s iconColor7 	c cyan",
"#	s iconGray5 	c #737373737373",
/* pixels */
"                                ",
"                                ",
"                                ",
"                                ",
"                                ",
"                                ",
"    .        ........XX         ",
"     ..................XX       ",
"   .      ..............XX      ",
"    .........XXX.oooo....XX     ",
"  .     ....XXX.oOOOoo....XX    ",
"   .......XXX+.ooOOO.o.o...XX   ",
"      ...XX+O.oo@.o.o.o.o...X   ",
"  ......XX+O+.oo@o.o.o.o.o...#  ",
"    ....XXO+O.oo@.o.o.o.o.X..#  ",
"   .....XX+O+.oo@o.o.o.o.oX..#  ",
"   ......XX+O.ooo@o.o.o.@o...#  ",
"       X..XX++.ooo@o.o.@o...X   ",
"        X..XXXX.ooo@@@@o..X     ",
"         X..XXXX.oooooo..X      ",
"          X.............X       ",
"            X..........X        ",
"                                ",
"                                ",
"                                ",
"                                ",
"                                ",
"                                ",
"                                ",
"                                ",
"                                ",
"                                "};
