/* XPM */
static char * nco_map_b_xpm[] = {
/* width height ncolors chars_per_pixel */
"32 32 5 1",
/* colors */
" 	s none		m none	c none",
".	s iconColor1	m black	c black",
"X	s iconColor2	m white	c white",
"o	s iconColor4	m white	c green",
"O	s iconColor5	m black	c blue",
/* pixels */
"                                ",
"                                ",
"                                ",
"                                ",
"                                ",
"                                ",
"                                ",
"             .....              ",
"           ..XXXXX..            ",
"         ..oo.....oo..          ",
"        .Oo.o.OOOO.ooo.         ",
"        .O.o..OOOO.ooo.         ",
"       .O.oooo.OO.ooooo.        ",
"       .O.ooo.OO.oooooo.        ",
"      .OO.oo.OOOOO.OO....       ",
"      .OO.o.OOOO.oooo.OO.       ",
"      .OO..OOOO.oooooo.O.       ",
"      .OOoOOOOO.oooooo.O.       ",
"      .OO.o.OOOO.oooo.OO.       ",
"       .Oooo.OOOO.ooo.O.        ",
"       .Oooo.OOOO.oo.OO.        ",
"        ..oo.OOOOO.o.O.         ",
"        .OO.o.OOOOO.OO.         ",
"         ..OO.....OO..          ",
"           ..XXXXX..            ",
"             .....              ",
"                                ",
"                                ",
"                                ",
"                                ",
"                                ",
"                                "};
