/* XPM */
static char * nco_vb_b_xpm[] = {
/* width height ncolors chars_per_pixel */
"32 32 3 1",
/* colors */
" 	s none		m none	c none",
".	s iconColor1	m black	c black",
"X	s iconColor2	m white	c white",
/* pixels */
"                                ",
"                                ",
"                                ",
"                                ",
"         .....                  ",
"       .........                ",
"      ...XXXXX...               ",
"      ..X..XXXX..               ",
"     ..X.XX.XXXX..              ",
"     ..X.X.XXXXX..              ",
"     ..XX.XXXXXX..              ",
"     ..XXXXXXXXX..              ",
"     ..XXXXXXXXX..              ",
"      ..XXXXXXX..               ",
"      ...XXXXX...               ",
"       ...........              ",
"         .....  ...             ",
"                 ...            ",
"                  ...           ",
"                   ...          ",
"                    ...         ",
"                     ...        ",
"                      ...       ",
"                       ...      ",
"                        ..      ",
"                                ",
"                                ",
"                                ",
"                                ",
"                                ",
"                                ",
"                                "};
