/* XPM */
static char * nco_tl_b_xpm[] = {
/* width height ncolors chars_per_pixel */
"32 32 5 1",
/* colors */
" 	s None		c none",
".	s iconColor1	c Black",
"X	s iconGray3 	c #adadadadadad",
"o	s iconGray5 	c #737373737373",
"O	s iconGray7 	c #424242424242",
/* pixels */
"                                ",
"                                ",
"                                ",
"                                ",
"               .....            ",
"              .XXXXX..          ",
"             .....oXXX.         ",
"                  .ooXX.        ",
"                  .oooXX.       ",
"                  .ooooXX.      ",
"                 .X.ooooX.      ",
"                .XOO.ooooX..    ",
"               .XOO....oXoXX.   ",
"              .XOO..   .oooX.   ",
"             .XOO..     .ooo.   ",
"            .XOO..      .oo.    ",
"           .XOO..        ..     ",
"          .XOO..                ",
"         .XOO..                 ",
"        .XOO..                  ",
"       .XOO..                   ",
"      .XOO..                    ",
"     .XOO..                     ",
"    .XOO..                      ",
"   .XOO..                       ",
"   .OO..                        ",
"    ...                         ",
"                                ",
"                                ",
"                                ",
"                                ",
"                                "};
