/* XPM */
static char * nco_opt_b_xpm[] = {
"32 32 7 1",
" 	s None		c None",
".	s iconColor4	c green",
"X	s iconColor5	c blue",
"o	s iconColor3	c red",
"O	s iconGray5	c #737373737373",
"@	s iconColor1	c black",
"#	s iconColor7	c cyan",
"                                ",
"                                ",
"            ..                  ",
"           ...X    oo    o      ",
"          ...XOO  oooO  ooo     ",
"         ...XOO   ooooOooooO    ",
"        ...XOO     oooooooOO    ",
"       ...X@O      ooooooOO     ",
"   .. ....XO        oooo@O      ",
"  ...X...XOO        ooooo@      ",
"   .....X@O        oooooooo     ",
"   .....XO        ooooOoooo@    ",
"    ...XOO        @oo@O oooOO   ",
"    ...XO          o@OO  @OO    ",
"     .X@O           OO    O     ",
"      OO                        ",
"             ######             ",
"            #######X            ",
"            ###XX##XO           ",
"             #XO###XO           ",
"              O###XXO           ",
"              ###XOO            ",
"             ####XO             ",
"              ##XOO             ",
"                OO              ",
"             ####               ",
"             ####O              ",
"              ##XO              ",
"               OO               ",
"                                ",
"                                ",
"                                "};
