/* XPM */
static char * nco_event_b_xpm[] = {
/* width height ncolors chars_per_pixel */
"32 32 5 1",
/* colors */
" 	s none		m none	c none",
".	s iconColor3	m black	c red",
"X	s iconColor4 	m white	c green",
"o	s iconColor6	m black	c yellow",
"O	s iconColor5	m black	c blue",
/* pixels */
"                                ",
"                                ",
"                                ",
"                                ",
"                                ",
"                                ",
"                                ",
"      ...................       ",
"      ...................       ",
"                                ",
"      XXXXXXXXXXXXXXXXXXX       ",
"      XXXXXXXXXXXXXXXXXXX       ",
"                                ",
"      ooooooooooooooooooo       ",
"      ooooooooooooooooooo       ",
"                                ",
"      OOOOOOOOOOOOOOOOOOO       ",
"      OOOOOOOOOOOOOOOOOOO       ",
"                                ",
"      ...................       ",
"      ...................       ",
"                                ",
"      XXXXXXXXXXXXXXXXXXX       ",
"      XXXXXXXXXXXXXXXXXXX       ",
"                                ",
"      ooooooooooooooooooo       ",
"      ooooooooooooooooooo       ",
"                                ",
"                                ",
"                                ",
"                                ",
"                                "};
