/* XPM */
static char * nco_config_b_xpm[] = {
"32 32 7 1",
" 	s None		c None",
".	s iconGray8 	c #212121212121",
"X	s iconGray2 	c #bdbdbdbdbdbd",
"o	s iconColor1 	c black",
"O	s iconColor2 	c white",
"+	s iconColor5 	c blue",
"@	s iconGray5 	c #737373737373",
"                                ",
"                                ",
"                                ",
"                                ",
"                                ",
"         . XXX oooooooooooo     ",
"        .O+++++OOOOOOOOOOOOo@@  ",
"        .........OOXXXO..OOo@@  ",
"       oOOOOOOOOOO+++++OO.Oo@@  ",
"      ooooooOOXXXOoooooOO.Oo@@  ",
"     oOOOOOOO+++++OOOOOoO.Oo@@  ",
"     ooOXXXOoooooooooOOoO.Oo@@  ",
"    oOO+++++OOOOOOOOOoOoO.Oo@@  ",
"   ooooooooooooooooOOoOoO.Oo@@  ",
"  oOOOOOOOOOOOOOOOOoOoOoO.Oo@@  ",
"  oOOOOOOOOOOOOOOOOoOoOoO.Oo@@  ",
"  oOOOOOOOOOOOOOOOOoOoOoO.O+@@  ",
"  oOOOOOOOOOOOOOOOOoOoOoO.+X@@  ",
"  oOOOOOOOOOOOOOOOOoOoOoO+X@@@  ",
"  oOOOOOOOOOOOOOOOOoOoOo+X@@@@  ",
"  oOOOOOOOOOOOOOOOOoOoO+X@@@@   ",
"  XXXXXXXXXXXXXoOOOoOo+X@@@@    ",
"   ++++++++++++oXOOoO+X@@@@     ",
"   oooooooooooooXXOo+X@@@@      ",
"    ++++++++++++++++X@@@@       ",
"     XXXXXXXXXXXXXXX@@@@        ",
"      @@@@@@@@@@@@@@@@@         ",
"       @@@@@@@@@@@@@@@          ",
"                                ",
"                                ",
"                                ",
"                                "};
