/* XPM */
static char * nco_me_b_xpm[] = {
"32 32 4 1",
" 	s None		c none",
".	s iconColor1	c black",
"X	s iconGray4	c #949494949494",
"o	s iconGray2	c #bdbdbdbdbdbd",
"                                ",
"                                ",
"      ....................      ",
"      .XXXXXXXXXXXXXXXXXX..     ",
"      .XXXXXXXXXXXXXXXXXX..     ",
"      .X.............XXXX..     ",
"      .XX.............XXX..     ",
"      .XXXXXXXXXXXXXXXXXX..     ",
"      .XXXXXXXXXXXXXXXXXX..     ",
"      .....................     ",
"      .oooooooooooooooooo..     ",
"      .oooooooooooooooooo..     ",
"      .o............ooooo..     ",
"      .oo............oooo..     ",
"      .oooooooooooooooooo..     ",
"      .oooooooooooooooooo..     ",
"      .o............ooooo..     ",
"      .oo............oooo..     ",
"      .oooooooooooooooooo..     ",
"      .oooooooooooooooooo..     ",
"      .o...........oooooo..     ",
"      .oo...........ooooo..     ",
"      .oooooooooooooooooo..     ",
"      .oooooooooooooooooo..     ",
"      .o............ooooo..     ",
"      .oo............oooo..     ",
"      .oooooooooooooooooo..     ",
"      .oooooooooooooooooo..     ",
"      .....................     ",
"       ....................     ",
"                                ",
"                                "};
