/* XPM */
static char * nco_re_b_xpm[] = {
/* width height ncolors cpp [x_hot y_hot] */
"32 32 5 1 0 0",
/* colors */
" 	s none		m none	c none",
".	s iconColor1	m black	c black",
"X	s iconGray2 	m white c #bdbdbdbdbdbd",
"o	s iconColor2	m black	c white",
"O	s iconColor3	m black	c red",
/* pixels */
"                                ",
"                                ",
"    . . . . . . . . . . . .     ",
"    . . . . . . . . . . . .     ",
"  ...........................   ",
"  .X.X.X.X.X.X.X.X.X.X.X.X.X..  ",
"  .X.X.X.X.X.X.X.X.X.X.X.X.X.o. ",
"  .XXXXXXXXXX.XXXXXXXXXXXXXX.o. ",
"  .XX.....XXX..XXXXXXXXXXXXX.o. ",
"  .XX.ooo.XX.OO........XX..X.o. ",
"  .XX.ooo.X.OO.X........XX.X.o. ",
"  .XX.ooo..OO..X..X.....XX.X.o. ",
"  .X......OO.XXXXXXXXXXXXXXX.o. ",
"  .X.O.X.OO.XXXXXXXXXXXXXXXX.o. ",
"  .X.OO.OO.XXXXXXXXXXXXXXXXX.o. ",
"  .X.OOOO.XX...X..XX.....XXX.o. ",
"  .XX.OO..XX......XX.......X.o. ",
"  .XX..O..XX.X.X..XXXX.....X.o. ",
"  .XX.....XXXXXXXXXXXXXXXXXX.o. ",
"  .XXXXXXXXXXXXXXXXXXXXXXXXX.o. ",
"  .XX.....XXXXXXXXXXXXXXXXXX.o. ",
"  .XX.ooo.XXXXXXXXXXXXXXXXXX.o. ",
"  .XX.ooo.XXXXXXXXXXXXXXXXXX.o. ",
"  .XX.ooo.XXXXXXXXXXXXXXXXXX.o. ",
"  .XX.....XX...............X.o. ",
"  .XXXXXXXXXXXXXXXXXXXXXXXXX.o. ",
"  ...........................o. ",
"   .ooooooooooooooooooooooooo.. ",
"    ..........................  ",
"                                ",
"                                ",
"                                "};
