/* XPM */
static char * nco_user_b_xpm[] = {
"32 32 5 1",
" 	s None		c None",
".	s iconColor1	c black",
"X	s iconColor3	c red",
"o	s iconColor6	c yellow",
"O	s iconColor5	c blue",
"                                ",
"     .....                      ",
"    .XXXXX.                     ",
"    .XXXXX.                     ",
"    .XXXXX.          .....      ",
"    .XXXXX.         .ooooo.     ",
"     .XXX.          .ooooo.     ",
"      .X.     ..... .ooooo.     ",
"   ...XXX... .OOOOO..ooooo.     ",
"  .XXXXXXXXX..OOOOO. .ooo.      ",
"  .XXXXXXXXX..OOOOO.  .o.       ",
"  .XXXXXXXXX..OOOOO...ooo...    ",
"  .XXXXXXXXX. .OOO.ooooooooo.   ",
"  .XXXXXXXXX.  .O..ooooooooo.   ",
"  .XXXXXXXXX...OOO...ooooooo.   ",
"  .X.XXXXX..OOOOOOOOO.oooooo.   ",
"   . .XXX. .OOOOOOOOO.oooooo.   ",
"     .XXX. .OOOOOOOOO.oooooo.   ",
"     .XXX. .OOOOOOOOO.oooo.o.   ",
"     .XXX. .OOOOOOOOO.ooo. .    ",
"     .XXX. .OOOOOOOOO.ooo.      ",
"     .XXX. .O.OOOOO.O.ooo.      ",
"     .XXX.  . .OOO. ..ooo.      ",
"     .XXX.    .OOO.  .ooo.      ",
"     .....    .OOO.  .ooo.      ",
"              .OOO.  .ooo.      ",
"              .OOO.  .ooo.      ",
"              .OOO.  .....      ",
"              .OOO.             ",
"              .OOO.             ",
"              .....             ",
"                                "};
