/* XPM */
static char * nco_xprops_b_xpm[] = {
"32 32 7 1",
" 	s None	c None",
".	s iconColor4	c green",
"X	s iconColor5	c blue",
"o	s iconColor3	c red",
"O	s iconGray5	c #737373737373",
"+	s iconColor1	c black",
"@	s iconColor7	c cyan",
"            ..                  ",
"           ...X     ooo    oo   ",
"         ....XOOO  oooo+  oooo+ ",
"         ....XOOO  oooo+  oooo+ ",
"        ....XOO    oooooOooooo+ ",
"       ....XOO      ooooooooOO+ ",
"      ...XX+O       oooooooO+++ ",
" ... ....XXO         oooooO+++  ",
"....X...XOO          oooooo+    ",
" ......X+OO         oooooooooo  ",
" ......X+OO         oooooooooo  ",
" ......XO          oooooOooooo+ ",
"  ....X+O          oooo+O ooooOO",
"  ....X             o++O   +OOO ",
"    .XOO             OO     OO  ",
"     OO                         ",
"     OO       @@@@@             ",
"             @@@@@@@            ",
"            @@@@@@@@X           ",
"            @@@XXX@@XOO         ",
"             @XOO@@@XOO         ",
"              O@@@@XXOO         ",
"              O@@@@XXOO         ",
"              @@@@XOO           ",
"             @@@@@XO            ",
"              @@@XO             ",
"                 OO             ",
"             @@@@@              ",
"             @@@@@O             ",
"             @@@@@O             ",
"              @@@XO             ",
"               OOO              "};
