/* XPM */
static char * nco_auto_b_xpm[] = {
/* width height ncolors chars_per_pixel */
"32 32 5 1",
/* colors */
" 	s none		c none",
".	s iconColor1 	c black",
"X	s iconGray3	c #adadadadadad",
"o	s iconGray7	c #424242424242",
"O	s iconGray1	c #dededededede",
/* pixels */
"                                ",
"                                ",
"           ...                  ",
"         ...X...                ",
"         .XXoXX.                ",
"        ..XoooX..               ",
"        .XXoXOXX.               ",
"        ..XXoXX..               ",
"         .XXXXX....             ",
"         ...X....X.  .          ",
"           ...X.XXX..X.         ",
"           .XXXXXXXXXX..        ",
"            .XXXoooXXX.         ",
"            .XXoXoXoXX.         ",
"          ..XXoXoXOXoXX..       ",
"          .XXXooXXXOoXXX.       ",
"          ...XoXoXOXoX...       ",
"            .XXoXoXoXX.         ",
"            .XXXoooXXX.         ",
"           .XXXXXXXXXXX.        ",
"           ..X..XX.....         ",
"         ...X...XX.  .          ",
"         .XXoXX....             ",
"        ..XoooX..               ",
"        .XXoXOXX.               ",
"        ..XXoXX..               ",
"         .XXXXX.                ",
"         ...X...                ",
"           ...                  ",
"                                ",
"                                ",
"                                "};
