/* XPM */
static char * nco_xigen_b_xpm[] = {
"22 34 7 1",
" 	s None	c None",
".	c black",
"X	c gray49",
"o	c green",
"O	c #E1E1E1E1E1E1",
"+	c #646464646464",
"@	c red",
"    ..............    ",
"   .XXXXXXXXXXXXXX.   ",
"   .XXXXXXXXXXXXXX.   ",
"   .XXoooooXXOOOOX.   ",
"   .XXXXXXXXXOOOOX.   ",
"   .XX+++++XXOOOOX.   ",
"   .XXXXXXXXXOOOOX.   ",
"   .XXoooooXXOOOOX.   ",
"   .XXXXXXXXXXXXXX.   ",
"   .XX+++++XXX@X@X.   ",
"   .XXXXXXXXXXXXXX.   ",
"   .XXXXXXXXXXXXXX.   ",
"   .XXXXXXXXXXXXXX.   ",
"   .XXXXXXXXXXXXXX.   ",
"   .XXOXOXOXOXOXXX.   ",
"   .XXXOXOXOXOXOXX.   ",
"   .XXOXOXOXOXOXXX.   ",
"   .XXXOXOXOXOXOXX.   ",
"   .XXOXOXOXOXOXXX.   ",
"   .XXXOXOXOXOXOXX.   ",
"   .XXOXOXOXOXOXXX.   ",
"   .XXXOXOXOXOXOXX.   ",
"   .XXOXOXOXOXOXXX.   ",
"   .XXXOXOXOXOXOXX.   ",
"   .XXOXOXOXOXOXXX.   ",
"   .XXXOXOXOXOXOXX.   ",
"   .XXXXXXXXXXXXXX.   ",
"   .X++++++++++++X.   ",
"   .XXXXXXXXXXXXXX.   ",
"   .X++++++++++++X.   ",
"   .XXXXXXXXXXXXXX.   ",
"   ................   ",
" ++++++++++++++++++++ ",
"++++++++++++++++++++++"};
