/* XPM */
static char *_xpm[]={
"16 16 5 1",
"o c #cccccccc9999",
"a c #999999996666",
"f c #ffffffff0000",
"C c #cccc99990000",
"F c none",
"FCfCFFoooooooFFF",
"fCfCfafffffCFFFF",
"CCfCCoffffCFFFFF",
"ffffffoffCFFFFFF",
"CCfCCoffooooooFF",
"fCfCofffffffCFFF",
"FCfCaCCCfffCFFFF",
"FFFFFFFoffCFFFFF",
"FFFFFFoffCFFFFFF",
"FFFFFoffCFFFFFFF",
"FFFFFofCFFFFFFFF",
"FFFFofCFFFFFFFFF",
"FFFofCFFFFFFFFFF",
"FFofCFFFFFFFFFFF",
"FFoCFFFFFFFFFFFF",
"FFoFFFFFFFFFFFFF"
};
