/* XPM */
static char *_xpm[]={
"16 16 9 1",
"  c black",
". c #cccccccc9999",
"o c #333333333333",
"O c #ffffffff0000",
"a c #0000ffff0000",
"b c #000066660000",
"c c #000099990000",
"d c #cccc99990000",
"e c none",
"adOda.acc.a.a.a.",
"OdOdOcbeecccccco",
"ddOdddeeeecccccb",
"OOOOOOce.accccco",
"ddOdddb.cccccccb",
"OdOdObaccccccbco",
".dOdb.cccccobecb",
"ceeeacccccoeeee ",
"cee.cccccobbeee ",
".ceaccccobbcbeab",
"accccccobbccc.co",
".cccccoebccccccb",
"acccccbeebccccco",
".ccccbeeee.ccccb",
"acccccceeaccccco",
".bobobo  bobobob"
};
