/* XPM */
static char *_xpm[]={
"16 16 12 1",
". c black",
"o c #cccccccc9999",
"a c #999999996666",
"b c #333333333333",
"f c #ffffffff0000",
"i c #00003333ffff",
"n c #999999999999",
"q c #000033339999",
"r c #cccc00000000",
"u c #00000000ffff",
"C c #cccc99990000",
"F c none",
"FFfFFFFFFFFFFFFF",
"fCfCfF....FFFFFF",
"CCfCC......FFFFF",
"ffffffffarbFFFFF",
"CCfCCafCfraFFFFF",
"fCfCfaffCraFFFFF",
"FFfFFafCfraFFFFF",
"FFfFFFofraFFFFFF",
"FFFFFiafCaiFFFFF",
"FFFniiiiiiibnFFF",
"FFFiiiuuuuqqbFFF",
"FFiiiuuuuuuuqbFF",
"FFiuiuuuuquqqbFF",
"FFiuiuuuquuqqbFF",
"FFiuiuquqqqqqbFF",
"FFFFFFFFFFFFFFFF"
};
