/* XPM */
static char *_xpm[]={
"16 16 6 1",
"o c #cccccccc9999",
"f c #ffffffff0000",
"t c #666633339999",
"z c #ffffc8c80000",
"C c #cccc99990000",
"F c none",
"FFfFFFFFFFFFFFFF",
"fCfCfFFFFFFFFFFF",
"CCfCCFFFFFFFFFFF",
"ffffffFFFFFFFFFF",
"CCfCCFFFFFFfFFFF",
"fCfCfFFFFFFfzFFF",
"oFfFofFfffffzfFF",
"zFCFzzFzzzzzzzzF",
"zFzFzzFzzzzzzzzt",
"zFzFzzFzzzzzzztF",
"tFtFttFttttfztFF",
"FFFFFFFFFFFftFFF",
"FFFFFFFFFFFtFFFF",
"FFFFFFFFFFFFFFFF",
"FFFFFFFFFFFFFFFF",
"FFFFFFFFFFFFFFFF"
};
