/* XPM */
static char *_xpm[]={
"16 16 17 1",
". c black",
"o c #cccccccc9999",
"a c #999999996666",
"b c #333333333333",
"d c #ffff00000000",
"f c #ffffffff0000",
"i c #00003333ffff",
"j c #000066660000",
"l c #cccc99996666",
"m c #666666666666",
"q c #000033339999",
"r c #cccc00000000",
"s c #000099990000",
"u c #00000000ffff",
"y c #ffffafafafaf",
"C c #cccc99990000",
"F c none",
"FFfFFFFFFFFFFFFF",
"fCfCfFF...FFFFFF",
"CCfCCF.....FFFFF",
"ffffffbffrbFFFFF",
"CCfCC.oofr....FF",
"fCfCmbafCa.....F",
"FbfmraoCfaoofobF",
"FomflbaflbooflbF",
"FofllajooboflfbF",
"FFoobjjssjofflaF",
"FiffiqjssjjoobFF",
"uuuuiiqjsjyffadF",
"uuuuuiu.jyddddrd",
"uuuiiiqqyddddddr",
"uuiiiiq.yddddddr",
"FuiqqqqFFddddrrF"
};
