/* XPM */
static char *_xpm[]={
"24 16 11 1",
"  c white",
". c black",
"o c #cccccccc9999",
"b c #333333333333",
"f c #ffffffff0000",
"n c #999999999999",
"p c #cccccccccccc",
"w c #404040404040",
"B c #cccc66663333",
"C c #cccc99990000",
"F c none",
"FnfnnnnnnnnnnnFFFFFFFFFF",
"fCfCfp       .FFFFFFFFFF",
"CCfCCwnpppppn.FFFFFFFFFF",
"ffffffbbbbbpn.FFFFFFFFFF",
"CCfCCwnppnnpn.FFFFFFFFFF",
"fCfCf.bb.oBnn.FFFFFFFFFF",
"FwfwnpppnofBb.FFF.......",
"Fbpnbbbb.offB.FFFF.....F",
"Fn pppppnofffBFFFFF...FF",
"Fn pbbbb.offffBFFFFF.FFF",
"Fn pppppnofffBFFFFFFFFFF",
"Fn pbbbb.oBBffBFFFFFFFFF",
"Fn pppppnnnwoffBFFFFFFFF",
"Fn nnnnnnnnwofBFFFFFFFFF",
"Fn...........BFFFFFFFFFF",
"FFFFFFFFFFFFFFFFFFFFFFFF"
};
