/* XPM */
static char *_xpm[]={
"16 16 5 1",
"  c white",
". c black",
"o c none",
"O c #ffffffff0000",
"a c LightGray",
"ooOooooooooooooo",
"OoO.O......ooooo",
"oOOOa     ..oooo",
"OOOOOO    . .ooo",
"oOOOa aaaa....oo",
"OoOaO      aa.oo",
"ooOa aaaaaaa .oo",
"oo.          .oo",
"oo. aaaaaaaa .oo",
"oo.          .oo",
"oo. aaaaaaaa .oo",
"oo.          .oo",
"oo. aaaaaaaa .oo",
"oo.          .oo",
"oo............oo",
"oooooooooooooooo"
};
