/* XPM */
static char *_xpm[]={
"16 16 10 1",
"  c white",
". c black",
"b c #333333333333",
"f c #ffffffff0000",
"i c #00003333ffff",
"n c #999999999999",
"p c #cccccccccccc",
"q c #000033339999",
"C c #cccc99990000",
"F c none",
"FFfFFFFFFFFFFFFF",
"fCfCfqiiiiiiiiii",
"CCfCCbnnnnnnnnn.",
"ffffffqqqqqqqqq.",
"CCfCCp        n.",
"fCfCfnppppppppn.",
"bpf...bbbbbbbpn.",
"n nb        npn.",
"n pbnnnnnnnnnpn.",
"n ppppppppppppn.",
"n pbbbbbbbbbbpn.",
"n pb        npn.",
"n pbnnnnnnnnnpn.",
"n ppppppppppppn.",
"nnnnnnnnnnnnnnn.",
"n..............."
};
