/* XPM */
static char *_xpm[]={
"16 16 13 1",
"  c white",
". c black",
"o c #cccccccc9999",
"b c #333333333333",
"d c #ffff00000000",
"e c #ffff66663333",
"f c #ffffffff0000",
"m c #666666666666",
"n c #999999999999",
"r c #cccc00000000",
"t c #666633339999",
"C c #cccc99990000",
"F c none",
"FFfFFFFFFFFFFFFF",
"fCfCfFmmmFFFFFFF",
"CCfCCFm o.mFFFFF",
"ffffffFmb omFFFF",
"CCfCCFFFmoo.FFFF",
"fCfCfFFedmbnmmmF",
"FFfFFFedrtFm obF",
"FFFFFedrtFFmobFF",
"FFFFedrtFFFmbFFF",
"FFFedrtFFFFFFFFF",
"FFedrtFFFFFFFFFF",
"FedrtFFFFFFFFFFF",
"edrtFFFFFFFFFFFF",
"FtrtFFFFFFFFFFFF",
"FFtFFFFFFFFFFFFF",
"FFFFFFFFFFFFFFFF"
};
