/* XPM */
static char *_xpm[]={
"16 16 7 1",
". c black",
"b c #333333333333",
"f c #ffffffff0000",
"n c #999999999999",
"x c #808080808080",
"C c #cccc99990000",
"F c none",
"FFfFFFFFFFFFFFFF",
"fCfCfFFFFFFFFFFF",
"CCfCCFFbbFFFFFFF",
"ffffff.bbbbFFFFF",
"CCfCC..ff.....FF",
"fCfCf....f......",
"FFf...b...f...FF",
"FFF.x......fbFFF",
"FFbbbnx..xbf.FFF",
"FFbbbbbnx..f..FF",
"FFFbbbb....f.FFF",
"FFFFFb....fCFFFF",
"FFFFFFF..FCfFFFF",
"FFFFFFFFFFfCFFFF",
"FFFFFFFFFFCFFFFF",
"FFFFFFFFFFFFFFFF"
};
