/* XPM */
static char * obj_line_xpm[] = {
"48 48 3 1",
" 	s None		c None",
".	s iconColor2	c white",
"X	s iconColor1	c black",
"                                                ",
"                                                ",
"                                                ",
"   ...                                          ",
"   .XX.                                         ",
"   .XXX.                                        ",
"    .XXX.                                       ",
"     .XXX.                                      ",
"      .XXX.                                     ",
"       .XXX.                                    ",
"        .XXX.                                   ",
"         .XXX.                                  ",
"          .XXX.                                 ",
"           .XXX.                                ",
"            .XXX.                               ",
"             .XXX.                              ",
"              .XXX.                             ",
"               .XXX.                            ",
"                .XXX.                           ",
"                 .XXX.                          ",
"                  .XXX.                         ",
"                   .XXX.                        ",
"                    .XXX.                       ",
"                     .XXX.                      ",
"                      .XXX.                     ",
"                       .XXX.                    ",
"                        .XXX.                   ",
"                         .XXX.                  ",
"                          .XXX.                 ",
"                           .XXX.                ",
"                            .XXX.               ",
"                             .XXX.              ",
"                              .XXX.             ",
"                               .XXX.            ",
"                                .XXX.           ",
"                                 .XXX.          ",
"                                  .XXX.         ",
"                                   .XXX.        ",
"                                    .XXX.       ",
"                                     .XXX.      ",
"                                      .XXX.     ",
"                                       .XXX.    ",
"                                        .XXX.   ",
"                                         .XX.   ",
"                                          ...   ",
"                                                ",
"                                                ",
"                                                "};
