/* XPM */
static char * obj_text_xpm[] = {
"48 48 3 1",
" 	s None		c None",
".	s iconColor2	c white",
"X	s iconColor1	c black",
"                                                ",
"                                                ",
"                                                ",
"                                                ",
"                                                ",
"                                                ",
"                                                ",
"                                                ",
"                                                ",
"                                                ",
"                                                ",
"              ...................               ",
"             .XXXXXXXXXXXXXXXXXXX.              ",
"             .XXXXX..XXXXX..XXXXX.              ",
"             .XXX.. .XXXXX.  .XXX.              ",
"             .XX.   .XXXXX.   .XX.              ",
"             .X.    .XXXXX.    .X.              ",
"             .X.    .XXXXX.    .X.              ",
"             .X.    .XXXXX.    .X.              ",
"              .     .XXXXX.     .               ",
"                    .XXXXX.                     ",
"                    .XXXXX.                     ",
"                    .XXXXX.                     ",
"                    .XXXXX.                     ",
"                    .XXXXX.                     ",
"                    .XXXXX.                     ",
"                    .XXXXX.                     ",
"                    .XXXXX.                     ",
"                    .XXXXX.                     ",
"                    .XXXXX.                     ",
"                    .XXXXX.                     ",
"                    .XXXXX.                     ",
"                    .XXXXX.                     ",
"                  ..XXXXXXX..                   ",
"                 .XXXXXXXXXXX.                  ",
"                  ...........                   ",
"                                                ",
"                                                ",
"                                                ",
"                                                ",
"                                                ",
"                                                ",
"                                                ",
"                                                ",
"                                                ",
"                                                ",
"                                                ",
"                                                "};
