/* XPM */
static char * obj_ellipse_xpm[] = {
"48 48 3 1",
" 	s None	c None",
".	s iconColor2 c white",
"X	s iconColor1 c black",
"                                                ",
"                                                ",
"                                                ",
"                                                ",
"                                                ",
"                                                ",
"                      ....                      ",
"                    ..XXXX..                    ",
"                   .XXXXXXXX.                   ",
"                 ..XXX....XXX..                 ",
"                .XXXX.    .XXXX.                ",
"               .XXX..      ..XXX.               ",
"               .XX.          .XX.               ",
"              .XX.            .XX.              ",
"             .XXX.            .XXX.             ",
"             .XX.              .XX.             ",
"            .XX.                .XX.            ",
"            .XX.                .XX.            ",
"            .XX.                .XX.            ",
"           .XX.                  .XX.           ",
"           .XX.                  .XX.           ",
"           .XX.                  .XX.           ",
"           .XX.                  .XX.           ",
"           .XX.                  .XX.           ",
"           .XX.                  .XX.           ",
"           .XX.                  .XX.           ",
"           .XX.                  .XX.           ",
"           .XX.                  .XX.           ",
"            .XX.                .XX.            ",
"            .XX.                .XX.            ",
"            .XX.                .XX.            ",
"             .XX.              .XX.             ",
"             .XXX.            .XXX.             ",
"              .XX.            .XX.              ",
"               .XX.          .XX.               ",
"               .XXX..      ..XXX.               ",
"                .XXXX.    .XXXX.                ",
"                 ..XXX....XXX..                 ",
"                   .XXXXXXXX.                   ",
"                    ..XXXX..                    ",
"                      ....                      ",
"                                                ",
"                                                ",
"                                                ",
"                                                ",
"                                                ",
"                                                ",
"                                                "};
