/* XPM */
static char * obj_bus_xpm[] = {
"48 48 3 1",
" 	s None	c None",
".	s iconColor2 c white",
"X	s iconColor1 c black",
"                                                ",
"                                                ",
"                                                ",
"                                                ",
"                                                ",
"                                                ",
"                                                ",
"                                                ",
"                                                ",
"                                                ",
"                                                ",
"                                                ",
"                                                ",
"                                                ",
"                                                ",
"                                                ",
"                                                ",
"                                                ",
"                                                ",
"                                                ",
"                                                ",
"......                                    ......",
".XXXX......................................XXXX.",
".X..XXXXXXXXXXXXXXXXXXXXXXXXXXXXXXXXXXXXXXXX..X.",
".X..XXXXXXXXXXXXXXXXXXXXXXXXXXXXXXXXXXXXXXXX..X.",
".XXXX......................................XXXX.",
"......                                    ......",
"                                                ",
"                                                ",
"                                                ",
"                                                ",
"                                                ",
"                                                ",
"                                                ",
"                                                ",
"                                                ",
"                                                ",
"                                                ",
"                                                ",
"                                                ",
"                                                ",
"                                                ",
"                                                ",
"                                                ",
"                                                ",
"                                                ",
"                                                ",
"                                                "};
