/* XPM */
static char *_xpm[]={
"16 16 12 1",
"  c white",
". c black",
"o c #cccccccc9999",
"a c #999999996666",
"b c #333333333333",
"f c #ffffffff0000",
"m c #666666666666",
"n c #999999999999",
"p c #cccccccccccc",
"z c #ffffc8c80000",
"C c #cccc99990000",
"F c none",
"FFFFzzzzzzFFFFFF",
"FaaazCCCCCaaaFFF",
"FafozCCCCCfobFFF",
"FaofaoaoaoaobFFF",
"FafoonnnnnnnnnnF",
"Faofan        .F",
"Fafoon ppppppm.F",
"Faofan ppppppm.F",
"Fafoon p....pm.F",
"Faofan ppppppm.F",
"Fafoon p....pm.F",
"Faofan ppppppm.F",
"Fafoon p....pm.F",
"Fabbbn ppppppm.F",
"FFFFFn mmmmmmm.F",
"FFFFFn.........F"
};
