/* XPM */
static char *_xpm[]={
"16 16 4 1",
"o c #cccccccc9999",
"h c #0000ffff0000",
"j c #000066660000",
"F c none",
"FFFFFFFFFFFFFFFF",
"FFFFFFFFFFFFFFFF",
"FFFFFFFFFFFFFFFF",
"FFFFFFFooFFFFFFF",
"FFFFFFFohjFFFFFF",
"FFFFFFFohjFFFFFF",
"FFFFFFFohjFFFFFF",
"FFFooooohooooFFF",
"FFFohhhhhhhhhjFF",
"FFFFjjjohjjjjjFF",
"FFFFFFFohjFFFFFF",
"FFFFFFFohjFFFFFF",
"FFFFFFFohjFFFFFF",
"FFFFFFFFjjFFFFFF",
"FFFFFFFFFFFFFFFF",
"FFFFFFFFFFFFFFFF"
};
