/* XPM */
static char *_xpm[]={
"16 16 8 1",
"  c white",
". c black",
"o c #00003333ffff",
"O c #666666666666",
"a c #999999999999",
"b c #cccccccccccc",
"c c #000033339999",
"e c none",
"eeeeeeeeeeeeeeee",
"oooooooooooooooo",
"oo oooooooooooo.",
"occcccccccccccc.",
"O             b.",
"O    bbbbbbbbba.",
"O   booooooooooo",
"O   boooooooooo.",
"O   ba        O.",
"O   ba bbbbbbbO.",
"O   ba OOOOOO O.",
"O   ba O     bO.",
"O   ba O b b  O.",
"Obbbaa bbbbbbbO.",
"O....aOOOOOOOOO.",
"eeeeea.........."
};
