/* XPM */
static char *_xpm[]={
"26 20 8 1",
"  c white",
". c black",
"o c #333333333333",
"a c #00003333ffff",
"b c #999999999999",
"c c #cccccccccccc",
"d c #000033339999",
"f c none",
"ffffffffffffffffffffffffff",
"ffffffffffffffffffffffffff",
"ffffffffffffffffffffffffff",
"ffaaaaaaaaaaaaaaaaffffffff",
"ffab bbbbbbbbbbbb.ffffffff",
"ffadddddddddddddd.ffffffff",
"ffb             b.ffffffff",
"ffb ccccccccccccb.ffff.fff",
"ffb c...ooooooocb.ffff..ff",
"ffb co        bcb.ffff...f",
"ffb cobbbbbbbbbcb.ffff....",
"ffb ccccccccccccb.ffff...f",
"ffb coooooooooocb.ffff..ff",
"ffb co        bcb.ffff.fff",
"ffb cobbbbbbbbbcb.ffffffff",
"ffb ccccccccccccb.ffffffff",
"ffbbbbbbbbbbbbbbb.ffffffff",
"ffb...............ffffffff",
"ffffffffffffffffffffffffff",
"ffffffffffffffffffffffffff"
};
