/* XPM */
static char *_xpm[]={
"16 16 7 1",
"  c white",
". c black",
"m c #666666666666",
"n c #999999999999",
"p c #cccccccccccc",
"u c #00000000ffff",
"F c none",
"FFFFFFFFFFFFFFFF",
"FmmmmmmmmmmmmmmF",
"Fmu.        .u.F",
"Fm . pnpnpn .u.F",
"Fmu.        .u.F",
"Fmu. npnpnp .u.F",
"Fmu.        .u.F",
"Fmu..........u.F",
"Fmuuuuuuuuuuuu.F",
"Fmuu........uu.F",
"Fmuu.pppppp.uu.F",
"Fmuu.pupppp.uu.F",
"Fmuu.pupppp.uu.F",
"Fmuu.pupppp.uu.F",
"FF............FF",
"FFFFFFFFFFFFFFFF"
};
