/* XPM */
static char *_xpm[]={
"26 20 8 1",
". c black",
"o c #cccccccc9999",
"a c #999999996666",
"b c #333333333333",
"f c #ffffffff0000",
"m c #666666666666",
"t c #666633339999",
"F c none",
"FFFFFFFFFFFFFFFFFFFFFFFFFF",
"FFFFFFFFFFFFFFFFFFFFFFFFFF",
"FFFFFFFFFFFFFFFFFFFFFFFFFF",
"FFFFFFFFFFFFFFFFFFFFFFFFFF",
"FFFFFFFFFFFFFFFFFFFFFFFFFF",
"FFFFFttttFtttttFFtttFFFFFF",
"FFFFtfffotfffffttffbFFFFFF",
"FFFtffbbtffbbtfbafotFF.FFF",
"FFtffbFtffbFFtotffbFFF..FF",
"FFtfftttffmFFtotffbFFF...F",
"FFFtffoafaFFFmoafoaFFF....",
"FFFFtbtffbFFtotfftFFFF...F",
"FFttFFtfftFFtotffbFFFF..FF",
"FtffbttffmttfoaffbttFF.FFF",
"FtffffotffffotfffffftFFFFF",
"FFtbtbtbtffbtbtbtbtbFFFFFF",
"FFFFFFFFtffftFFFFFFFFFFFFF",
"FFFFFFFFFtfttFFFFFFFFFFFFF",
"FFFFFFFFFFttFFFFFFFFFFFFFF",
"FFFFFFFFFFFFFFFFFFFFFFFFFF"
};
