/* XPM */
static char * styles_xpm[] = {
/* width height ncolors chars_per_pixel */
"32 32 10 1",
/* colors */
" 	s None		c None",
".	s iconGray2  	c #bdbdbdbdbdbd",
"X	s iconGray4  	c #949494949494",
"o	s iconColor3 	c red",
"O	s iconGray7  	c #424242424242",
"+	s iconColor6 	c yellow",
"@	s iconColor4 	c green",
"#	s iconGray3  	c #adadadadadad",
"$	s iconColor8 	c magenta",
"%	s iconColor5 	c blue",
/* pixels */
"          ..............        ",
"        ..XXXXXXXXXXXXXX..      ",
"       .XXXXXXXXXXXXXXXXXX.     ",
"      .XXXXXoooXXXXXXXXXXXX.    ",
"     .XXXXXooooOXXXXXX+++XXX.   ",
"    .XXXXXXooooOXXXXX++++OXX.   ",
"   .XXXXXXXoooOOXXXXX++++OXXX.  ",
"   .XXXXXXXXOOOXXXXXX+++OOXXX.  ",
"  .XXXXXXXXXXXXXXXXXXXOOOXXXXXO ",
"  .XXXXXXXXXXXXXXXXXXXXXXXXXXXO ",
"  .XX@@@XXXXXXXOOOOXXXXXXXXXXXO ",
" .XX@@@@OXXXXXOOOOOOXXXXXXXXXOO ",
" .XX@@@@OXXXXOOO    .XXXXXXOOO  ",
"#XXX@@@OOXXXXOO     .XXXOOOOO   ",
"#XXXXOOOXXXXXXO    .XXOO        ",
"#XXXXXXXXXXXXXX....XXO          ",
"#XXXXXXXXXXXXXXXXXXXXO          ",
"#XXXXXXXXXXXXXXXXXXXXO          ",
"#XXXXXXXXXXXXXXXXXXXXO          ",
"OXXX$$$XXXXXXXXXXXXXXXO         ",
"OXX$$$$OXXXXXXXXXXXXXXO         ",
"OXX$$$$OXXXXXXXXXXXXXXXO        ",
"OXX$$$OOXXXXXXXXXXXXXXXO        ",
"OXXXOOOXXXXXXXXXXXXXXXXO        ",
"OXXXXXXXXXX%%%XXXXXXXXOO        ",
" OXXXXXXXX%%%%OXXXXXXXOO        ",
" OXXXXXXXX%%%%OXXXXXXOO         ",
"  OXXXXXXX%%%OOXXXXXOO          ",
"   OXXXXXXXOOOXXXXXOO           ",
"    OXXXXXXXXXXXXXOO            ",
"     OOXXXXXXXXXOOO             ",
"       OOOOOOOOOO               "};
