/* XPM */
static char *_xpm[]={
"16 16 8 1",
"  c white",
". c black",
"m c #666666666666",
"n c #999999999999",
"p c #cccccccccccc",
"q c #000033339999",
"u c #00000000ffff",
"F c none",
"FFFFFFFFFFFFFFFF",
"uuuuuuuuuuuuuuuu",
"un nnnnnnnnnnnn.",
"uqqqqqqqqqqqqqq.",
"m             p.",
"m nnn       n p.",
"m  nnn     n  p.",
"m   nnn   n   p.",
"m    nnn n    p.",
"m     n nn    p.",
"m    n  nnn   p.",
"m   n    nnn  p.",
"m  n      nnn p.",
"mpppppppppppppp.",
"................",
"FFFFFFFFFFFFFFFF"
};
