/* XPM */
static char * tb_freeze_xpm[] = {
"16 16 4 1",
" 	s None c None",
".	s iconColor16 c #000080",
"X	s iconColor7 c cyan",
"o	s iconColor2 c white",
" ...   .X.   ...",
" .XX. .XoX. .XX.",
" .X.X  oXo  X.X.",
"  .XoX .o. XoX. ",
"    Xo. X .oX   ",
"   . .o.o.o. .  ",
"  .oX .oXo. Xo. ",
" .oXoXoXoXoXoXo.",
"  .oX .oXo. Xo. ",
"   . .o.o.o. .  ",
"    Xo. X .oX   ",
"  .XoX .o. XoX. ",
" .X.X  oXo  X.X.",
" .XX. .XoX. .XX.",
" ...   .X.   ...",
"                "};
