/* XPM */
static char *_xpm[]={
"16 16 11 1",
"o c #cccccccc9999",
"a c #999999996666",
"e c #ffff66663333",
"f c #ffffffff0000",
"h c #0000ffff0000",
"j c #000066660000",
"m c #666666666666",
"r c #cccc00000000",
"s c #000099990000",
"t c #666633339999",
"F c none",
"FFFFFFaFFFFFFFFF",
"FFFFFroaFFFFFFFF",
"FFFFFrroaFFFFFFF",
"rrrrrreroaFFFFFF",
"reeeeeeeroaFFFFF",
"reeeeeeetfaFFFFF",
"trtrtretmoaFFFFF",
"FFFFFrtmofaFsFFF",
"FFFFFtmofoaFssFF",
"sssssssssfajshsF",
"shhhhhhhsoahhhhs",
"shhhhhhhsfashhhj",
"sjjjjjjjjaajjhjF",
"FFFFFFFFmoaFjjFF",
"FFFFFFFFFmaFjFFF",
"FFFFFFFFFFaFFFFF"
};
