/* XPM */
static char *_xpm[]={
"16 16 2 1",
"  c #333333333333",
". c none",
"................",
"..            ..",
".......  .......",
"......    ......",
".....      .....",
"....        ....",
"...   .  .   ...",
"..   ..  ..   ..",
"... ...  ... ...",
".......  .......",
".......  .......",
".......  .......",
".......  .......",
".......  .......",
".......  .......",
"................"
};
