/* XPM */
static char *_xpm[]={
"16 16 13 1",
"  c white",
". c black",
"o c #333333333333",
"O c #ffff00000000",
"a c #ffffffff0000",
"b c #0000ffff0000",
"c c #00003333ffff",
"d c #cccc99996666",
"e c #666666666666",
"f c #999999999999",
"g c #cccccccccccc",
"h c #000033339999",
"i c none",
"iiaiiiiiiiiiiiii",
"adadahccccccccch",
"ddaddhccccccccch",
"aaaaaaohhhhhhhhh",
"ddaddofggggggggh",
"adadaffgffffffg.",
"efaeeg gfgggg g.",
"ffebOO gfbbOO g.",
"ffbbOO gfbbOO g.",
"ffbbOO gfbbOO g.",
"ffbbOO gfbbOO g.",
"ffbbOO gfbbOO g.",
"fg     g      g.",
"fgggggggggggggg.",
"................",
"iiiiiiiiiiiiiiii"
};
