/* XPM */
static char *_xpm[]={
"16 16 7 1",
"  c black",
". c #cccccccc9999",
"o c #999999996666",
"O c #ffffffff0000",
"a c #666666666666",
"b c #cccc99990000",
"c c none",
"cccccccccccccccc",
"cccccccccccccccc",
"cccccccc    cccc",
"ccccccc cccc c c",
"ccccccccccccc  c",
"ccaaaacccccc   c",
"ca.O.Oaaaaaccccc",
"caO.O.O.O.O cccc",
"ca.O.O.O.O. cccc",
"caO.O.aaaaaaaaac",
"ca.O.aobobobobo ",
"caO.aobobobobo c",
"ca.aobobobobo cc",
"caaobobobobo ccc",
"ca          cccc",
"cccccccccccccccc"
};
