/* XPM */
static char *_xpm[]={
"16 16 9 1",
"  c white",
". c black",
"o c #cccccccc9999",
"a c #999999996666",
"b c #333333333333",
"m c #666666666666",
"n c #999999999999",
"s c #000099990000",
"F c none",
"FFFFFFFFFFFFFFFF",
"FFFFFFnnnnnnnnmF",
"FFFFFn        .F",
"FFFFn nnnnnn .FF",
"FFFFn       .FFF",
"FFFn nnnnnn .mmF",
"FFFn        .nm.",
"FFnnnnnnnnnnnma.",
"Fmmmmmmmmmmm.aa.",
"Fm     ooooo.aa.",
"Fm   ooossso.abb",
"Fm ooooooooo.b.F",
"F............abF",
"FF.  ooooaaa.bFF",
"FFF.........bFFF",
"FFFFFFFFFFFFFFFF"
};
