/* XPM */
static char *_xpm[]={
"16 16 13 1",
"  c white",
". c black",
"b c #333333333333",
"d c #ffff00000000",
"f c #ffffffff0000",
"h c #0000ffff0000",
"i c #00003333ffff",
"k c #cccc00009999",
"n c #999999999999",
"p c #cccccccccccc",
"q c #000033339999",
"z c #ffffc8c80000",
"F c none",
"FFFFFFFFFFFFFFFF",
"iiiiiiiib biiiiq",
"ii iiiqbb  biiiq",
"iqqqqbp  p  bqqq",
"nnnnb    p  bnn.",
"nddbp bbb  bddd.",
"nzzb bzzb bzzzz.",
"nffb bffbbfbfff.",
"nkkkbkbkkkb bkk.",
"nhhhhb bhhb bhh.",
"ndddb  bbb pbdd.",
"nzzb  p    bzzz.",
"nffb  p  pbffff.",
"nkkkb  bbbkkkkk.",
"n..... .........",
"FFFFFFFFFFFFFFFF"
};
