/* XPM */
static char *_xpm[]={
"16 16 12 1",
"  c white",
". c black",
"o c #cccccccc9999",
"b c #333333333333",
"f c #ffffffff0000",
"i c #00003333ffff",
"m c #666666666666",
"n c #999999999999",
"p c #cccccccccccc",
"q c #000033339999",
"B c #cccc66663333",
"F c none",
"FFFFFFFFFFFFFFFF",
"iiiiiiiiiiiiiiiq",
"ii iiiiiiiiiiiiq",
"iqqqqqqqqqqqqqq.",
"nnnnnnnnnmmnnnn.",
"n       poBp   .",
"nn.n.n.nbofB.n..",
"n       poffBp .",
"nn.n.n.n.offfB..",
"n       poffffB.",
"nn.n.n.n.offfB..",
"n       poBBffB.",
"nn.n.n.n.m.moffB",
"n          pofB.",
"n............B..",
"FFFFFFFFFFFFFFFF"
};
