/* XPM */
static char *_xpm[]={
"16 16 11 1",
"  c white",
". c black",
"o c #ffff00000000",
"O c #ffffffff0000",
"a c #0000ffff0000",
"c c #cccc00000000",
"d c #000099990000",
"e c #ffffafafafaf",
"f c #ffffc8c80000",
"g c #cccc99990000",
"h c none",
"hhhhh......hhhhh",
"hhh....oo....hhh",
"hhhh..oeoc..hhhh",
"hhhhh.oooc.hhhhh",
"hhhhh..cc..hhhhh",
"hhh..........hhh",
"hhhh...ff...hhhh",
"hhhhh.fOfg.hhhhh",
"hhhhh.fffg.hhhhh",
"hhhhh..gg..hhhhh",
"hhh..........hhh",
"hhhh...aa...hhhh",
"hhhhh.a ad.hhhhh",
"hhhhh.aaad.hhhhh",
"hhhhh..dd..hhhhh",
"hhhhh......hhhhh"
};
