/* XPM */
static char *_xpm[]={
"16 16 15 1",
"  c white",
". c black",
"d c #ffff00000000",
"f c #ffffffff0000",
"h c #0000ffff0000",
"i c #00003333ffff",
"n c #999999999999",
"p c #cccccccccccc",
"q c #000033339999",
"r c #cccc00000000",
"s c #000099990000",
"y c #ffffafafafaf",
"z c #ffffc8c80000",
"C c #cccc99990000",
"F c none",
"FFFFF......FFFFF",
"iii....dd....iiq",
"ii i..dydr..iiiq",
"iqqqq.dddr.qqqqq",
"n   p..rr..p  n.",
"n  .......... n.",
"n   ...zz...  n.",
"n   p.zfzC.p  n.",
"n   p.zzzC.p  n.",
"n   p..CC..p  n.",
"n  .......... n.",
"n   ...hh...  n.",
"n   p.h hs.p  n.",
"nnnnn.hhhs.nnnn.",
"n......ss.......",
"FFFFF......FFFFF"
};
