/* XPM */
static char *_xpm[]={
"16 16 11 1",
"  c white",
". c black",
"o c #cccccccc9999",
"a c #999999996666",
"g c #0000ffffffff",
"m c #666666666666",
"n c #999999999999",
"p c #cccccccccccc",
"A c #cccc33333333",
"B c #cccc66663333",
"F c none",
"FFFFFFFFFFFFFFFF",
"FFFFm...mFFFFFFF",
"FFF.mmmmm.FFFFFF",
"FF.mg   gm.FFFFF",
"Fmmg ggg gnmFFFF",
"F.m gggggpn.FFFF",
"F.m ggggggn.FFFF",
"F.m gggggpn.FFFF",
"Fmmg gggppmmFFFF",
"FF.mgg gpn.AFFFF",
"FFF.nnnnm.A oFFF",
"FFFFm...m.Ao oFF",
"FFFFFFFFFF.Bo oF",
"FFFFFFFFFFF.Ao a",
"FFFFFFFFFFFF.BAF",
"FFFFFFFFFFFFF.FF"
};
