/* XPM */
static char *_xpm[]={
"26 20 11 1",
"  c white",
". c black",
"d c #ffff00000000",
"f c #ffffffff0000",
"h c #0000ffff0000",
"i c #00003333ffff",
"k c #cccc00009999",
"n c #999999999999",
"q c #000033339999",
"z c #ffffc8c80000",
"F c none",
"FFFFFFFFFFFFFFFFFFFFFFFFFF",
"FFFFFFFFFFFFFFFFFFFFFFFFFF",
"FFFFFFFFFFFFFFFFFFFFFFFFFF",
"FFFFiiiiiiiiiiiiiiiiFFFFFF",
"FFFFin nnnnnnnnnnnn.FFFFFF",
"FFFFiqqqqqqqqqqqqqq.FFFFFF",
"FFFFndddddddddddddn.FFFFFF",
"FFFFnzzzzzzzzzzzzzn.FFFFFF",
"FFFFnfffffffffffffn.FFFFFF",
"FFFFniiiiiiiiiiiiin.FFFFFF",
"FFFFnkkkkkkkkkkkkkn.FFFFFF",
"FFFFnhhhhhhhhhhhhhn.FFFFFF",
"FFFFndddddddddddddn.FFFFFF",
"FFFFnfffffffffffffn.FFFFFF",
"FFFFnzzzzzzzzzzzzzn.FFFFFF",
"FFFFniiiiiiiiiiiiin.FFFFFF",
"FFFFnnnnnnnnnnnnnnn.FFFFFF",
"FFFFn...............FFFFFF",
"FFFFFFFFFFFFFFFFFFFFFFFFFF",
"FFFFFFFFFFFFFFFFFFFFFFFFFF"
};
