/* XPM */
static char *_xpm[]={
"16 16 10 1",
"  c white",
". c black",
"b c #333333333333",
"h c #0000ffff0000",
"j c #000066660000",
"m c #666666666666",
"n c #999999999999",
"p c #cccccccccccc",
"s c #000099990000",
"F c none",
"FnnnnnnnnnnnnnpF",
"Fn           .FF",
"Fn pppppppppn.FF",
"Fn pbbb....nm.FF",
"Fn pppnhhhhhhhFF",
"Fn pb.hssssssssj",
"Fn ppnhssssssssj",
"Fn pbb.jjhssjjjj",
"Fn pppppnhssj.FF",
"Fn pbbb.hssjm.FF",
"Fn ppppnhssjm.FF",
"Fn pb..hssjbm.FF",
"Fn pppnhssjnn.FF",
"Fn nnmhssjmnn.FF",
"Fn....hssj....FF",
"FFFFFFFjjFFFFFFF"
};
