/* XPM */
static char * action_xpm[] = {
/* width height ncolors chars_per_pixe*/
"32 32 4 1",
/* colors */
" 	s iconGray1  c #dededededede",
".	s iconGray6  c #636363636363",
"X	s iconGray2  c #bdbdbdbdbdbd",
"o	s iconColor1 c black",
/* pixels */
"                                ",
"                               .",
"  XXXXXXXXXXXXXXXXXXXXXXXXXXXX..",
"  XXXXXXXXXXXXXXXXXXXXXXXXXXXX..",
"  XXXXXXXXXXXXXXXXXXXXXXXXXXXX..",
"  XXXXXXXXXXXXXXXXXXXXXXXXXXXX..",
"  XXXXXXXXXXXXXoXXXXXXXXXXXXXX..",
"  XXXXXXXXXXXXXooXXXXXXXXXXXXX..",
"  XXXXXXXXXXXXoooXXXXXXXXXXXXX..",
"  XXXXXXXXXXXXooooXXXXXXXXXXXX..",
"  XXXXXXXXXXXXooooXXXXXXXXXXXX..",
"  XXXXXXXXXXXooooooXXXXXXXXXXX..",
"  XXXXXXXXXXXooooooXXXXXXXXXXX..",
"  XXXXXXXXXXooXooooXXXXXXXXXXX..",
"  XXXXXXXXXXoXXoooooXXXXXXXXXX..",
"  XXXXXXXXXooXXoooooXXXXXXXXXX..",
"  XXXXXXXXXoXXXXoooooXXXXXXXXX..",
"  XXXXXXXXXoXXXXoooooXXXXXXXXX..",
"  XXXXXXXXooXXXXXoooooXXXXXXXX..",
"  XXXXXXXXooooooooooooXXXXXXXX..",
"  XXXXXXXooXXXXXXXoooooXXXXXXX..",
"  XXXXXXXoXXXXXXXXoooooXXXXXXX..",
"  XXXXXXXoXXXXXXXXoooooXXXXXXX..",
"  XXXXXXooXXXXXXXXXoooooXXXXXX..",
"  XXXXXoooXXXXXXXXoooooooXXXXX..",
"  XXXXooooooXXXXooooooooooXXXX..",
"  XXXXXXXXXXXXXXXXXXXXXXXXXXXX..",
"  XXXXXXXXXXXXXXXXXXXXXXXXXXXX..",
"  XXXXXXXXXXXXXXXXXXXXXXXXXXXX..",
"  XXXXXXXXXXXXXXXXXXXXXXXXXXXX..",
"  ..............................",
" ..............................."};
