/* XPM */
static char *_xpm[]={
"20 20 11 1",
"  c #cccccccc9999",
". c #999999996666",
"o c #333333333333",
"O c #ffffffff0000",
"b c #666666666666",
"c c #999999999999",
"d c #000033339999",
"e c #666633339999",
"f c #404040404040",
"g c #cccc99990000",
"h c none",
"hhhhhhhhhhhhhhhhhhhh",
"hhhhhhhhhhhhhhhhhhhh",
"hhhhhhhhh       hhhh",
"hhhhhhhh OOOOOghhhhh",
"hhhheeeb OOOOghheeeh",
"hhheOO. OOOOgbob.Ooh",
"hheOOoo OOO      .eh",
"heOOoh OOOOOOOOg.ohh",
"heOOeo ggggOOOg.Oehh",
"hheOO.o..o OOgbO .hh",
"hhheoe Oo OOgbcOohhh",
"heehheO. OOgoeOOehhh",
"eOOeee . Og.oeO.oeeh",
"eOOOOfb Og.oeOOOOOOe",
"hdodoo Og.eeeoeoeoeh",
"hhhhh Og. Oehhhhhhhh",
"hhhhh ghbOebhhhhhhhh",
"hhhhh hhhebhhhhhhhhh",
"hhhhhhhhhhhhhhhhhhhh",
"hhhhhhhhhhhhhhhhhhhh"
};
