/* XPM */
static char *_xpm[]={
"20 20 7 1",
"  c black",
". c #cccccccc9999",
"o c #999999996666",
"O c #333333333333",
"a c #ffffffff0000",
"e c #666633339999",
"f c none",
"ffffffffffffffffffff",
"ffffffffffffffffffff",
"ffffffffffffffffffff",
"ffffffffffffffffffff",
"ffffeeeefeeeeeffeeef",
"fffeaaa.eaaaaaeeaaOf",
"ffeaaO eaaOeeaOea.ef",
"feaaOfeaaOffe.eaaOff",
"feaaeeeaaOffe.eaaeff",
"ffeaa.oaofffo.oa.off",
"fffeOeaaOffe.eaaOfff",
"feeffeaaeffe.eaaefff",
"eaaOeeaaoeea.eaaOeee",
"eaaaa.eaaaa.eaaaaaae",
"feOeOe eaaee eOeeOef",
"fffffffeaaaeffffffff",
"ffffffffeaeeffffffff",
"fffffffffeefffffffff",
"ffffffffffffffffffff",
"ffffffffffffffffffff"
};
