/* XPM */
static char *_xpm[]={
"20 20 4 1",
"o c #cccccccc9999",
"f c #ffffffff0000",
"C c #cccc99990000",
"F c none",
"FFFFFFFFFFFFFFFFFFFF",
"FFFFFFFFFFFFFFFFFFFF",
"FFFFFFFFFoooooooFFFF",
"FFFFFFFFofffffCFFFFF",
"FFFFFFFFoffffCFFFFFF",
"FFFFFFFoffffCFFFFFFF",
"FFFFFFFofffooooooFFF",
"FFFFFFoffffffffCFFFF",
"FFFFFFoCCCCfffCFFFFF",
"FFFFFFFFFFoffCFFFFFF",
"FFFFFFFFFoffCFFFFFFF",
"FFFFFFFFoffCFFFFFFFF",
"FFFFFFFFofCFFFFFFFFF",
"FFFFFFFofCFFFFFFFFFF",
"FFFFFFofCFFFFFFFFFFF",
"FFFFFofCFFFFFFFFFFFF",
"FFFFFoCFFFFFFFFFFFFF",
"FFFFFoFFFFFFFFFFFFFF",
"FFFFFFFFFFFFFFFFFFFF",
"FFFFFFFFFFFFFFFFFFFF"
};
