/* XPM */
static char *_xpm[]={
"20 20 5 1",
"d c #ffff00000000",
"t c #666633339999",
"y c #ffffafafafaf",
"A c #cccc33333333",
"F c none",
"FFFFFFFFFFFFFFFFFFFF",
"FFFFFFFFFFFFFFFFFFFF",
"FFFFFFFFFFFFFFFFFFFF",
"FFFFFFFFFyyFFFFFFFFF",
"FFFFFFFFyddAFFFFFFFF",
"FFFFFFFFyddAFFFFFFFF",
"FFFFFFFyddddAFFFFFFF",
"FFFFFFFydAAdAFFFFFFF",
"FFFFFFyddAyddAFFFFFF",
"FFFFFFydtFFydAFFFFFF",
"FFFFFyddAFFyddAFFFFF",
"FFFFFydtFFFFydAFFFFF",
"FFFFyddAFFFFyddAFFFF",
"FFFFydtFFFFFFydAFFFF",
"FFFyddyyyyyyyyddAFFF",
"FFFdddddddddddddAFFF",
"FFFAtAtAtAtAtAtAtAFF",
"FFFFFFFFFFFFFFFFFFFF",
"FFFFFFFFFFFFFFFFFFFF",
"FFFFFFFFFFFFFFFFFFFF"
};
