/* XPM */
static char *_xpm[]={
"16 16 5 1",
"  c white",
". c black",
"n c #999999999999",
"p c #cccccccccccc",
"F c none",
"FFFFFFFFFFnnnnFF",
"FFFFFFFFFn   p.F",
"FFFFFFFFFn n. p.",
"FFFFFFFFFn n. p.",
"FFFFFFFFn  p  p.",
"FFFFFFFn  nnpp.F",
"FFFFFFn  p.F..FF",
"FFFFFn  n.FFFFFF",
"FFFFn  p.FFFFFFF",
"FFFn  n.FFFFFFFF",
"FFn  p.FFFFFFFFF",
"Fn  n nFFFFFFFFF",
"Fn n n .FFFFFFFF",
"FF. n n.FFFFFFFF",
"FFF. n.FFFFFFFFF",
"FFFF..FFFFFFFFFF"
};
