/* XPM */
static char * alert_xpm[] = {
"48 48 3 1",
" 	s None	c None",
".	s iconColor1 c black",
"X	s iconColor3 c #ffff00000000",
"                                                ",
"                                                ",
"                                                ",
"                                                ",
"                       ...                      ",
"                     ..XXX..                    ",
"                    .XXXXXXX.                   ",
"                    .XXXXXXX.                   ",
"                   .XXXXXXXXX.                  ",
"                   .XXXXXXXXX.                  ",
"                   .XXXXXXXXX.                  ",
"                   .XXXXXXXXX.                  ",
"                   .XXXXXXXXX.                  ",
"                   .XXXXXXXXX.                  ",
"                    .XXXXXXX.                   ",
"                    .XXXXXXX.                   ",
"                    .XXXXXXX.                   ",
"                    .XXXXXXX.                   ",
"                    .XXXXXXX.                   ",
"                    .XXXXXXX.                   ",
"                     .XXXXX.                    ",
"                     .XXXXX.                    ",
"                     .XXXXX.                    ",
"                     .XXXXX.                    ",
"                     .XXXXX.                    ",
"                     .XXXXX.                    ",
"                     ..XXX.                     ",
"                      .XXX.                     ",
"                      .XXX.                     ",
"                      .XXX.                     ",
"                      .XXX.                     ",
"                      .XXX.                     ",
"                       .X.                      ",
"                       .X.                      ",
"                        .                       ",
"                                                ",
"                                                ",
"                       ...                      ",
"                      .XXX.                     ",
"                     .XXXXX.                    ",
"                     .XXXXX.                    ",
"                     .XXXXX.                    ",
"                      .XXX.                     ",
"                       ...                      ",
"                                                ",
"                                                ",
"                                                ",
"                                                "};
