/* XPM */
static char *_xpm[]={
"20 20 8 1",
"o c #cccccccc9999",
"O c #000066669999",
"f c #ffffffff0000",
"g c #0000ffffffff",
"i c #00003333ffff",
"q c #000033339999",
"C c #cccc99990000",
"F c none",
"FFFFFFFFFFFFFFFgFFFF",
"FFFFFFFFFFFFFFFOFFFF",
"FFFFFFoooooooFgiOFFF",
"FFFFFofffffCFFOiiFFF",
"FFFFFoffffCFFgiiiOFF",
"FFFFoffffCFFFOiiiiFF",
"FFFFofffoooogiiiiiOF",
"FFFoffffffffOiiiiiiF",
"FFFoCCCCfffgiiiiiiiO",
"FFFFFFFoffCOqqqqqqqq",
"FFFFFFoffCFFFFFFFFFF",
"FFFFFoffCFFFFFFFFFFF",
"FFFFFofCFFFFFFFFFFFF",
"FFFFofCFFFFFFFFFFFFF",
"FFFofCFFFFFFFFFFFFFF",
"FFofCFFFFFFFFFFFFFFF",
"FFoCFFFFFFFFFFFFFFFF",
"FFoFFFFFFFFFFFFFFFFF",
"FFFFFFFFFFFFFFFFFFFF",
"FFFFFFFFFFFFFFFFFFFF"
};
