/* XPM */
static char *_xpm[]={
"20 20 13 1",
"  c black",
". c #cccccccc9999",
"o c #000066669999",
"O c #999999996666",
"a c #333333333333",
"b c #ffffffff0000",
"c c #0000ffffffff",
"d c #00003333ffff",
"f c #666666666666",
"h c #000033339999",
"i c #666633339999",
"j c #cccc99990000",
"k c none",
"kkkkkkkkkkkkkkkckkkk",
"kkkkkkkkkkkkkkkokkkk",
"kkkkkk.......kcdokkk",
"kkkkk.bbbbbbjkoddkkk",
"kkkki.bbbbbjacdddokk",
"kkki.bbbbbjaOoddddkk",
"kkif.bbbb...cdddddok",
"kiO.bbbbbbbboddddddk",
"kiO.jjjjbbbcdddddddo",
"kkiOOOi.bbjohhhhhhhh",
"kkkiii.bbjkaafOO kkk",
"kiikk.bbjkkiOibbakkk",
"ibbia.bjaiibOObOaiik",
"ibba.bjaObbOibbbbbbi",
"kia.bjaObbaiaiaiaiak",
"kk.bjkkibbbikkkkkkkk",
"kk.jkkkkibikkkkkkkkk",
"kk.kkkkkkikkkkkkkkkk",
"kkkkkkkkkkkkkkkkkkkk",
"kkkkkkkkkkkkkkkkkkkk"
};
