/* XPM */
static char *_xpm[]={
"20 20 11 1",
"O c #000066669999",
"d c #ffff00000000",
"g c #0000ffffffff",
"i c #00003333ffff",
"l c #cccc99996666",
"q c #000033339999",
"r c #cccc00000000",
"t c #666633339999",
"y c #ffffafafafaf",
"A c #cccc33333333",
"F c none",
"FFFFFFFFFFFFFFFgFFFF",
"FFFFFFFFFFFFFFFOFFFF",
"FFFFFFFFFFFFFFgiOFFF",
"FFFFFFFFFyyFFFOiiFFF",
"FFFFFFFFyddAFgiiiOFF",
"FFFFFFFFyddtFOiiiiFF",
"FFFFFFFydddrgiiiiiOF",
"FFFFFFFydAArOiiiiiiF",
"FFFFFFyddAlgiiiiiiiO",
"FFFFFFydtFFOqqqqqqqq",
"FFFFFyddAFFlrrtFFFFF",
"FFFFFydtFFFFydAFFFFF",
"FFFFyddAFFFFyddAFFFF",
"FFFFydtFFFFFFydAFFFF",
"FFFyddyyyyyyyyddAFFF",
"FFFdddddddddddddAFFF",
"FFFAtAtAtAtAtAtAtAFF",
"FFFFFFFFFFFFFFFFFFFF",
"FFFFFFFFFFFFFFFFFFFF",
"FFFFFFFFFFFFFFFFFFFF"
};
