/* XPM */
static char *_xpm[]={
"20 20 10 1",
". c #cccccccc9999",
"o c #000066669999",
"O c #999999996666",
"a c #333333333333",
"b c #ffffffff0000",
"c c #0000ffffffff",
"d c #00003333ffff",
"h c #000033339999",
"i c #666633339999",
"j c none",
"jjjjjjjjjjjjjjjcjjjj",
"jjjjjjjjjjjjjjjojjjj",
"jjjjjjjjjjjjjjcdojjj",
"jjjjjjjjjjjjjjoddjjj",
"jjjjiiiijiiiicdddojj",
"jjjibbbOibbbOoddddjj",
"jjibbaaibbaacdddddoj",
"jibbajibbajjoddddddj",
"jibbiaibbijcdddddddo",
"jjibb.ObOjjohhhhhhhh",
"jjjiaibbajjiaiOOijjj",
"jiijjibbijji.ibbajjj",
"ibbaiibbOiib.ibOaiij",
"ibbbb.ibbbb.ibbbbbbi",
"jiaiaiaibbaiaiaiaiaj",
"jjjjjjjibbbijjjjjjjj",
"jjjjjjjjibijjjjjjjjj",
"jjjjjjjjjijjjjjjjjjj",
"jjjjjjjjjjjjjjjjjjjj",
"jjjjjjjjjjjjjjjjjjjj"
};
