/* XPM */
static char * ascending_xpm[] = {
"16 16 3 1",
" 	s None		c None",
".	s iconColor2 	c white",
"X	s iconColor1 	c black",
"       ..       ",
"      .XX.      ",
"     .XXXX.     ",
"    .XXXXXX.    ",
"   .XXXXXXXX.   ",
"  .XXXXXXXXXX.  ",
"  .XXXXXXXXXX.  ",
"  ....XXXX....  ",
"     .XXXX.     ",
"     .XXXX.     ",
"     .XXXX.     ",
"     .XXXX.     ",
"     .XXXX.     ",
"     .XXXX.     ",
"     .XXXX.     ",
"     ......     "};
