/* XPM */
static char *_xpm[]={
"32 32 18 1",
"  c white",
". c black",
"o c #cccccccc9999",
"O c #999999996666",
"a c #333333333333",
"b c #ffff00000000",
"c c #ffffffff0000",
"d c #0000ffffffff",
"e c #0000ffff0000",
"f c #000066660000",
"g c #666666666666",
"h c #999999999999",
"i c #cccccccccccc",
"j c #000033339999",
"k c #000099990000",
"l c #cccc99990000",
"m c #999933336666",
"n c none",
"nnnnnnnnnnnnnnnnnnnnnnnnnnnnnnnn",
"nnnnnnnnnnnnnnnnnnnnnnnnnnnnnnnn",
"nnnnnnnnnnnnnnnnnnnnnnnnnnnnnnnn",
"nnnnnnnnnnnnnnnnnnnnnnnnnnnnnnnn",
"nnnnnnnoooooooooonnnnnnnnnnnnnnn",
"nnnnnnocccccccclnnnnnnnnnnnnnnnn",
"nnnnnnoccccccclnnnnnnnnnnnnnnnnn",
"nnnnnocccccccgnnnnnnnnnnnnnnnnnn",
"nnnnnoccccccbbbnnnnennnnnnnnnnnn",
"nnnnoccccccbbbmmnnnefOoooooooonn",
"nnnnocccccbbbgammnnekfOccccclnnn",
"nnnoccoooobboogamonekkfOccclnnnn",
"nnnocoeObbbbbbOOOeeekkkfOclnnnnn",
"nnocoekkbbbbbfffkkkkkkkkfOnnnnnn",
"nnolOekkfbbbfffkkkkkkkkkkfnnnnnn",
"nnnnnekkkbbbffkkkkkkkkOkOkfnnnnn",
"nnnngekkkfbfffkkOkkOkOkOkaaoooon",
"nnggggggggfffkkkkOkkOkOkaoocclnn",
"nngddddjj.aaaaaaaaaakOkaoocclnnn",
"nng  iihh.lnnnnaaOOeOkaoocclnnnn",
"nnng iih.lbbnnammnnekaoocclnnnnn",
"nnnngii.lnbbbmmmnnneaoocclnnnnnn",
"nnnngii.nnnbbbbnnnneoocclnnnnnnn",
"nnng iih.nnnnnnnnnnnocclnnnnnnnn",
"nng  iihh.nnnnnnnnnocclnnnnnnnnn",
"nOg  iihh.nnnnnnnnocclnnnnnnnnnn",
"Ocgddddjj.nnnnnnnocclnnnnnnnnnnn",
"Ogg.......nnnnnnnoclnnnnnnnnnnnn",
"nnnnnnnnnnnnnnnnoclnnnnnnnnnnnnn",
"nnnnnnnnnnnnnnnoclnnnnnnnnnnnnnn",
"nnnnnnnnnnnnnnoclnnnnnnnnnnnnnnn",
"nnnnnnnnnnnnnnolnnnnnnnnnnnnnnnn"
};
