/* XPM */
static char *_xpm[]={
"32 32 8 1",
". c black",
"a c #999999996666",
"b c #333333333333",
"f c #ffffffff0000",
"m c #666666666666",
"n c #999999999999",
"C c #cccc99990000",
"F c none",
"FFFFFFFFFFFFFFFFFFFFFFFFFFFFFFFF",
"FFFFFFFFFFFFFFFFFFFFFFFFFFFFFFFF",
"FFFFFFFFFFFFFFFFFFFFFFFFFFFFFFFF",
"FFFFFFFFFFFFFFFFFFFFFFFFFFFFFFFF",
"FFFFFFFFFFFFFFFFFFFFFFFFFFFFFFFF",
"FFFFFFFFFFFFFbbbbbFFFFFFFFFFFFFF",
"FFFFFFFFFFmbbbbbbbb.mFFFFFFFFFFF",
"FFFFFFFFbbbbbbbbbb.bbbbFFFFFFFFF",
"FFFFFFmbbbbbbbbbbbbb.bbbbmFFFFFF",
"FFFFbbbbbbbbbbffffbb.b..bbbbFFFF",
"FFmbbbbbbbbbbbaffCfbbbbb..bbbmFF",
"bbbbbbbbbbbbbbbbbbafbb.b.bbb.bbb",
"bbbbbbbbbbbbbbb.bbbCfbb.......bb",
"FFbbbbbbbbbbbbbb..bbafbb...bbbFF",
"FFFFbbbbbbbbb.b..b..bCfbbbbbFFFF",
"FFFFFFbbbbbbbbb..bb.bbafbbFFFFFF",
"FFFFFb.nmmbbbbb...b.bbff..FFFFFF",
"FFFFbbbb..mmbb.b...bb.af..FFFFFF",
"FFFbbbbbbb.mmnbbbbm.m.ff...FFFFF",
"FFFbbbbbbbb..mm.m.....af....FFFF",
"FFFbbbbbbbbb.b.m......ff....FFFF",
"FFFFFbbbbbbbbb........af....FFFF",
"FFFFFFbbbbbbbbbb.b....ff..FFFFFF",
"FFFFFFFFbbbbbbbb.....afCaFFFFFFF",
"FFFFFFFFFFbbbbbbb....fCfCFFFFFFF",
"FFFFFFFFFFFFbbbbb.bbFCfCfFFFFFFF",
"FFFFFFFFFFFFFFbbbbFFFfCfCFFFFFFF",
"FFFFFFFFFFFFFFFbbFFFFCfCfFFFFFFF",
"FFFFFFFFFFFFFFFFFFFFFfCfFFFFFFFF",
"FFFFFFFFFFFFFFFFFFFFFFFFFFFFFFFF",
"FFFFFFFFFFFFFFFFFFFFFFFFFFFFFFFF",
"FFFFFFFFFFFFFFFFFFFFFFFFFFFFFFFF"
};
