/* XPM */
static char *_xpm[]={
"16 16 7 1",
"  c black",
". c #333333333333",
"o c #ffffffff0000",
"O c #999999999999",
"a c #808080808080",
"b c #cccc99990000",
"c c none",
"cccccccccccccccc",
"cccccccccccccccc",
"ccccccc..ccccccc",
"cccc . ....ccccc",
"cc ... oo     cc",
". .  . . o      ",
"cc .  .   o   cc",
"ccc a      o.ccc",
"cc...Oa  a.o ccc",
"cc.....Oa  o  cc",
"ccc....    o ccc",
"ccccc.    obcccc",
"ccccccc  cbocccc",
"ccccccccccobcccc",
"ccccccccccbccccc",
"cccccccccccccccc"
};
