/* XPM */
static char * colour_xpm[] = {
"16 16 3 1",
" 	s Bottom c black",
".	s None	 c None",
"X	s Top	 c white",
"                ",
" ..............X",
" ..............X",
" ..............X",
" ..............X",
" ..............X",
" ..............X",
" ..............X",
" ..............X",
" ..............X",
" ..............X",
" ..............X",
" ..............X",
" ..............X",
" ..............X",
" XXXXXXXXXXXXXXX"};
