/* XPM */
static char *_xpm[]={
"16 16 12 1",
"o c #cccccccc9999",
"b c #333333333333",
"d c #ffff00000000",
"n c #999999999999",
"p c #cccccccccccc",
"q c #000033339999",
"r c #cccc00000000",
"t c #666633339999",
"u c #00000000ffff",
"y c #ffffafafafaf",
"C c #cccc99990000",
"F c none",
"CoCoCoCoCoCoCoCo",
"oFFFFFFyyyyyyyyC",
"CFFFFFFyddddddto",
"oFFFFFFyddddddrC",
"CFFFFFFyddddddto",
"oFFFFFFyrtrtrtrC",
"CFFFFFFpnpnpnpno",
"oFFFFFFnuuuuuubC",
"CFFFFFFpuuuuuuqo",
"oFFFFFFnuuuuuubC",
"CFFFFFFpuuuuuuqo",
"oFFFFFFnuuuuuubC",
"CFFFFFFpuuuuuuqo",
"oFFFFFFnuuuuuubC",
"CFFFFFFpqbqbqbqo",
"oCoCoCoCoCoCoCoC"
};
