/* XPM */
static char *_xpm[]={
"32 32 19 1",
"  c white",
". c black",
"o c #cccccccc9999",
"O c #000066669999",
"a c #333333333333",
"b c #ffff00000000",
"c c #ffffffff0000",
"d c #00003333ffff",
"e c #cccc99996666",
"f c #666666666666",
"g c #999999999999",
"h c #cccccccccccc",
"i c #000033339999",
"j c #cccc00000000",
"k c #666633339999",
"l c #ffffafafafaf",
"m c #cccc33333333",
"n c #cccc66663333",
"p c none",
"pppppppppppppppppppppppppppppppp",
"ppppppppppppppppppllllllllllllpp",
"pppppppppppppppppplbbbbbbbbbbkpp",
"ppllllllllllllpppplbbbbbbbbbbjpp",
"pplbbbbbbbbbbjpppplbbbbbbbbbbkpp",
"pplbbbbbbbbbbkpppplbbbbbbbbbbjpp",
"pplbbbbbbbbbjkpppplbbbbbbbbbbkpp",
"pplbbbbbbbjj.....pjkkkkmkmkmkjpp",
"pplbbbbbbj..fffff..jllhghghghgpp",
"ppljkjkjk.ffb  b ff.jjiddddddapp",
"pphghghf.fb  bbbbbhg.kiidddddipp",
"ppgddidi.f bbbbbbbbbg.ididdddapp",
"pphdidi.fl bbbbbbbbhg.iidddddipp",
"ppgddi.fi bbbbbbbbbbbg.diddddapp",
"pphdii.fi jkjkjkjkjkhg.idddddipp",
"ppgddi.fhhghghghghghhg.iiddddapp",
"pphdii.fi ddddddddddhg.idddddipp",
"ppgddi.fi ddddddddddhg.iiddddapp",
"pphdidi.f ddddddddddg.iidddddipp",
"ppgdddi.fO ddddddddhg.ididdddapp",
"pphddidi.gd ddddddhg.noididddipp",
"ppgdddiii.ggdhdhdgg.n coididdapp",
"pphdddddii..ggggg..nno coididipp",
"ppgdddddiifi.....iiafno coidiapp",
"pphddddddigdiiiiiidianeo coaaipp",
"ppgiaiaiaihidididiidiafno copppp",
"ppppppppppgddddddddidaaneo coppp",
"pppppppppphdddddddddiapafno cnpp",
"ppppppppppgddddddddddappaneo fpp",
"pppppppppphddddddddddapppafnfppp",
"ppppppppppgiaiaiaiaiaippppaapppp",
"pppppppppppppppppppppppppppppppp"
};
