/* XPM */
static char *_xpm[]={
"16 16 10 1",
". c #333333333333",
"o c #ffff00000000",
"O c #999999999999",
"a c #cccccccccccc",
"b c #000033339999",
"c c #cccc00000000",
"d c #666633339999",
"e c #00000000ffff",
"f c #ffffafafafaf",
"h c none",
"hhhhhhhhhhhhhhhh",
"hhhhffffffffhhhh",
"hhhhfoooooodhhhh",
"hhhhfoooooochhhh",
"hhhhfoooooodhhhh",
"hhhhfcdcdcdchhhh",
"hhhhOaOaOaOahhhh",
"hhhhaeeeeee.hhhh",
"hhhhOeeeeeebhhhh",
"hhhhaeeeeee.hhhh",
"hhhhOeeeeeebhhhh",
"hhhhaeeeeee.hhhh",
"hhhhOeeeeeebhhhh",
"hhhhaeeeeee.hhhh",
"hhhhOb.b.b.bhhhh",
"hhhhhhhhhhhhhhhh"
};
