/* XPM */
static char *_xpm[]={
"32 32 14 1",
"b c #333333333333",
"d c #ffff00000000",
"f c #ffffffff0000",
"i c #00003333ffff",
"m c #666666666666",
"n c #999999999999",
"p c #cccccccccccc",
"q c #000033339999",
"r c #cccc00000000",
"t c #666633339999",
"y c #ffffafafafaf",
"z c #ffffc8c80000",
"C c #cccc99990000",
"F c none",
"FFFFFFFFFFFFFFFFFFFFFFFFFFFFFFFF",
"FFFFFFFFFFFFFFFFFFFFFFFFFFFFFFFF",
"FFtFFFFttFFFFttFFFFFFFFFFFFFFFFF",
"FtftFFtffbrrtffbryyyyyFFFFFFFFFF",
"tffbFtfbtfbtfbtfbrdddtFFFFFFFFFF",
"FtftFFtttfbrrrtftrdddrFFFFFFFFFF",
"FtfbFFtffbrrtffbtddddtFFFFFFFFFF",
"FtftFtfbttrrrttfbrdddrFFFFFFFFFF",
"FtfbFtfbttrtfttftrdddtFFFFFFFFFF",
"tfffttfffftttffbtrtrtrFFFFFFFFFF",
"FtbtbtbtbtbttbttnnpnpqFfFFFFFFFF",
"FFFFFFFFFFnqqqqqqqiqibFfzFFFFFFF",
"FFFFFFFFFFmqqqqqqqqqqbFfzfFFFFFF",
"FFFFFftFftftfftffftfffffzzzFFFFF",
"FFFFFztFztztzztzzztzzzzzzzzfFFFF",
"FFFFFztFztztzztzzztzzzzzzzzzzFFF",
"FFFFFztFztztzztzzztzzzzzzzzzbFFF",
"FFFFFztFztztzztzzztzzzzzzzztFFFF",
"FFFFFtbFtbtbttbtttbtttbCzzbFFFFF",
"FFFFFFFFFFmqqqqqqqqqqbFfztFFFFFF",
"FFFFFFFFFFpqiqiqiqiqibFfbFFFFFFF",
"FFFFFFFFFFniiiiiiiiqqbFtFFFFFFFF",
"FFFFFFFFFFpiiiiiiiiqtftFFFFFFFFF",
"FFFFFFFFFFniiiiqqqqqtfbFFFFFqqFF",
"FFFFFFFFFFpiiiqtfftqtffftFFtffbF",
"FFFFFFFFFFniiqtfbtfttfbtfttfbtfb",
"FFFFFFFFFFpiiiqtfffbtfttfbtftFbt",
"FFFFFFFFFFniiqtfbtfttfbtfttfbFFF",
"FFFFFFFFFFpiiqtfttfbtfttfbtfttfb",
"FFFFFFFFFFnqbbbtfffttfffbtttffbt",
"FFFFFFFFFFFFFFFtbtbttbtbtFFtbttF",
"FFFFFFFFFFFFFFFFFFFFFFFFFFFFFFFF"
};
