/* XPM */
static char *_xpm[]={
"20 20 10 1",
"  c white",
". c black",
"O c #000066669999",
"b c #333333333333",
"m c #666666666666",
"n c #999999999999",
"p c #cccccccccccc",
"q c #000033339999",
"x c #808080808080",
"F c none",
"FFFFFFFFFFFFFFFFFFFF",
"FFFFFFFFFFFFFFFFFFFF",
"FFFFFFFFFFFFFFFFFFFF",
"FFFFFFOOOFFFFFFFFFFF",
"FFFFFOOOqqFF FFFFFFF",
"FFFFOOOF.qqF nFFFFFF",
"FFFFOOFFF.qF pnFFFFF",
"FFOOOOOO     ppnFFFF",
"FFOOOOOnppppppppnFFF",
"FFFOOOnnnppppppppnFF",
"FFFOOOnnpppppppppxFF",
"mmmmmmmnppppppppbFFF",
"mOOOOq.mbxbxbppxFFFF",
"m  pnn.FF..F pbFFFFF",
"F. pn.FF.qqF xFFFFFF",
"FF.p..qqqqFF FFFFFFF",
"Fm pn.OOOFFFFFFFFFFF",
"m  pnn.FFFFFFFFFFFFF",
"mOOOOq.FFFFFFFFFFFFF",
"m......FFFFFFFFFFFFF"
};
