/* XPM */
static char *_xpm[]={
"20 20 15 1",
"  c white",
". c black",
"o c #cccccccc9999",
"O c #333333333333",
"a c #ffff00000000",
"b c #0000ffffffff",
"c c #0000ffff0000",
"d c #000066660000",
"e c #666666666666",
"f c #999999999999",
"g c #cccccccccccc",
"h c #000033339999",
"i c #cccc00000000",
"j c #000099990000",
"k c none",
"kkkkkkkkkkkkkkkkkkkk",
"kkkkkkkkkkkkkkkkkkkk",
"kkkkkkkkkcokkkkkkkkk",
"kkkkkkkkojjjkkkkkkkk",
"kkkkkkkcjjjjjkkkkkkk",
"kkkkkkojjjjjjjkkkkkk",
"kkkkkcjjjjjjjjjkkkkk",
"kkkkodOdjjjjdOdjkkkk",
"kkkkkkkojjjjOkkkkkkk",
"kkkkkiicjjjjd.ikkkkk",
"kkkkii.ojjjdeeeeeeek",
"kkkai.kcjjjdebbbbh.k",
"kkkaakkajdjde  gff.k",
"kkkaaakaadddde gf.kk",
"kkkkaaaaaaadOkeg.kkk",
"kkkkkaaaaaaake gf.kk",
"kkkkkkkaaaake  gff.k",
"kkkkkkkaakkkebbbbh.k",
"kkkkkkkkkkkke......k",
"kkkkkkkkkkkkkkkkkkkk"
};
