/* XPM */
static char *_xpm[]={
"20 20 8 1",
"  c white",
". c black",
"O c #000066669999",
"m c #666666666666",
"n c #999999999999",
"p c #cccccccccccc",
"q c #000033339999",
"F c none",
"FFFFFFFFFFFFFFFFFFFF",
"FFFFFFFFFFFFFFFFFFFF",
"FFFFFFFFF  FFFFFFFFF",
"FFFFFFFF ppnFFFFFFFF",
"FFFFFFF ppppnFFFFFFF",
"FFFFFF ppppppnFFFFFF",
"FFFFF ppppppppnFFFFF",
"FFFF nmnppppnmnmFFFF",
"FFFFFFF ppppmFFFFFFF",
"FFFFFqq pppnn.qFFFFF",
"FFFFqq. pppnmmmmmmmF",
"FFFOq.F pppnmOOOOq.F",
"FFFOOFFOpnpnm  pnn.F",
"FFFOOOFOOnnpmm pn.FF",
"FFFFOOOOOOOnmFmp.FFF",
"FFFFFOOOOOOOnm pn.FF",
"FFFFFFFOOOOFm  pnn.F",
"FFFFFFFOOFFFmOOOOq.F",
"FFFFFFFFFFFFm......F",
"FFFFFFFFFFFFFFFFFFFF"
};
