/* XPM */
static char *_xpm[]={
"20 20 10 1",
"  c white",
". c black",
"O c #000066669999",
"b c #333333333333",
"m c #666666666666",
"n c #999999999999",
"p c #cccccccccccc",
"q c #000033339999",
"x c #808080808080",
"F c none",
"FFFFFFFFFFFFFFFFFFFF",
"FFFFFFFFFFFFFFFFFFFF",
"FFFFFFFFFFFFFFFFFFFF",
"FFFFFFFFFFFFFFFFFFFF",
"FFFFFFFFFFFF FFFFFFF",
"FFFFFFFFFFFF nFFFFFF",
"FFFFFFFFFFFF pnFFFFF",
"FFFF         ppnFFFF",
"FFFF pppppppppppnFFF",
"FFFF ppppppppppppnFF",
"FFFFpnnppppppppppxFF",
"mmmmmmmnppppppppbFFF",
"mOOOOq.bbxbxbppxFFFF",
"m  pnn.FFFFF pbFFFFF",
"F. pn.FFFFFF xFFFFFF",
"FF.p.FFFFFFF FFFFFFF",
"Fm pn.FFFFFFFFFFFFFF",
"m  pnn.FFFFFFFFFFFFF",
"mOOOOq.FFFFFFFFFFFFF",
"m......FFFFFFFFFFFFF"
};
