/* XPM */
static char *_xpm[]={
"20 20 14 1",
"  c white",
". c black",
"o c #cccccccc9999",
"O c #999999996666",
"a c #333333333333",
"b c #0000ffffffff",
"c c #0000ffff0000",
"d c #000066660000",
"e c #666666666666",
"f c #999999999999",
"g c #cccccccccccc",
"h c #000033339999",
"i c #000099990000",
"j c none",
"jjjjjjjjjjjjjjjjjjjj",
"jjjjjjjjjjjjjjjjjjjj",
"jjjjjjjjjjjjjjjjjjjj",
"jjjjjjjjjjjjjjjjjjjj",
"jjjjjjjjjjjjojjjjjjj",
"jjjjjjjjjjjjcijjjjjj",
"jjjjjjjjjjjjoiijjjjj",
"jjjjcocococociiijjjj",
"jjjjoiiiiiiiiiiiijjj",
"jjjjciiiiiiiiiiiiijj",
"jjjjOddiiiiiiiiiidjj",
"eeeeeeediiiiiiiiajjj",
"ebbbbh.dadadaiidjjjj",
"e  gff.jjjjjoiajjjjj",
"j. gf.jjjjjjcdjjjjjj",
"jj.g.jjjjjjjojjjjjjj",
"je gf.jjjjjjjjjjjjjj",
"e  gff.jjjjjjjjjjjjj",
"ebbbbh.jjjjjjjjjjjjj",
"e......jjjjjjjjjjjjj"
};
