/* XPM */
static char *_xpm[]={
"20 20 13 1",
"  c white",
". c black",
"o c #cccccccc9999",
"O c #333333333333",
"a c #0000ffffffff",
"b c #0000ffff0000",
"c c #000066660000",
"d c #666666666666",
"e c #999999999999",
"f c #cccccccccccc",
"g c #000033339999",
"h c #000099990000",
"i c none",
"iiiiiiiiiiiiiiiiiiii",
"iiiiiiiiiiiiiiiiiiii",
"iiiiiiiiiboiiiiiiiii",
"iiiiiiiiohhhiiiiiiii",
"iiiiiiibhhhhhiiiiiii",
"iiiiiiohhhhhhhiiiiii",
"iiiiibhhhhhhhhhiiiii",
"iiiiocOchhhhcOcOiiii",
"iiiiiiiohhhhOiiiiiii",
"iiiiiiibhhhcciiiiiii",
"iiiiiiiohhhcdddddddi",
"iiiiiiibhhhcdaaaag.i",
"iiiiiiiohhhcd  fee.i",
"iiiiiiibhhhhc. fe.ii",
"iiiiiiiohhhcOi.f.iii",
"iiiiiiibcOcOcd fe.ii",
"iiiiiiiiiiiid  fee.i",
"iiiiiiiiiiiidaaaag.i",
"iiiiiiiiiiiid......i",
"iiiiiiiiiiiiiiiiiiii"
};
