/* XPM */
static char *_xpm[]={
"20 20 13 1",
". c black",
"o c #cccccccc9999",
"a c #999999996666",
"b c #333333333333",
"d c #ffff00000000",
"f c #ffffffff0000",
"m c #666666666666",
"p c #cccccccccccc",
"r c #cccc00000000",
"t c #666633339999",
"y c #ffffafafafaf",
"C c #cccc99990000",
"F c none",
"FFFFFFFFFFFFFFFFFFFF",
"FFFFFFFFFFFFFFFFFFFF",
"FFFFFFooooooooFFFFFF",
"FFFFFoffffffCFFFFFFF",
"FFFFpofffffCaCFFCCCF",
"FFFpofffffCbamaCofbF",
"FFCaoffffooooomCfotF",
"FCaoffffffffCbCfobFF",
"FCaoCCCCfffCaaCoftFF",
"FCoaabaoffCFabaaabFF",
"FFtbbaoffCFyyyyyyyyy",
"FCCFFoffCFFrdddddddt",
"CofbbofCaCaardddddtp",
"CfoaofCaaofbrdddddt.",
"FtbofCbaofbt.rdddt.F",
"FFofCFFCfoftFrdddtFF",
"FFoCFFFFCftbFFrdtFFF",
"FFoFFFFFFtFFFFrdtFFF",
"FFFFFFFFFFFFFFFrFFFF",
"FFFFFFFFFFFFFFFrFFFF"
};
