/* XPM */
static char *_xpm[]={
"20 20 14 1",
". c black",
"o c #cccccccc9999",
"a c #999999996666",
"b c #333333333333",
"d c #ffff00000000",
"f c #ffffffff0000",
"l c #cccc99996666",
"m c #666666666666",
"n c #999999999999",
"p c #cccccccccccc",
"r c #cccc00000000",
"t c #666633339999",
"y c #ffffafafafaf",
"F c none",
"FFFFFFFFFFFFFFFFFFFF",
"FFFFFFFFFFFFFFFFFFFF",
"FFFFFFFFFFFFFFFFFFFF",
"FFFFFFFFFFFFFFFFFFFF",
"FFFFllllFlllllFFlllF",
"FFFlofoalofoooalofbF",
"FFlofbblofbbtomlfotF",
"FlofbFlofbFFlalfobFF",
"FlfofalfotFFlaloftFF",
"FlofoaloonFFabaaabFF",
"FFtbblofbFFyyyyyyyyy",
"FllpplfobFFrdddddddt",
"lofaalofllaardddddtF",
"lfofoalofofbrdddddt.",
"Ftbtbbblofbt.rdddt.F",
"FFFFFFFlfofbFrdddtFF",
"FFFFFFFFlftbFFrdtFFF",
"FFFFFFFFFtmFFFrdtFFF",
"FFFFFFFFFFFFFFFrFFFF",
"FFFFFFFFFFFFFFFrFFFF"
};
