/* XPM */
static char *_xpm[]={
"20 20 8 1",
"o c #cccccccc9999",
"d c #ffff00000000",
"f c #ffffffff0000",
"r c #cccc00000000",
"t c #666633339999",
"y c #ffffafafafaf",
"C c #cccc99990000",
"F c none",
"FFFFFFFFFFFFFFFFFFFF",
"FFFFFFFFFFFFFFFFFFFF",
"FFFFFFoooooooFFFFFFF",
"FFFFFofffffCFFFFFFFF",
"FFFFFoffffCFFFFFFFFF",
"FFFFoffffCFFFFFFFFFF",
"FFFFofffooooooFFFFFF",
"FFFoffffffffCFFFFFFF",
"FFFoCCCCfffCFFFFFFFF",
"FFFFFFFoffCFFFFFFFFF",
"FFFFFFoffCFyyyyyyyyy",
"FFFFFoffCFFrdddddddt",
"FFFFFofCFFFFrdddddtF",
"FFFFofCFFFFFrdddddtF",
"FFFofCFFFFFFFrdddtFF",
"FFofCFFFFFFFFrdddtFF",
"FFoCFFFFFFFFFFrdtFFF",
"FFoFFFFFFFFFFFrdtFFF",
"FFFFFFFFFFFFFFFrFFFF",
"FFFFFFFFFFFFFFFrFFFF"
};
