/* XPM */
static char *_xpm[]={
"20 20 6 1",
"b c #333333333333",
"d c #ffff00000000",
"r c #cccc00000000",
"t c #666633339999",
"y c #ffffafafafaf",
"F c none",
"FFFFFFFFFFFFFFFFFFFF",
"FFFFFFFFFFFFFFFFFFFF",
"FFFFFFFFFFFFFFFFFFFF",
"FFFFFFFFFFFFFFFFFFFF",
"FFFFFFFFFFFFFFFFFFFF",
"FFFFFFFFFFFFFFFFFFFF",
"FFFFFyyyyyyyyyyFFFFF",
"FFFFFrddddddddbFFFFF",
"FFFFFFrddddddtFFFFFF",
"FFFFFFrddddddbFFFFFF",
"FFFFFFFrddddtFFFFFFF",
"FFFFFFFrddddbFFFFFFF",
"FFFFFFFFrddtFFFFFFFF",
"FFFFFFFFrddbFFFFFFFF",
"FFFFFFFFFrtFFFFFFFFF",
"FFFFFFFFFrbFFFFFFFFF",
"FFFFFFFFFFFFFFFFFFFF",
"FFFFFFFFFFFFFFFFFFFF",
"FFFFFFFFFFFFFFFFFFFF",
"FFFFFFFFFFFFFFFFFFFF"
};
