/* XPM */
static char * descending_xpm[] = {
"16 16 3 1",
" 	s None		c None",
".	s iconColor2 	c white",
"X	s iconColor1 	c black",
"     ......     ",
"     .XXXX.     ",
"     .XXXX.     ",
"     .XXXX.     ",
"     .XXXX.     ",
"     .XXXX.     ",
"     .XXXX.     ",
"     .XXXX.     ",
"  ....XXXX....  ",
"  .XXXXXXXXXX.  ",
"  .XXXXXXXXXX.  ",
"   .XXXXXXXX.   ",
"    .XXXXXX.    ",
"     .XXXX.     ",
"      .XX.      ",
"       ..       "};
