/* XPM */
static char *_xpm[]={
"20 20 8 1",
"  c #333333333333",
". c #ffff00000000",
"o c #cccc99996666",
"O c #cccc00000000",
"a c #666633339999",
"b c #ffffafafafaf",
"c c #cccc33333333",
"d c none",
"dddddddddddddddddddd",
"dddddddddddddddddddd",
"dddddddddddddddddddd",
"dddddddddbbddddddddd",
"ddddddddb..cdddddddd",
"ddddddddb..cdddddddd",
"dddddddb....cddddddd",
"dddddddb.cc.cddddddd",
"ddddddb..cb.Ocdddddd",
"ddddddb.addocadddddd",
"dddddb..cddbbbbbbbbb",
"dddddb.adddO.......a",
"ddddb..cddddO.....ad",
"ddddb.adddddO.....ad",
"dddb..bbbbbooO...add",
"ddd.........cO...add",
"dddcacacacacaaO.a dd",
"ddddddddddddddO.addd",
"dddddddddddddddOdddd",
"dddddddddddddddOdddd"
};
