/* XPM */
static char * dock_empty_xpm[] = {
"32 32 2 1",
" 	s None		c None",
".	s iconColor1    c black",
"                                ",
" ..  ..  ..  ..  ..  ..  ..  .. ",
" ..  ..  ..  ..  ..  ..  ..  .. ",
"                                ",
"                                ",
" ..                          .. ",
" ..                          .. ",
"                                ",
"                                ",
" ..                          .. ",
" ..                          .. ",
"                                ",
"                                ",
" ..                          .. ",
" ..                          .. ",
"                                ",
"                                ",
" ..                          .. ",
" ..                          .. ",
"                                ",
"                                ",
" ..                          .. ",
" ..                          .. ",
"                                ",
"                                ",
" ..                          .. ",
" ..                          .. ",
"                                ",
"                                ",
" ..  ..  ..  ..  ..  ..  ..  .. ",
" ..  ..  ..  ..  ..  ..  ..  .. ",
"                                "};
