/* XPM */
static char *_xpm[]={
"20 20 9 1",
". c black",
"o c #cccccccc9999",
"b c #333333333333",
"d c #ffff00000000",
"h c #0000ffff0000",
"j c #000066660000",
"r c #cccc00000000",
"s c #000099990000",
"F c none",
"FFFFFFFFFFFFFFFFFFFF",
"FFFFFFFFFFFFFFFFFFFF",
"FFFFFFFFFhoFFFFFFFFF",
"FFFFFFFFosssFFFFFFFF",
"FFFFFFFhsssssFFFFFFF",
"FFFFFFosssssssFFFFFF",
"FFFFFhsssssssssFFFFF",
"FFFFojbjssssjbjbFFFF",
"FFFFFFFossssbFFFFFFF",
"FFFFFrrhssssj.rFFFFF",
"FFFFrr.ossssb.rrFFFF",
"FFFdr.FhssssjF.rdFFF",
"FFFddFFdsjssbFFrdFFF",
"FFFdddFddjjsjFFrdFFF",
"FFFFdddddddjbFddFFFF",
"FFFFFdddddddjdFFFFFF",
"FFFFFFFddddFFFFFFFFF",
"FFFFFFFddFFFFFFFFFFF",
"FFFFFFFFFFFFFFFFFFFF",
"FFFFFFFFFFFFFFFFFFFF"
};
