/* XPM */
static char *_xpm[]={
"20 20 9 1",
"  c white",
". c black",
"O c #000066669999",
"b c #333333333333",
"n c #999999999999",
"p c #cccccccccccc",
"q c #000033339999",
"x c #808080808080",
"F c none",
"FFFFFFFFFFFFFFFFFFFF",
"FFFFFFFFFFFFFFFFFFFF",
"FFFFFFFFF  FFFFFFFFF",
"FFFFFFFF ppnFFFFFFFF",
"FFFFFFF ppppnFFFFFFF",
"FFFFFF ppppppnFFFFFF",
"FFFFF ppppppppnFFFFF",
"FFFF xbxppppxbxnFFFF",
"FFFFFFF ppppbFFFFFFF",
"FFFFFqq ppppx.qFFFFF",
"FFFFqq. ppppb.qqFFFF",
"FFFOqqF ppppxF.qOFFF",
"FFFOOFFOpnppbFFqOFFF",
"FFFOOOFOOnnpxFFqOFFF",
"FFFFOOOOOOOnbFOOFFFF",
"FFFFFOOOOOOOxOFFFFFF",
"FFFFFFFOOOOFFFFFFFFF",
"FFFFFFFOOFFFFFFFFFFF",
"FFFFFFFFFFFFFFFFFFFF",
"FFFFFFFFFFFFFFFFFFFF"
};
