/* XPM */
static char *_xpm[]={
"20 20 6 1",
"  c white",
"b c #333333333333",
"n c #999999999999",
"p c #cccccccccccc",
"x c #808080808080",
"F c none",
"FFFFFFFFFFFFFFFFFFFF",
"FFFFFFFFFFFFFFFFFFFF",
"FFFFFFFFF  FFFFFFFFF",
"FFFFFFFF ppnFFFFFFFF",
"FFFFFFF ppppnFFFFFFF",
"FFFFFF ppppppnFFFFFF",
"FFFFF ppppppppnFFFFF",
"FFFF xbxppppxbxbFFFF",
"FFFFFFF ppppbFFFFFFF",
"FFFFFFF ppppxFFFFFFF",
"FFFFFFF ppppbFFFFFFF",
"FFFFFFF ppppxFFFFFFF",
"FFFFFFF ppppbFFFFFFF",
"FFFFFFF ppppxFFFFFFF",
"FFFFFFF ppppbFFFFFFF",
"FFFFFFF xbxbxFFFFFFF",
"FFFFFFFFFFFFFFFFFFFF",
"FFFFFFFFFFFFFFFFFFFF",
"FFFFFFFFFFFFFFFFFFFF",
"FFFFFFFFFFFFFFFFFFFF"
};
