/* XPM */
static char *_xpm[]={
"16 16 4 1",
"f c #ffffffff0000",
"t c #666633339999",
"z c #ffffc8c80000",
"F c none",
"FFFFFFFFFFFFFFFF",
"FFFFFFFFFFFFFFFF",
"FFFFFFFFFFFFFFFF",
"FFFFFFFFFFFFFFFF",
"FFFzzzzzzzzzFFFF",
"FFFzfffffffftFFF",
"FFFFtttttttttFFF",
"FFFFFFFFFFFFFFFF",
"FFFFFFFFFFFFFFFF",
"FFFzzzzzzzzzFFFF",
"FFFzfffffffftFFF",
"FFFFtttttttttFFF",
"FFFFFFFFFFFFFFFF",
"FFFFFFFFFFFFFFFF",
"FFFFFFFFFFFFFFFF",
"FFFFFFFFFFFFFFFF"
};
