/* XPM */
static char *_xpm[]={
"16 16 6 1",
"  c white",
". c black",
"b c #333333333333",
"n c #999999999999",
"p c #cccccccccccc",
"F c none",
"FFFFFFFFFFFFFFFF",
"...........nnnnn",
".          nppp.",
".          n....",
".          nn.n.",
".          np.p.",
".          nppp.",
".nnnnnnnnnnn....",
"nnnnnnnnnnn.FFFF",
"n          .FFFF",
"n ppppppppp.FFFF",
"n p.......p.FFFF",
"n ppppppppp.FFFF",
"n p.......p.FFFF",
"n ppppppppp.FFFF",
"nbbbbbbbbbbbFFFF"
};
