/* XPM */
static char *_xpm[]={
"16 16 6 1",
"  c white",
". c black",
"b c #333333333333",
"n c #999999999999",
"p c #cccccccccccc",
"F c none",
"FFFFFFFFFFFFFFFF",
"FFFFFFFFFFFFFFFF",
"FFFFFFFFFFFFFFFF",
"bbbbbbbbbbbbbbbb",
"b              n",
"b  p..p   p..p p",
"b  .  .   .  . n",
"b  .  .   .  . p",
"b  .  .   .  . n",
"b  .  .   .  . p",
"b  .  . . .  . n",
"b  p..p . p..p p",
"b              n",
"bpnpnpnpnpnpnpnp",
"FFFFFFFFFFFFFFFF",
"FFFFFFFFFFFFFFFF"
};
