/* XPM */
static char * groups_xpm[] = {
/* width height ncolors cpp [x_hot y_hot] */
"27 24 8 1 0 0",
/* colors */
" 	s none		m none	c none",
".	s iconColor1	m black	c black",
"X	s iconColor2	m white	c white",
"o	s iconColor6	m white	c yellow",
"O	s iconColor7	m white	c cyan",
"+	s iconColor3	m black	c red",
"@	s iconColor5	m black	c blue",
"#	s iconGray6	m black	c #636363636363",
/* pixels */
"           ....            ",
"          .XXXX.           ",
"         .Xooooo.          ",
"        ..Xooooo.          ",
"    .... Xooooooo. ....    ",
"   .oooo.Xooooooo .OOOO.   ",
"  .o++++@.ooooooo.O@@@@#.  ",
"  .o++++@.ooooooo.O@@@@#.  ",
" .o++++++@.ooooo.O@@@@@@#. ",
" .o++++++@.ooooo.O@@@@@@#. ",
" .o++++++@.ooooo.O@@@@@@#. ",
" .o++++++@.ooooo.O@@@@@@#. ",
"  .o+++++. XooX. .O@@@@@.  ",
"  .o++++@.XooooX..O@@@@#.  ",
"   .o++@.XooooooXX.O@@#.   ",
"    .++. XoooooooX .@@.    ",
"   .o++o.XoooooooX.O@@O.   ",
" ..o++++o..ooooo..O@@@@O.. ",
".oo++++++o@.ooo.OO@@@@@@O#.",
".o++++++++@.ooo.O@@@@@@@@#.",
".o++++++++@.ooo.O@@@@@@@@#.",
".o++++++++@.ooo.O@@@@@@@@#.",
".o@@@@@@@@@.+++.O#########.",
"..........................."};
