/* XPM */
static char *_xpm[]={
"16 16 16 1",
"  c black",
". c #cccccccc9999",
"o c #999999996666",
"O c #333333333333",
"a c #ffff00000000",
"b c #ffffffff0000",
"c c #00003333ffff",
"d c #000066660000",
"e c #cccc99996666",
"g c #000033339999",
"h c #cccc00000000",
"i c #000099990000",
"j c #00000000ffff",
"k c #ffffafafafaf",
"l c #cccc99990000",
"m c none",
"mmmmmmmmmmmmmmmm",
"mmmmmmm   mmmmmm",
"mmmmmm     mmmmm",
"mm   olbbhOmmmmm",
"m     ..bh    mm",
"mobbhOoblo     m",
"m.bbho.lbo..b.Om",
"m.bbeOobeO..beOm",
"m.beeod..O.bebOm",
"mm..Oddiid.bbeom",
"mcbbcgdiidd..Omm",
"jjjjccgdidkbboam",
"jjjjjcj dkaaaaha",
"jjjcccggkaaaaaah",
"jjccccg kaaaaaah",
"mjcggggmmaaaahhm"
};
