/* XPM */
static char * groups_closed_xpm[] = {
/* width height ncolors cpp [x_hot y_hot] */
"27 24 8 1 0 0",
/* colors */
" 	s none		m none	c none",
".	s iconColor1	m black	c black",
"X	s iconColor2	m white	c white",
"o	s iconGray1	m white	c #dededededede",
"O	s iconGray2	m white	c #bdbdbdbdbdbd",
"+	s iconGray6	m black	c #636363636363",
"@	s iconGray4	m white	c #949494949494",
"#	s iconGray7	m black	c #424242424242",
/* pixels */
"           ....            ",
"          .XXXX.           ",
"         .Xooooo.          ",
"        ..Xooooo.          ",
"    .... Xooooooo. ....    ",
"   .OOOO.Xooooooo .oooo.   ",
"  .O++++@.ooooooo.o@@@@#.  ",
"  .O++++@.ooooooo.o@@@@#.  ",
" .O++++++@.ooooo.o@@@@@@#. ",
" .O++++++@.ooooo.o@@@@@@#. ",
" .O++++++@.ooooo.o@@@@@@#. ",
" .O++++++@.ooooo.o@@@@@@#. ",
"  .O+++++. XooX. .o@@@@@.  ",
"  .O++++@.XooooX..o@@@@#.  ",
"   .O++@.XooooooXX.o@@#.   ",
"    .++. XoooooooX .@@.    ",
"   .O++O.XoooooooX.o@@o.   ",
" ..O++++O..ooooo..o@@@@o.. ",
".OO++++++O#.ooo.oo@@@@@@o#.",
".O++++++++#.ooo.o@@@@@@@@#.",
".O++++++++#.ooo.o@@@@@@@@#.",
".O++++++++#.ooo.o@@@@@@@@#.",
".O#########.ooo.o#########.",
"..........................."};
