/* XPM */
static char *_xpm[]={
"16 16 7 1",
"  c white",
". c black",
"b c #333333333333",
"m c #666666666666",
"n c #999999999999",
"p c #cccccccccccc",
"F c none",
"FFFFFFFFFFFFFFFF",
"FFFFFFFFFFFFFFFF",
"FFFFFFFFFFFFFFFF",
"bbbbbbbbbbbbbbbb",
"b              n",
"b  .  p..p p..pp",
"b ..  .  . .  .n",
"b  .  p .p p  .p",
"b  .   .p   .. n",
"b  .  mp   p  .p",
"b  .  .    .  .n",
"b ... .... p..pp",
"b              n",
"bpnpnpnpnpnpnpnp",
"FFFFFFFFFFFFFFFF",
"FFFFFFFFFFFFFFFF"
};
