/* XPM */
static char *_xpm[]={
"20 20 9 1",
". c black",
"o c #cccccccc9999",
"b c #333333333333",
"d c #ffff00000000",
"h c #0000ffff0000",
"j c #000066660000",
"r c #cccc00000000",
"s c #000099990000",
"F c none",
"FFFFFFFFFFFFFFFFFFFF",
"FFFFFFFFFFFFFFFFFFFF",
"FFFFFFFFFFFFFFFFFFFF",
"FFFFFFdddFFFFFFFFFFF",
"FFFFFdddrrFFhFFFFFFF",
"FFFFdddF.rrFosFFFFFF",
"FFFFddFFF.rFhssFFFFF",
"FFddddddohohosssFFFF",
"FFdddddssssssssssFFF",
"FFFdddjjssssssssssFF",
"FFFdddjssssssssssjFF",
"FFFFdjjsssssssssbFFF",
"FFFFFjbjbjbjbssjFFFF",
"FFFFdFFFF..FosbFFFFF",
"FFFFFdFF.rrFhjFFFFFF",
"FFFFFdrrrrFFoFFFFFFF",
"FFFFFFdddFFFFFFFFFFF",
"FFFFFFFFFFFFFFFFFFFF",
"FFFFFFFFFFFFFFFFFFFF",
"FFFFFFFFFFFFFFFFFFFF"
};
