/* XPM */
static char *_xpm[]={
"20 20 9 1",
"  c white",
". c black",
"O c #000066669999",
"b c #333333333333",
"n c #999999999999",
"p c #cccccccccccc",
"q c #000033339999",
"x c #808080808080",
"F c none",
"FFFFFFFFFFFFFFFFFFFF",
"FFFFFFFFFFFFFFFFFFFF",
"FFFFFFFFFFFFFFFFFFFF",
"FFFFFFOOOFFFFFFFFFFF",
"FFFFFOOOqqFF FFFFFFF",
"FFFFOOOF.qqF nFFFFFF",
"FFFFOOFFF.qF pnFFFFF",
"FFOOOOOO     ppnFFFF",
"FFOOOOOpppppppppnFFF",
"FFFOOOnnpppppppppnFF",
"FFFOOOnppppppppppxFF",
"FFFFOnppppppppppbFFF",
"FFFFFxbxbxbxbppxFFFF",
"FFFFOFFFF..F pbFFFFF",
"FFFFFOFF.qqF xFFFFFF",
"FFFFFOqqqqFF FFFFFFF",
"FFFFFFOOOFFFFFFFFFFF",
"FFFFFFFFFFFFFFFFFFFF",
"FFFFFFFFFFFFFFFFFFFF",
"FFFFFFFFFFFFFFFFFFFF"
};
