/* XPM */
static char *_xpm[]={
"20 20 6 1",
"  c white",
"b c #333333333333",
"n c #999999999999",
"p c #cccccccccccc",
"x c #808080808080",
"F c none",
"FFFFFFFFFFFFFFFFFFFF",
"FFFFFFFFFFFFFFFFFFFF",
"FFFFFFFFFFFFFFFFFFFF",
"FFFFFFFFFFFFFFFFFFFF",
"FFFFFFFFFFFF FFFFFFF",
"FFFFFFFFFFFF nFFFFFF",
"FFFFFFFFFFFF pnFFFFF",
"FFFF         ppnFFFF",
"FFFF pppppppppppnFFF",
"FFFF ppppppppppppnFF",
"FFFF ppppppppppppxFF",
"FFFF pppppppppppbFFF",
"FFFF xbxbxbxbppxFFFF",
"FFFFFFFFFFFF pbFFFFF",
"FFFFFFFFFFFF xFFFFFF",
"FFFFFFFFFFFF FFFFFFF",
"FFFFFFFFFFFFFFFFFFFF",
"FFFFFFFFFFFFFFFFFFFF",
"FFFFFFFFFFFFFFFFFFFF",
"FFFFFFFFFFFFFFFFFFFF"
};
