/* XPM */
static char *_xpm[]={
"20 20 6 1",
"o c #cccccccc9999",
"b c #333333333333",
"h c #0000ffff0000",
"j c #000066660000",
"s c #000099990000",
"F c none",
"FFFFFFFFFFFFFFFFFFFF",
"FFFFFFFFFFFFFFFFFFFF",
"FFFFFFFFFFFFFFFFFFFF",
"FFFFFFFFFFFFFFFFFFFF",
"FFFFFFFFFFFFoFFFFFFF",
"FFFFFFFFFFFFhsFFFFFF",
"FFFFFFFFFFFFossFFFFF",
"FFFFhohohohohsssFFFF",
"FFFFossssssssssssFFF",
"FFFFhsssssssssssssFF",
"FFFFossssssssssssjFF",
"FFFFhsssssssssssbFFF",
"FFFFojbjbjbjbssjFFFF",
"FFFFFFFFFFFFosbFFFFF",
"FFFFFFFFFFFFhjFFFFFF",
"FFFFFFFFFFFFoFFFFFFF",
"FFFFFFFFFFFFFFFFFFFF",
"FFFFFFFFFFFFFFFFFFFF",
"FFFFFFFFFFFFFFFFFFFF",
"FFFFFFFFFFFFFFFFFFFF"
};
