/* XPM */
static char *_xpm[]={
"16 16 7 1",
"  c white",
". c black",
"o c #cccccccc9999",
"a c #999999996666",
"b c #333333333333",
"m c #666666666666",
"F c none",
"FFFFFFFFFFFFFFFF",
"FFFFFFFFFFFFFFFF",
"FFFFFFFFFFFFFFFF",
"FFmmmFFFFFFFFFFF",
"Fmo ommmmmmFFFFF",
"Fm o o o o bFFFF",
"Fmo o o o obFFFF",
"Fm o ommmmmmmmFF",
"Fmo omoaoaoaoa.F",
"Fm omoaoaoaoa.FF",
"Fmomoaoaoaoa.FFF",
"Fmmoaoaoaoa.FFFF",
"Fm.........FFFFF",
"FFFFFFFFFFFFFFFF",
"FFFFFFFFFFFFFFFF",
"FFFFFFFFFFFFFFFF"
};
