/* XPM */
static char * member_xpm[] = {
/* width height ncolors cpp [x_hot y_hot] */
"14 22 5 1 0 0",
/* colors */
" 	s none		m none	c none",
".	s iconColor1	m black	c black",
"X	s iconColor6	m white	c yellow",
"o	s iconColor4	m white	c green",
"O	s iconGray3	m white	c #adadadadadad",
/* pixels */
"     ....     ",
"    .XXXX.    ",
"   .XooooO.   ",
"   .XooooO.   ",
"  .XooooooO.  ",
"  .XooooooO.  ",
"  .XooooooO.  ",
"  .XooooooO.  ",
"   .Xooooo.   ",
"   .XooooO.   ",
"    .XooO.    ",
"     .oo.     ",
"    .XooX.    ",
"  ..XooooX..  ",
" .XXooooooXX. ",
".XooooooooooO.",
".XooooooooooO.",
".XooooooooooO.",
".XooooooooooO.",
".XooooooooooO.",
".XOOOOOOOOOOO.",
".............."};
