/* XPM */
static char * menu_main_disabled_xpm[] = {
"16 16 6 1",
"  s None	c none",
".		c #666666666666",
"X s iconColor9	c DarkKhaki",
"O s iconColor1	c black",
"o s iconColor2	c white",
"+		c yellow",
" .X.X.X.X.X.X.  ",
" XoooooooooooX  ",
" .o         X.  ",
" Xo O.O.O.O XX  ",
" .o         X.  ",
" Xo O.O.OOO XX  ",
" .o      O+OX.  ",
" Xo O.O.OO++OX  ",
" .o      O+++O  ",
" Xo O.O.OO++++O ",
" .o      O+++O  ",
" Xo O.O.OOOO+O  ",
" .o        O++O ",
" XoXXXXXXXXXO+O ",
" .X.X.X.X.X.XOO ",
"                "};
