/* XPM */
static char *_xpm[]={
"32 32 14 1",
"  c white",
". c black",
"o c #cccccccc9999",
"O c #333333333333",
"a c #ffff00000000",
"b c #ffff66663333",
"c c #ffffffff0000",
"d c #666666666666",
"e c #999999999999",
"f c #cccccccccccc",
"g c #cccc00000000",
"h c #666633339999",
"i c #cccc66663333",
"j c none",
"jjjjjjjjjjjjjjjjjjjjjjjjjjjjjjjj",
"jjjjjjjjjjjjjjjjeeeeeeeeeeeeeeee",
"jjjeeeeeeeeeeeede     fff      .",
"jjje           .e fffedddeffffe.",
"jjje fffffffffe.e fffed oOdfffe.",
"jjje f.......fe.e ffffedO odffe.",
"jjje fffffffffe.e fffffedooOefe.",
"jjje f.......fe.e ffffeabdOeddd.",
"jjje fffffffffe.e fffeabghed oO.",
"jjje f.......fe.e ffeabgheedoOd.",
"jjje fffffffffe.e feabgheffdOee.",
"jjje f.......fe.e eabgheffffefe.",
"jjjdfeeeeeeeeee.efabghefffffffe.",
"jjeeeeeeeeeeeeeeeabgheffffffffe.",
"jje            eefhgheffffffffe.",
"jje fffffffffffee dhdeeeeeeeeee.",
"jje fffffffffffee...............",
"jje ffffffffffffd.edededededed.j",
"jje fffffffffeefe.defefefefefe.j",
"jje ffffffffeoiee.efffOffffffe.j",
"jje dddddddd.ocid.efffOOfffffe.j",
"jje         focci.efffOOOffffe.j",
"jje ffffffffeoccciefffOOOOfffe.j",
"jje ffffffffeoccccieffOOOffffe.j",
"jje ffffffffeocccieeffOOfffffe.j",
"jje ffffffffeoiiccieefOffffffe.j",
"jje ffffffffeeeeoccieffffffffe.j",
"jje eeeeeeeeeeedocieeffffffffe.j",
"jje..............ideeeeeeeeeee.j",
"jjjjjjjjjjjjjjj................j",
"jjjjjjjjjjjjjjjjjjjjjjjjjjjjjjjj",
"jjjjjjjjjjjjjjjjjjjjjjjjjjjjjjjj"
};
