/* XPM */
static char *_xpm[]={
"16 16 5 1",
"  c white",
". c black",
"b c #333333333333",
"n c #999999999999",
"p c #cccccccccccc",
"nnnnnnnnnnnnnnnn",
"n              .",
"n ppppppppppppn.",
"n ppppppppppppn.",
"n ppppbpppppppn.",
"n ppppbbppppppn.",
"n ppppbbbpppppn.",
"n ppppbbbbppppn.",
"n ppppbbbbbpppn.",
"n ppppbbbbppppn.",
"n ppppbbbpppppn.",
"n ppppbbppppppn.",
"n ppppbpppppppn.",
"n ppppppppppppn.",
"n nnnnnnnnnnnnn.",
"n..............."
};
