/* XPM */
static char *_xpm[]={
"16 16 8 1",
"  c white",
". c black",
"o c #cccccccc9999",
"a c #999999996666",
"m c #666666666666",
"n c #999999999999",
"p c #cccccccccccc",
"t c #666633339999",
"nnnnnnnnnnnnnnnn",
"n     ppp      .",
"n pppnmnmnppppn.",
"n pppnn ommpppn.",
"n ppppnmm onppn.",
"n pppppnmoomnpn.",
"n ppppnopmmnmnm.",
"n pppnopatnm om.",
"n ppnopatnnnomn.",
"n pnopatnppmmnn.",
"n nopatnppppnpn.",
"npopatnpppppppn.",
"nopatnppppppppn.",
"nptatnppppppppn.",
"n mtmnnnnnnnnnn.",
"n..............."
};
