/* XPM */
static char *_xpm[]={
"16 16 11 1",
"  c white",
". c black",
"o c #cccccccc9999",
"b c #333333333333",
"d c #ffff00000000",
"e c #ffff66663333",
"m c #666666666666",
"n c #999999999999",
"p c #cccccccccccc",
"r c #cccc00000000",
"t c #666633339999",
"nnnnnnnnnnnnnnnn",
"n     ppp      .",
"n pppnmmmnppppn.",
"n pppnm obmpppn.",
"n ppppnmb omppn.",
"n pppppnmoobnpn.",
"n ppppndembnmmm.",
"n pppndertnm ob.",
"n ppndertnnmobm.",
"n pndertnppmbnn.",
"n ndertnppppnpn.",
"npdertnpppppppn.",
"ndertnppppppppn.",
"nptrtnppppppppn.",
"n mtmnnnnnnnnnn.",
"n..............."
};
