/* XPM */
static char *_xpm[]={
"16 16 7 1",
"  c white",
". c black",
"o c #ffff00000000",
"O c #ffff66663333",
"a c #999999999999",
"b c #cccccccccccc",
"c c #cccc00000000",
"aaaaaaaaaaaaaaaa",
"a              .",
"a bbbbbbbbbbbba.",
"a bbbboooobbbba.",
"a bbaoccccoabba.",
"a bbocbbbOocbba.",
"a bocbbbOococba.",
"a bocbbOocbocba.",
"a bocbOocbbocba.",
"a bocOocbbbocba.",
"a bboocbbbocbba.",
"a bbacoooocabba.",
"a bbbbccccbbbba.",
"a bbbbbbbbbbbba.",
"a aaaaaaaaaaaaa.",
"a..............."
};
