/* XPM */
static char *_xpm[]={
"16 16 5 1",
"  c white",
". c black",
"m c #666666666666",
"n c #999999999999",
"p c #cccccccccccc",
"nnnnnnnnnnnnnnnn",
"n              .",
"n ppppppppppppn.",
"n ppppppppppppn.",
"n ppppppppppppn.",
"n ppppppppppppn.",
"n nnnnnnnnnnnnn.",
"n mmmmmmmmmmmmn.",
"n ppppppppppppn.",
"n             n.",
"n ppppppppppppn.",
"n ppppppppppppn.",
"n ppppppppppppn.",
"n ppppppppppppn.",
"n nnnnnnnnnnnnn.",
"n..............."
};
