/* XPM */
static char *_xpm[]={
"16 16 6 1",
"  s iconColor2	c white",
". s iconColor1	c black",
"o s None	c none",
"O 		c #666666666666",
"a s iconGray2	c #bdbdbdbdbdbd",
"b s iconColor6	c yellow",
"o.............oo",
"o.           .oo",
"o. aaaaaaaaaO.oo",
"o. aa.aaaaaaO.oo",
"o. aa..aaaaaO.oo",
"o. aa...a..aO.oo",
"o. aa.....b.O.oo",
"o. aa.....bb..oo",
"o. aa.....bbb.oo",
"o. aa...a.bbbb.o",
"o. aa..aa.bbb.oo",
"o. aa.aaa...b.oo",
"o. aaaaaaaa.bb.o",
"o. OOOOOOOOO.b.o",
"o..............o",
"oooooooooooooooo"
};
