/* XPM */
static char *_xpm[]={
"16 16 6 1",
"  s iconColor2	c white",
". s iconColor1	c black",
"o s None	c none",
"O 		c #666666666666",
"b s iconColor6	c yellow",
"c s iconColor9	c DarkKhaki",
"oOcOcOcOcOcOcOoo",
"oc           coo",
"oO ooooooooocOoo",
"oc oocooooooOcoo",
"oO ooccooooocOoo",
"oc ooccco..oOcoo",
"oO oocccc.b.cOoo",
"oc oocccc.bb.coo",
"oO oocccc.bbb.oo",
"oc ooccco.bbbb.o",
"oO ooccoo.bbb.oo",
"oc oocooo...b.oo",
"oO oooooooo.bb.o",
"oc cOcOcOcOc.b.o",
"oOcOcOcOcOcOc..o",
"oooooooooooooooo"
};
