/* XPM */
static char *_xpm[]={
"16 16 3 1",
". c black",
"x c #808080808080",
"F c none",
"FFFFFFFFFFxxxxFF",
"FFFFFFFFFxFFFF.F",
"FFFFFFFFFxFx.FF.",
"FFFFFFFFFxFx.FF.",
"FFFFFFFFxFFFFFF.",
"FFFFFFFxFFxxFF.F",
"FFFFFFxFFF.F..FF",
"FFFFFxFFx.FFFFFF",
"FFFFxFFF.FFFFFFF",
"FFFxFFx.FFFFFFFF",
"FFxFFF.FFFFFFFFF",
"FxFFxFxFFFFFFFFF",
"FxFxFxF.FFFFFFFF",
"FF.FxFx.FFFFFFFF",
"FFF.Fx.FFFFFFFFF",
"FFFF..FFFFFFFFFF"
};
