/* XPM */
static char *_xpm[]={
"16 16 4 1",
". c black",
"q c #000033339999",
"u c #00000000ffff",
"F c none",
"FFFFFFFFFFqqqqFF",
"FFFFFFFFFquuuq.F",
"FFFFFFFFFquq.uq.",
"FFFFFFFFFquq.uq.",
"FFFFFFFFquuquuq.",
"FFFFFFFquuqqqq.F",
"FFFFFFquuq.F..FF",
"FFFFFquuq.FFFFFF",
"FFFFquuq.FFFFFFF",
"FFFquuq.FFFFFFFF",
"FFquuq.FFFFFFFFF",
"Fquu.uqFFFFFFFFF",
"Fqu.u.u.FFFFFFFF",
"FF.u.u..FFFFFFFF",
"FFF.u..FFFFFFFFF",
"FFFF..FFFFFFFFFF"
};
