/* XPM */
static char *_xpm[]={
"32 32 14 1",
"  c white",
". c black",
"o c #cccccccc9999",
"O c #999999996666",
"a c #ffff66663333",
"b c #ffffffff0000",
"c c #0000ffff0000",
"e c #999999999999",
"f c #cccc00000000",
"g c #000099990000",
"h c #666633339999",
"i c #ffffafafafaf",
"j c #999933336666",
"k c none",
"kkkkkkkkkkkkkkkkkkkkkkkkkkkkkkkk",
"kkkkkkkkkkkkkkkkkkkkkkkkkkkkkkkk",
"kkkkkkkkkkkkkkkkkkkkkkkkckkkkkkk",
"kkeeeeeeeeeeeeekkkkkkkk cokkkkkk",
"keaaaaaaaaaaaaa.kkkkkkkccckkkkkk",
"keaafffffffffaf.kkkkkk cccokkkkk",
"keaffiffffffffj.kkkkkkccccckkkkk",
"keafifffffffffj.kkkkk cccccokkkk",
"keafffffffffffj.kkkkkccccccckkkk",
"keaffffffjfjfjj.kkkkcggggggggkkk",
"keaffffjfjhjfjjhhkkkhhkkkkkkkkkk",
"keafffffjhb.jjhbb.khbb.kkkkkkkkk",
"keaffffjhbbhjhb.hbhb.hbhkkkkkkkk",
"keaaffjfjhb.jjh.hbhhhhb.kkkkkkkk",
"keafjjjjjhbhjjjhb.hhbb.hkkkkkkkk",
"kk.......hb...hb.hkhh.bhkkkkkkkk",
"kkkkkkkkkhbhkhb.hkkkkhbhkkkkkkkk",
"kkkkkkkkkhb.khb.hhhbhhb......kkk",
"kkkkkkkkhbbbhhbbbbhhbb.hgggggekk",
"kkkkkkkkh.h.hhh.h.hhh.hOOgcgoekk",
"kkkkkkkkkkkkkkk.gOgOgOgcgccccekk",
"kkkkkkkkkkkkkkk.ggcgcgcgccccoekk",
"kkkiiiiiiiifkkk.gccccccccccccekk",
"kkkkffffffjkkkk.gcccccccccccoekk",
"kkkkjfffffjkkkk.gcccccccc cccekk",
"kkkkkffffjkkkkk.gccccccc cccoekk",
"kkkkkjfffjkkkkk.gccccccccccccekk",
"kkkkkkffjkkkkkk.ggcccccccccooekk",
"kkkkkkjfjkkkkkk.gococococococekk",
"kkkkkkkfkkkkkkkkeeeeeeeeeeeeekkk",
"kkkkkkkjkkkkkkkkkkkkkkkkkkkkkkkk",
"kkkkkkkkkkkkkkkkkkkkkkkkkkkkkkkk"
};
