/* XPM */
static char *_xpm[]={
"16 16 7 1",
"  c white",
". c black",
"o c #cccccccc9999",
"h c #0000ffff0000",
"s c #000099990000",
"x c #808080808080",
"F c none",
"FFFFFFFFFFFFFFFF",
"FFFFFFFFFFFFFFFF",
"FF............FF",
"F.ssssssssssssxF",
"F.sshhhhhhhhshxF",
"F.shh hhhhhhhoxF",
"F.sh hhhhhhhhhxF",
"F.shhhhhhhhhhoxF",
"F.shhhhhhhhhhhxF",
"F.shhhhhhhh hoxF",
"F.shhhhhhh hhhxF",
"F.sshhhhhhhhooxF",
"F.shohohohohohxF",
"FFxxxxxxxxxxxxFF",
"FFFFFFFFFFFFFFFF",
"FFFFFFFFFFFFFFFF"
};
