/* XPM */
static char *_xpm[]={
"16 16 2 1",
". c black",
"o c none",
"oooooooooooooooo",
"oooooooooooooooo",
"oooooo....oooooo",
"o..............o",
"o..............o",
"o.oo..oooo..oo.o",
"o.o...oooo...o.o",
"o.o...oooo...o.o",
"o.oo..oooo..oo.o",
"o.oo...oo...oo.o",
"o.oooo.oo.oooo.o",
"o.ooo.oooo.ooo.o",
"o.oo.oooooo.oo.o",
"o....oooooo....o",
"oooo........oooo",
"oooooooooooooooo"
};
