/* XPM */
static char *_xpm[]={
"16 16 2 1",
". c black",
"F c none",
"FFFFFFFFFFFFFFFF",
"FFFFFFFFFFFFFFFF",
"FFFFFFFFFFFFFFFF",
"F....FFFFFFFF.FF",
"FF....FFFFFF.FFF",
"FFF....FFFF.FFFF",
"FFFF....FF.FFFFF",
"FFFFF...F.FFFFFF",
"FFFFFF.F..FFFFFF",
"FFFFF.F....FFFFF",
"FFFF.FFF....FFFF",
"FFF.FFFFF....FFF",
"FF.FFFFFFF....FF",
"F.FFFFFFFFF....F",
"FFFFFFFFFFFFFFFF",
"FFFFFFFFFFFFFFFF"
};
