/* XPM */
static char *_xpm[]={
"16 16 5 1",
"  c white",
". c black",
"o c #cccccccc9999",
"p c #cccccccccccc",
"F c none",
"FFFFF.....FFFFFF",
"FFF..oo.oo..FFFF",
"FF.oo  .o  o.FFF",
"F.o..o    o. .FF",
"F.oo .o      .FF",
".o    .o      .F",
".oo    .o    o.F",
"...    p.   ...F",
".oo     .o   o.F",
".o       .    .F",
"F. o     .o  .FF",
"F.o.o      .o.FF",
"FF.o   .   o.FFF",
"FFF..o .o ..FFFF",
"FFFFF.....FFFFFF",
"FFFFFFFFFFFFFFFF"
};
