/* XPM */
static char *_xpm[]={
"16 16 11 1",
"  c white",
". c black",
"o c #cccccccc9999",
"O c #333333333333",
"a c #ffff00000000",
"b c #ffff66663333",
"c c #666666666666",
"d c #999999999999",
"e c #cccc00000000",
"f c #666633339999",
"g c none",
"gggggggggggggggg",
"ggggggcccggggggg",
"ggggggc o.cggggg",
"gggggggcO ocgggg",
"ggggggggcoo.gggg",
"gggggggbacOdcccg",
"ggggggbaefgc oOg",
"gggggbaefggcoOgg",
"ggggbaefgggcOggg",
"gggbaefggggggggg",
"ggbaefgggggggggg",
"gbaefggggggggggg",
"baefgggggggggggg",
"gfefgggggggggggg",
"ggfggggggggggggg",
"gggggggggggggggg"
};
