/* XPM */
static char *_xpm[]={
"16 16 8 1",
"  c white",
"o c #cccccccc9999",
"a c #999999996666",
"m c #666666666666",
"n c #999999999999",
"p c #cccccccccccc",
"t c #666633339999",
"F c none",
"FFFFFFFFFFFFFFFF",
"FFFFFFmnmFFFFFFF",
"FFFFFFn ommFFFFF",
"FFFFFFFmm onFFFF",
"FFFFFFFFmoomFFFF",
"FFFFFFFopmmnmnmF",
"FFFFFFopatFm omF",
"FFFFFopatFFnomFF",
"FFFFopatFFFmmFFF",
"FFFopatFFFFFFFFF",
"FFopatFFFFFFFFFF",
"FopatFFFFFFFFFFF",
"opatFFFFFFFFFFFF",
"FtatFFFFFFFFFFFF",
"FFtFFFFFFFFFFFFF",
"FFFFFFFFFFFFFFFF"
};
