/* XPM */
static char * trigger_xpm[] = {
/**/
"32 32 4 1",
/**/
" 	s iconGray1  c #dededededede",
".	s iconGray6  c #636363636363",
"X	s iconGray2  c #bdbdbdbdbdbd",
"o	s iconColor1 c black",
/**/
"                                ",
"                               .",
"  XXXXXXXXXXXXXXXXXXXXXXXXXXXX..",
"  XXXXXXXXXXXXXXXXXXXXXXXXXXXX..",
"  XXXXXXXXXXXXXXXXXXXXXXXXXXXX..",
"  XXXXXXXXXXXXXXXXXXXXXXXXXXXX..",
"  XXXXXooooooooooooooooooXXXXX..",
"  XXXXXooooXXXoooooXXooooXXXXX..",
"  XXXXXoooXXXXoooooXXXXooXXXXX..",
"  XXXXXooXXXXXoooooXXXXooXXXXX..",
"  XXXXXoXXXXXXoooooXXXXXoXXXXX..",
"  XXXXXoXXXXXXoooooXXXXXoXXXXX..",
"  XXXXXXXXXXXXoooooXXXXXXXXXXX..",
"  XXXXXXXXXXXXoooooXXXXXXXXXXX..",
"  XXXXXXXXXXXXoooooXXXXXXXXXXX..",
"  XXXXXXXXXXXXoooooXXXXXXXXXXX..",
"  XXXXXXXXXXXXoooooXXXXXXXXXXX..",
"  XXXXXXXXXXXXoooooXXXXXXXXXXX..",
"  XXXXXXXXXXXXoooooXXXXXXXXXXX..",
"  XXXXXXXXXXXXoooooXXXXXXXXXXX..",
"  XXXXXXXXXXXXoooooXXXXXXXXXXX..",
"  XXXXXXXXXXXXoooooXXXXXXXXXXX..",
"  XXXXXXXXXXXXoooooXXXXXXXXXXX..",
"  XXXXXXXXXXXXoooooXXXXXXXXXXX..",
"  XXXXXXXXXXXooooooXXXXXXXXXXX..",
"  XXXXXXXXXoooooooooooXXXXXXXX..",
"  XXXXXXXXXXXXXXXXXXXXXXXXXXXX..",
"  XXXXXXXXXXXXXXXXXXXXXXXXXXXX..",
"  XXXXXXXXXXXXXXXXXXXXXXXXXXXX..",
"  XXXXXXXXXXXXXXXXXXXXXXXXXXXX..",
"  ..............................",
" ..............................."};
