/* XPM */
static char *_xpm[]={
"32 32 20 1",
". c black",
"o c #cccccccc9999",
"a c #999999996666",
"b c #333333333333",
"c c #333366669999",
"d c #ffff00000000",
"i c #00003333ffff",
"j c #000066660000",
"m c #666666666666",
"n c #999999999999",
"q c #000033339999",
"r c #cccc00000000",
"s c #000099990000",
"t c #666633339999",
"w c #404040404040",
"y c #ffffafafafaf",
"z c #ffffc8c80000",
"C c #cccc99990000",
"E c #999933336666",
"F c none",
"FFFFFFFFFFFFFFFFFFFFFFFFFFFFFFFF",
"FFFFFFFFFFFFFFFFFFFFFFFFFFFFFFFF",
"FFFFFFFFFFFFFFFFFFFFFFFFFFFFFFFF",
"FFFFFFFFFFFFFFnnnnFFFFFFFFFFFFFF",
"FFFFFFFFFFFFnniiiinnFFFFFFFFFFFF",
"FFFFFFFFFFFniiiiiiii.FFFFFFFFFFF",
"FFFFFFFFFFFniiiiiiii.FFFFFFFFFFF",
"FFFFFFFFFFniiiiiiiiii.FFFFFFFFFF",
"FFFFFyyyyrniiiiiiiiii.aooooFFFFF",
"FFFFyrdrdEniiiiiiiiii.jssssqFFFF",
"FFFyrdrdrEniiiiiiiiii.jsssssqFFF",
"FFFydrdrdEniiiiiiiiii.jsssssqFFF",
"FFFyrdrdrEniiiiiiiiii.jsssssqFFF",
"FFFydrdrrEniiiiiiiiii.jsssjsqFFF",
"FFFyrdrdrEEqiiiiiiii.jjsjsjjqFFF",
"FFFydrdrrrEqiiiiiiii.jsssjCCCCFF",
"FFFFyrrrdrbFqiiiiii.FosjjCzzzCbF",
"FFFFFtdrrtFFqiiiiii.FFjsjCzCwzCm",
"FFFFFtrEEbnniiiiiiiimmjjjCzCwzCb",
"FFFyyEEnnniiiiiiiciiiimbCzzCzzCm",
"FFyEEnniiiiiiiiiiiicicqCzzCCCCbF",
"FyEEniiiiiiiiiiciciicqCzzCbq.jqF",
"yrEniiiiiiiiiiiiicicqCzzCbqqq.jq",
"ydEniiiiiiiiiciciicqCzzCbqqiq.jq",
"yrEniiiiiiiiiiicicqCzzCbqqici.jq",
"ydEniiiiiiiciciicqCzzCbqqiciq.jq",
"yrEniiiiiiiiicicqCzzCzCqicicq.jq",
"yttniiiiiciciiciqCzCzCz.qicic.qq",
"FFFnqiqiqiicqcqcqqbzCzC.qcqcq.FF",
"FFFF...............bzC.......FFF",
"FFFFFFFFFFFFFFFFFFFF..FFFFFFFFFF",
"FFFFFFFFFFFFFFFFFFFFFFFFFFFFFFFF"
};
