/* XPM */
static char * directory_xpm[] = {
/* width height ncolors cpp [x_hot y_hot] */
"32 32 15 1 0 0",
/* colors */
" 	s none		m none	c none",
".	s iconColor2	m white	c white",
"X	s iconColor5	m black	c blue",
"o	s iconGray7	m black	c #424242424242",
"O	s iconGray2	m white	c #bdbdbdbdbdbd",
"+	s iconColor1	m black	c black",
"@	s iconGray3	m white	c #adadadadadad",
"#	s iconColor3	m black	c red",
"$	s iconColor8	m white	c magenta",
"%	s iconColor4	m white	c green",
"&	s iconColor7	m white	c cyan",
"*	s iconGray1	m white	c #dededededede",
"=	s iconGray6	m black	c #636363636363",
"-	s iconColor6	m black	c yellow",
";	s iconGray8	m black	c #212121212121",
/* pixels */
"                  ..Xo          ",
"                ..XXX.o         ",
"              ..XXX..Oo         ",
"              .XX..OOOOo        ",
"              ...OOOOOOo        ",
"             ..OOOOOOOOOo       ",
"           ..OOOOOOOOOOOo       ",
"  +++++++..OOOOOOOOOOOOOOo      ",
"  +++++..OOOOOOOOOOOOOOOOo      ",
"  +++.....................o     ",
"  +@.#####.$$$$$.%%%%.&&&&o     ",
"  +@************************    ",
"  +=*@@@@@@@@@@@@@@@@@@@@@@@    ",
"  +=*@@@@@@..........@@@@@@@    ",
"  +=*@@@@@@.-#-#-#-#.=@@@@@@.   ",
"  +=*@@@@@@.#-#-#-#-.=@@@@@@..  ",
"  +@*@@@@@@.;;;;;;;;.=@@@@@@+.. ",
"  +@*@@@@@@.========.=@@@@@@++. ",
"  +@*@@@@@@..........=@@@@@@++. ",
"  +@*@@@@@@@==========@@@@@@++. ",
"  +=*@@@@@@@@@@@@@@@@@@@@@@@++. ",
"  +=*@@@@@@@@@@@@@@@@@@@@@@@++. ",
"  +=*@@@@@@@@@@@@@@@@@@@@@@@++. ",
"  +=*@@@@@@@@@@@@@@@@@@@@@@@++. ",
"  +@*@@@@@@@@@@@@@@@@@@@@@@@++. ",
"  .@*@@@@@@@@@@@@@@@@@@@@@@@++. ",
"    *@@@@@@@@@@@@@@@@@@@@@@@++. ",
"    *@@@@@@@@@@@@@@@@@@@@@@@++. ",
"    *@@@@@@@@@@@@@@@@@@@@@@@++. ",
"      ..++++++++++++++++++++++. ",
"       ..+++++++++++++++++++++. ",
"        ....................... "};
