/* XPM */
static char * elf_xpm[] = {
/* width height ncolors chars_per_pixel */
"32 32 10 1",
/* colors */
" 	s none		m none	c none",
".	s iconColor2	m white	c white",
"X	s iconGray3 	m white c #adadadadadad",
"o	s iconColor1	m black	c black",
"O	s iconGray7 	m black c #424242424242",
"+	s iconColor10   m white c CornflowerBlue",
"@	s iconColor12   m white c coral",
"#	s iconGray6     m black c #636363636363",
"$	s iconColor9    m white c DarkKhaki",
"%	s iconColor11   m white c Cadet Blue",
/* pixels */
"                                ",
"   .....................        ",
"   .XXXXXXXXXXXXXXXXXX.Xo       ",
"   .XXXXXXXXXXXXXXXXXX.XXo      ",
"   .XXXXXXXXXXXXXXXXXX.XXXo     ",
"   .XXXXXXXXXXXXXXXXXX.ooooo    ",
"   .XXXXXXXXXXXXXXXXXXXXXXXo    ",
"   .XXXXXXXXXXXXXXXXXXXXXXXo    ",
"   .XXXXXXXXXXXOOOOOOOOOOXXo    ",
"   .XXXXXXOOOOXO++++++++OXXo    ",
"   .XXXXXOO@@OOO+##++#++OXXo    ",
"   .XXXXXOOOOOXO++++++++OXXo    ",
"   .XXXXXOXXXXXOOOOOOOOOOXXo    ",
"   .XXXXXOXXXXXXXXXXXXXXXXXo    ",
"   .XOOOOOXXXXXXXXXXXXXXXXXo    ",
"   .XO$$$OXXXXXXOOOOOOOOOOXo    ",
"   .XOOOOOXXXXXXO++++++++OXo    ",
"   .XXXXXOXXXXXOO+##++#++OXo    ",
"   .XXXXXOXXXXXOO++++++++OXo    ",
"   .XXXXXOXXXXXOOOOOOOOOOOXo    ",
"   .XXXXXOXOOOOOXXXXXXXXXXXo    ",
"   .XXXXXOOO$$$OXXXXXXXXXXXo    ",
"   .XXXXXXXOOOOOXXXXXXXXXXXo    ",
"   .XXXXXXXXXXXOOOOOOOOOOOXo    ",
"   .XXXXXXXXXXXOO%%%%%%%%OXo    ",
"   .XXXXXXXXXXXOO%##%%##%OXo    ",
"   .XXXXXXXXXXXXO%%%%%%%%OXo    ",
"   .XXXXXXXXXXXXOOOOOOOOOOXo    ",
"   .XXXXXXXXXXXXXXXXXXXXXXXo    ",
"   .XXXXXXXXXXXXXXXXXXXXXXXo    ",
"   .oooooooooooooooooooooooo    ",
"                                "};
