/* XPM */
static char * elv_xpm[] = {
/* width height ncolors chars_per_pixel */
"32 32 4 1",
/* colors */
" 	s none		m none	c none",
".	s iconColor2	m white	c white",
"X	s iconGray3 	m white c #adadadadadad",
"o	s iconColor1	m black	c black",
/* pixels */
"                                ",
"   .....................        ",
"   .XXXXXXXXXXXXXXXXXX.Xo       ",
"   .XXXXXXXXXXXXXXXXXX.XXo      ",
"   .XXXXXoooooXXXXXXXX.XXXo     ",
"   .XXXoooooooooXXXXXX.ooooo    ",
"   .XXooo.....oooXXXXXXXXXXo    ",
"   .XXoo.oo....ooXXXXXXXXXXo    ",
"   .Xoo.o..o....ooXXXXXXXXXo    ",
"   .Xoo.o.o.....ooXXXXXXXXXo    ",
"   .Xoo..o......ooXXXXXXXXXo    ",
"   .Xoo.........ooXXXXXXXXXo    ",
"   .Xoo.........ooXXXXXXXXXo    ",
"   .XXoo.......ooXXXXXXXXXXo    ",
"   .XXooo.....oooXXXXXXXXXXo    ",
"   .XXXoooooooooooXXXXXXXXXo    ",
"   .XXXXXoooooXXoooXXXXXXXXo    ",
"   .XXXXXXXXXXXXXoooXXXXXXXo    ",
"   .XXXXXXXXXXXXXXoooXXXXXXo    ",
"   .XXXXXXXXXXXXXXXoooXXXXXo    ",
"   .XXXXXXXXXXXXXXXXoooXXXXo    ",
"   .XXXXXXXXXXXXXXXXXoooXXXo    ",
"   .XXXXXXXXXXXXXXXXXXoooXXo    ",
"   .XXXXXXXXXXXXXXXXXXXoooXo    ",
"   .XXXXXXXXXXXXXXXXXXXXooXo    ",
"   .XXXXXXXXXXXXXXXXXXXXXXXo    ",
"   .XXXXXXXXXXXXXXXXXXXXXXXo    ",
"   .XXXXXXXXXXXXXXXXXXXXXXXo    ",
"   .XXXXXXXXXXXXXXXXXXXXXXXo    ",
"   .XXXXXXXXXXXXXXXXXXXXXXXo    ",
"   .oooooooooooooooooooooooo    ",
"                                "};
