/* XPM */
static char * link_xpm[] = {
/* width height ncolors chars_per_pixel */
"32 32 4 1",
/* colors */
" 	s none		m none	c none",
".	s iconColor1	m black	c black",
"X	s iconGray2     m white c #bdbdbdbdbdbd",
"o	s iconGray6 	m black c #636363636363",
/* pixels */
"                                ",
"                                ",
"                                ",
"                                ",
"                                ",
"                                ",
"                                ",
"                                ",
"                                ",
"                                ",
"                                ",
".........                       ",
"XXXXXXXXX.......................",
"XXXXXXXXXX.ooooooooooo..XXXXXXXX",
"........XXX.ooooooooo.XXXXXXXXXX",
"     .oo.XX..........XXX........",
"     .oo.XX.        .XX..oo.    ",
"......oo.XX.        .XX..oo.    ",
"XXXXXX.oo................o.     ",
"XXXXXXX.oooooooooooooooooo......",
"........ooooooooooooooooo.XXXXXX",
"        ..................XXXXXX",
"                        ........",
"                                ",
"                                ",
"                                ",
"                                ",
"                                ",
"                                ",
"                                ",
"                                ",
"                                "};
