/* XPM */
static char * map_xpm[] = {
/* width height ncolors chars_per_pixel */
"32 32 6 1",
/* colors */
" 	s none		m none	c none",
".	s iconColor2	m white	c white",
"X	s iconGray3 	m white c #adadadadadad",
"o	s iconColor1	m black	c black",
"O	s iconColor4	m white	c green",
"+	s iconColor5	m black	c blue",
/* pixels */
"                                ",
"   .....................        ",
"   .XXXXXXXXXXXXXXXXXX.Xo       ",
"   .XXXXXXXXXXXXXXXXXX.XXo      ",
"   .XXXXXXXXXXXXXXXXXX.XXXo     ",
"   .XXXXXXXXXXXXXXXXXX.ooooo    ",
"   .XXXXXXXXXXXXXXXXXXXXXXXo    ",
"   .XXXXXXXXXoooooXXXXXXXXXo    ",
"   .XXXXXXXoo.....ooXXXXXXXo    ",
"   .XXXXXooOOoooooOOooXXXXXo    ",
"   .XXXXo+OoOo++++oOOOoXXXXo    ",
"   .XXXXo+oOoo++++oOOOoXXXXo    ",
"   .XXXo+oOOOOo++oOOOOOoXXXo    ",
"   .XXXo+oOOOo++oOOOOOOoXXXo    ",
"   .XXo++oOOo+++++o++ooooXXo    ",
"   .XXo++oOo++++oOOOOo++oXXo    ",
"   .XXo++oo++++oOOOOOOo+oXXo    ",
"   .XXo++O+++++oOOOOOOo+oXXo    ",
"   .XXo++oOo++++oOOOOo++oXXo    ",
"   .XXXo+OOOo++++oOOOo+oXXXo    ",
"   .XXXo+OOOo++++oOOo++oXXXo    ",
"   .XXXXooOOo+++++oOo+oXXXXo    ",
"   .XXXXo++oOo+++++o++oXXXXo    ",
"   .XXXXXoo++ooooo++ooXXXXXo    ",
"   .XXXXXXXoo.....ooXXXXXXXo    ",
"   .XXXXXXXXXoooooXXXXXXXXXo    ",
"   .XXXXXXXXXXXXXXXXXXXXXXXo    ",
"   .XXXXXXXXXXXXXXXXXXXXXXXo    ",
"   .XXXXXXXXXXXXXXXXXXXXXXXo    ",
"   .XXXXXXXXXXXXXXXXXXXXXXXo    ",
"   .oooooooooooooooooooooooo    ",
"                                "};
