/* XPM */
static char * prefs_xpm[] = {
/* width height ncolors chars_per_pixel */
"32 32 7 1",
/* colors */
" 	s none		m none	c none",
".	s iconColor2	m white	c white",
"X	s iconGray3 	m white c #adadadadadad",
"o	s iconColor1	m black	c black",
"O	s iconGray6 	m black c #636363636363",
"+	s iconColor3	m black	c red",
"@	s iconGray1 	m white c #dededededede",
/* pixels */
"                                ",
"   .....................        ",
"   .XXXXXXXXXXXXXXXXXX.Xo       ",
"   .XXXXXXXXXXXXXXXXXX.XXo      ",
"   .XXXXXXXXXXXXXXXXXX.XXXo     ",
"   .XXXXXXXXXXXXXXXXXX.ooooo    ",
"   .XXXOOXXX.XXXXXXXXXXXXXXo    ",
"   .XXO++@XX.X.X.X.XXXXXXXXo    ",
"   .XXO++@XX..XXX.XXXXXXXXXo    ",
"   .XXX@@XXX.XX.XX.XXXXXXXXo    ",
"   .XXXXXXXXXXXXXXXXXXXXXXXo    ",
"   .XXXXXXXXXXXXXXXXXXXXXXXo    ",
"   .XXXOOXXXXX.XXXXXXXXXXXXo    ",
"   .XXO++@XX..XX.X.XX..XXXXo    ",
"   .XXO++@XX.X.XX.X..X.XXXXo    ",
"   .XXX@@XXX.XX.XX.XXX.XXXXo    ",
"   .XXXXXXXXXXXXXXXXXXXXXXXo    ",
"   .XXXXXXXXXXXXXXXXXXXXXXXo    ",
"   .XXXOOXXX.XXX.XXXXXXXXXXo    ",
"   .XXO++@XXX.XX.XX.XXXXXXXo    ",
"   .XXO++@XX.X..X..XXXXXXXXo    ",
"   .XXX@@XXXX.XXXXX.XXXXXXXo    ",
"   .XXXXXXXXXXXXXXXXXXXXXXXo    ",
"   .XXXXXXXXXXXXXXXXXXXXXXXo    ",
"   .XXXOOXXX.XX.XXXXXXXXXXXo    ",
"   .XXO++@XXX..XX.XX..XXXXXo    ",
"   .XXO++@XXX.X.X..XX..XXXXo    ",
"   .XXX@@XXX..XX.XX.XXXXXXXo    ",
"   .XXXXXXXXXXXXXXXXXXXXXXXo    ",
"   .XXXXXXXXXXXXXXXXXXXXXXXo    ",
"   .oooooooooooooooooooooooo    ",
"                                "};
